<svg width="32" height="32" xmlns="http://www.w3.org/2000/svg"><path d="M8.5 19.851H6.96l-.812-2.243H2.297l-.798 2.243H0l3.466-9.46h1.526l3.507 9.46zm-2.792-3.513l-.77-2.176c-.234-.676-.62-1.77-.73-2.176-.11.406-.453 1.487-.7 2.19l-.771 2.162h2.97zm10.136 3.513h-1.54l-1.595-3.527-1.1 1.433v2.094h-1.417V10.73l1.416-.73v4.473c0 .432-.013 1.162-.013 1.513.192-.283.564-.824.797-1.162l1.5-2.067H15.5l-1.829 2.378 2.173 4.716zm5.06-1.405l-.165 1.23c-.343.189-.825.324-1.389.324-1.004 0-1.623-.608-1.623-1.878v-4.095h-1.031v-1.27h1.031V10.73l1.39-.73v2.757h1.787v1.27h-1.787v3.851c0 .663.22.852.742.852.372 0 .784-.135 1.045-.284zm3.616-7.5a.908.908 0 0 1-.907.892c-.51 0-.922-.406-.922-.892 0-.5.413-.905.922-.905a.91.91 0 0 1 .907.905zm-.206 8.905h-1.417v-7.094h1.417v7.094zm7.686 0h-1.389v-.702c-.495.486-1.197.851-1.98.851-1.17 0-2.504-.649-2.504-2.392 0-1.581 1.238-2.297 2.875-2.297.674 0 1.21.094 1.609.27v-.527c0-.77-.481-1.203-1.362-1.203-.742 0-1.32.135-1.884.446l-.55-1.054c.688-.419 1.458-.635 2.476-.635 1.609 0 2.709.77 2.709 2.378v4.865zm-1.389-2.013v-1.014c-.385-.189-.88-.31-1.65-.31-.908 0-1.486.405-1.486 1.054 0 .702.454 1.175 1.39 1.175.756 0 1.416-.46 1.746-.905z" fill="#009430" fill-rule="evenodd"/></svg>