<?xml version="1.0" encoding="UTF-8"?>
<svg width="32px" height="32px" viewBox="0 0 32 32" version="1.1" xmlns="http://www.w3.org/2000/svg" xmlns:xlink="http://www.w3.org/1999/xlink">
    <!-- Generator: Sketch 52.3 (67297) - http://www.bohemiancoding.com/sketch -->
    <title>Square/Aktia</title>
    <desc>Created with Sketch.</desc>
    <g id="Square/Aktia" stroke="none" stroke-width="1" fill="none" fill-rule="evenodd">
        <path d="M8.49947675,19.8513405 L6.95911896,19.8513405 L6.14768481,17.6080607 L2.2967621,17.6080607 L1.49908911,19.8513405 L3.60291486e-13,19.8513405 L3.46581701,10.39186 L4.99237978,10.39186 L8.49947675,19.8513405 Z M5.70758742,16.3378432 L4.93739159,14.1621594 C4.70358738,13.4864538 4.31853462,12.3918901 4.20846794,11.9864645 C4.09843513,12.3918901 3.7546094,13.4729326 3.50705532,14.1756806 L2.73689336,16.3378432 L5.70758742,16.3378432 Z M15.8443562,19.8513405 L14.3039871,19.8513405 L12.7086411,16.3242887 L11.608313,17.7567163 L11.608313,19.8513405 L10.1917491,19.8513405 L10.1917491,10.7296906 L11.608313,10 L11.608313,14.472992 C11.608313,14.9054156 11.5945405,15.6351063 11.5945405,15.9864914 C11.787129,15.7027012 12.1585335,15.1621301 12.3923264,14.8242995 L13.8913781,12.7567631 L15.5004966,12.7567631 L13.6713577,15.1350988 L15.8443562,19.8513405 Z M20.9044884,18.4459432 L20.7394448,19.6756879 C20.3955852,19.8648584 19.9142269,20 19.3503468,20 C18.3463129,20 17.727456,19.3918434 17.727456,18.1216338 L17.727456,14.0270138 L16.6959901,14.0270138 L16.6959901,12.7567631 L17.727456,12.7567631 L17.727456,10.7296906 L19.1165539,10 L19.1165539,12.7567631 L20.9044884,12.7567631 L20.9044884,14.0270138 L19.1165539,14.0270138 L19.1165539,17.8783407 C19.1165539,18.5405251 19.3365744,18.7297 19.85925,18.7297 C20.2305416,18.7297 20.6431506,18.5945989 20.9044884,18.4459432 Z M24.5203199,10.9458969 C24.5203199,11.4324276 24.107711,11.8378088 23.6125803,11.8378088 C23.1036771,11.8378088 22.6910682,11.4324276 22.6910682,10.9458969 C22.6910682,10.4459338 23.1036771,10.0405082 23.6125803,10.0405082 C24.107711,10.0405082 24.5203199,10.4459338 24.5203199,10.9458969 Z M24.3140719,19.8513405 L22.8974291,19.8513405 L22.8974291,12.7567631 L24.3140719,12.7567631 L24.3140719,19.8513405 Z M32,19.8513405 L30.6110149,19.8513405 L30.6110149,19.1486413 C30.1158842,19.6351321 29.4143926,20 28.630492,20 C27.4614145,20 26.1274064,19.3513319 26.1274064,17.6080607 C26.1274064,16.0270107 27.3652332,15.3107969 29.0017836,15.3107969 C29.6757304,15.3107969 30.2120656,15.4053788 30.6110149,15.5810769 L30.6110149,15.0540269 C30.6110149,14.2837838 30.1296567,13.8513157 29.249349,13.8513157 C28.5066529,13.8513157 27.9291133,13.9864613 27.3652332,14.2972939 L26.8151256,13.2432051 C27.5027319,12.8243137 28.2729729,12.6080964 29.2906663,12.6080964 C30.8997847,12.6080964 32,13.3783506 32,14.9864763 L32,19.8513405 Z M30.6110149,17.8378325 L30.6110149,16.8242963 C30.225838,16.6351213 29.7307073,16.513497 28.9605792,16.513497 C28.0528395,16.513497 27.475187,16.9189226 27.475187,17.5675525 C27.475187,18.2702451 27.9291133,18.7432213 28.8642849,18.7432213 C29.6207535,18.7432213 30.2808149,18.2837663 30.6110149,17.8378325 Z" id="Aktia" fill="#009430"></path>
    </g>
</svg>