<svg height="32" viewBox="0 0 32 32" width="32" xmlns="http://www.w3.org/2000/svg"><path d="m32 20.8333191v-4.8500586c0-1.6833252-1.1228668-2.7165686-3.0281997-2.7165686-1.5481049 0-2.73895.9500044-2.9601101 2.2166197h1.6331653c.1871073-.5166529.6123613-.8000275 1.2928919-.8000275.9697009 0 1.446058.5833752 1.446058 1.3333376v.5999231c-.3062364-.2165743-1.0717478-.4498838-1.7522785-.4498838-1.667218 0-2.9430278.9832719-2.9430278 2.3833162 0 1.5166599 1.2758098 2.416568 2.8240103 2.416568.8505876 0 1.616099-.2999069 1.871296-.5499204v.4166943zm-1.6161946-1.9666998c-.1871073.4666814-.8675583.7500404-1.548089.7500404-.7655113 0-1.5651711-.3168138-1.5651711-1.0666825 0-.7333209.7996598-1.0499786 1.5651711-1.0499786.6805307 0 1.3609817.2832966 1.548089.749978zm-5.4694065-7.6666014c0-.5667493-.4933278-1.0167111-1.0547612-1.0167111-.5614335 0-1.0547612.4499618-1.0547612 1.0167111 0 .5666556.4933277 1.0166018 1.0547612 1.0166018.5614334 0 1.0547612-.4499462 1.0547612-1.0166018zm-4.3424126 9.7999821c.5273965 0 .9867671-.0999742 1.2759213-.266655v-1.51666c-.2381308.1665872-.6294275.2999225-.9696849.2999225-.5614334 0-.9015952-.266655-.9015952-.8666562v-3.8333475h1.7011435v-1.3833247h-1.7011435v-1.9833414h-1.7012709v1.9833414h-1.190845v1.3833247h1.190845v4.016748c0 1.4666729.9527143 2.1666482 2.2966297 2.1666482zm-6.7027817-4.366642 3.215307-3.2000789h-2.1775165l-2.9602056 3.0333981v-6.4666772h-1.7011594v10.8333191h1.7011594v-2.4501009l.6975172-.6998972 2.5008192 3.1499981h2.0584989zm-5.94152503 4.1999611h1.80330191l-4.01487122-10.233318h-1.70125497l-4.01485529 10.233318h1.78621972l1.07182744-2.833356h3.99790058zm-1.6502315-4.3333901h-2.8580631l1.42908732-3.7832667zm16.73150633 4.3333901h1.701255v-7.40004h-1.701255z" fill="#0a0b09" fill-rule="evenodd"/></svg>