<svg width="32" height="32" viewBox="0 0 32 32" xmlns="http://www.w3.org/2000/svg"><g fill="#03426A" fill-rule="evenodd"><path d="M0 20.19V0h32v20.19H0zm7.356-5.028c0 .89-.446 1.329-1.444 1.329H4.341V13.16h1.52c1.207 0 1.495.63 1.495 1.318v.684zM8 15.135v-.57c0-1.818-1.338-1.888-2.235-1.888H3.692v4.308h2.25c1.77 0 2.058-1.026 2.058-1.85zm3.685.69c0 .26-.02.5-.295.608-.161.068-.39.09-.773.09-.384 0-.612-.039-.747-.136-.093-.062-.13-.165-.13-.38 0-.274.063-.427.182-.49.12-.062.27-.074.737-.074h1.026v.381zm.623 1.114v-1.775c0-.335 0-.568-.026-.739-.031-.176-.083-.301-.213-.41-.3-.255-1.037-.261-1.4-.261-.275 0-1.022.034-1.296.29-.094.085-.115.188-.115.313 0 .08.01.187.016.33h.607c.01-.08.026-.273.093-.353.083-.085.223-.12.638-.12.477 0 .809.018.949.103.13.08.124.25.124.381v.307h-1.4c-.378 0-.814.012-1.053.37-.108.153-.155.353-.155.609 0 .75.42 1 1.499 1 .56 0 .928-.096 1.15-.307l.058.262h.524zm3.672.046h.635v-1.822c0-.36-.016-.504-.048-.67-.048-.24-.176-.447-.41-.556-.241-.114-.556-.183-.962-.183-.358 0-.625.034-.838.103-.134.04-.23.097-.358.172l-.043-.23h-.571v3.186h.635v-2.601a3.667 3.667 0 0 1 1.025-.143c.39 0 .647.063.775.166.133.109.16.235.16.836v1.742zm4.578-.228c.256-.141.365-.374.365-.743 0-.46-.125-.687-.443-.807-.177-.068-.38-.096-.693-.102-.292-.005-1.147.006-1.309-.102-.067-.051-.12-.165-.12-.318 0-.227.073-.34.235-.403.172-.068.386-.085.761-.085s.641.034.73.108c.052.04.062.073.094.244l.026.142h.604c.01-.108.01-.176.01-.244 0-.25-.046-.392-.192-.483-.13-.08-.313-.125-.553-.16a7.073 7.073 0 0 0-.834-.05c-1.105 0-1.506.25-1.506.965 0 .79.657.818 1.277.852.14.005.26.017.365.017.219.006.354.006.396.011.078.006.151.006.224.023.24.04.287.142.287.392 0 .215-.063.329-.193.391-.182.091-.459.137-.855.137-.318 0-.568-.023-.724-.074-.162-.057-.152-.136-.172-.284-.006-.034-.006-.085-.026-.244h-.6c-.015.17-.026.295-.015.437.015.273.161.42.453.494.271.08.62.114 1.043.114.61 0 1.079-.069 1.365-.228zm3.828.228h.845l-1.833-1.688 1.471-1.329h-.743L22.86 15.13h-.223v-2.452H22v4.308h.638v-1.427h.223l1.525 1.427zm3.478-1.925H25.89c.02-.398.098-.574.237-.687.145-.114.407-.17.794-.17.536 0 .788.13.881.403.036.113.062.221.062.454zm.567.897h-.608c-.021.096-.031.34-.114.431-.093.103-.278.148-.773.148-.49 0-.757-.074-.896-.227-.103-.114-.165-.352-.165-.721v-.085h2.571c.005-.154.016-.193.016-.318 0-.523-.067-.812-.274-1.034-.231-.267-.68-.397-1.298-.397-.788 0-1.273.199-1.474.636-.118.25-.185.602-.185 1.039 0 .687.165 1.118.53 1.334.227.136.619.216 1.119.222.417 0 .752-.023 1.118-.142.355-.125.443-.347.443-.534 0-.045 0-.199-.01-.352z"/><path d="M10.942 24.6c0-.52-.361-.578-1.024-.578h-1.73v1.31h1.648c.745 0 1.106-.125 1.106-.733zm.86 1.922c0 .753-.531 1.164-1.484 1.164H7.486V23.56h2.722c1.058 0 1.43.369 1.43 1.096 0 .442-.307.723-.876.863v.01c.734.11 1.04.484 1.04.993zm-.7.047c0-.525-.225-.77-1.03-.77H8.186v1.414h1.797c.679 0 1.117-.057 1.117-.644zm4.057.057v-.348h-1.074c-.498 0-.657.01-.778.067-.131.057-.197.198-.197.447 0 .198.039.291.137.348.143.089.384.125.789.125s.646-.02.816-.083c.29-.099.307-.317.307-.556zm.663 1.018h-.554l-.06-.239c-.235.193-.619.281-1.216.281-1.14 0-1.583-.229-1.583-.915 0-.233.055-.415.164-.556.252-.327.713-.337 1.112-.337h1.474v-.281c0-.12.01-.275-.126-.348-.148-.078-.499-.094-1.003-.094-.438 0-.586.031-.673.11-.071.072-.082.249-.099.322h-.64c-.006-.13-.017-.23-.017-.302 0-.114.022-.208.12-.286.29-.234 1.08-.265 1.37-.265.383 0 1.161.005 1.479.24.137.098.191.212.224.373.028.156.028.37.028.676v1.621zm3.68.042v-1.58c0-.545-.027-.66-.164-.759-.132-.093-.395-.15-.795-.15-.35 0-.712.041-1.051.13v2.359h-.652v-2.89h.586l.05.209c.125-.068.224-.12.366-.156.214-.063.488-.094.855-.094.416 0 .74.062.986.166a.704.704 0 0 1 .427.504c.033.151.044.281.044.608v1.653h-.652zm4.228 0l-1.572-1.367h-.235v1.367h-.652V23.56h.652v2.349h.235l1.304-1.112h.761l-1.517 1.273 1.89 1.616h-.866z" fill-rule="nonzero"/></g></svg>