<svg width="32" height="32" viewBox="0 0 32 32" xmlns="http://www.w3.org/2000/svg"><path d="M0 0h32v32H0V0zm23.949 13.284c.025-.371.051-.77.051-1.248-.051-.61-.103-1.195-.231-1.779-.386-1.593-1.157-2.974-2.366-4.063a8.59 8.59 0 0 0-2.16-1.434 8.537 8.537 0 0 0-2.931-.743c-.592-.053-1.183.026-1.774.159-.9.186-1.749.558-2.546 1.036a9.394 9.394 0 0 0-2.108 1.832 8.001 8.001 0 0 0-1.209 1.965c-.437.982-.617 2.018-.668 3.08a8.92 8.92 0 0 0 .128 1.86c.103.743.334 1.46.643 2.124a8.723 8.723 0 0 0 1.157 1.779 8.883 8.883 0 0 0 1.517 1.46c.386.319.823.558 1.234.797.052.026.103.053.103.133v4.169c0 .16-.051.133-.18.133h-2.571c-.386-.027-.772 0-1.157 0-.103 0-.129.026-.129.132v3.267c.052.08.129.053.18.053h13.86c.05 0 .128.026.18-.053v-3.187c0-.106-.026-.16-.155-.16h-3.702c-.103 0-.155 0-.155-.132v-4.09c0-.106.052-.159.129-.185.283-.107.566-.266.848-.425.875-.531 1.672-1.195 2.315-2.018.488-.611.9-1.328 1.182-2.072.283-.77.463-1.566.515-2.39zm-5.966-1.009c1.286 0 2.571 0 3.831-.026h.155c-.515.903-1.003 1.805-1.517 2.708-.695 1.248-1.415 2.496-2.109 3.745-.077.08-.051.159-.051.239v5.39c0 .186-.052.24-.232.24h-4.5c-.205 0-.23-.054-.23-.24v-5.205c0-.08.025-.159-.027-.212-.051-.292-.205-.531-.334-.77a77.683 77.683 0 0 0-1.054-2.071c-.489-.956-.977-1.939-1.466-2.895-.154-.292-.308-.584-.463-.903h4.012c.103 0 .18.027.231.133.566 1.089 1.106 2.15 1.671 3.24l.026.026c.514-.93 1.029-1.832 1.543-2.735.103-.186.206-.345.283-.531.051-.106.128-.133.231-.133z" fill="#004921"/></svg>