<svg width="32" height="32" viewBox="0 0 32 32" xmlns="http://www.w3.org/2000/svg"><path d="M32 11.688a12.512 12.512 0 0 0-2.12-.163c-2.883 0-5.84.989-6.039 4.277h3.529c.124-1.385.993-1.928 2.335-1.928 1.243 0 2.286.222 2.286 1.73 0 1.435-2.013 1.36-4.174 1.682-2.187.296-4.373.989-4.373 3.881 0 2.621 1.938 3.833 4.373 3.833 1.501 0 3.07-.387 4.183-1.443V32H0V0h32v11.688zM6.2 7v17.654h3.901v-7.616h7.18v7.616h3.902V7h-3.901v6.775H10.1V7H6.2zm22.859 12.14c1.093-.198 2.336-.223 2.932-.742v1.31c0 .767-.1 2.943-2.858 2.943-1.143 0-2.161-.322-2.161-1.632 0-1.286.994-1.657 2.087-1.88z" fill="#0066B3" fill-rule="evenodd"/></svg>