<svg width="32" height="32" viewBox="0 0 32 32" xmlns="http://www.w3.org/2000/svg"><path d="M32 16c0 8.836-7.163 16-16 16S0 24.836 0 16C0 7.163 7.163 0 16 0s16 7.163 16 16zM21.598 4.492c-1.336 0-2.61.579-3.538 1.522-1.332 1.378-1.943 3.412-2.353 4.816l-1.359-.018c-.093 0-.171.081-.192.149l-.207.711c-.022.073.024.167.123.167l1.36-.019-2.2 8.966c-.464 1.895-1.214 3.824-1.747 4.508-.477.61-.797.8-1.12.8-.454 0-.689-.332-.817-.878-.087-.396-.34-.937-.9-.937-.583 0-1.382.673-1.382 1.483 0 1.097 1.802 1.343 2.405 1.343 1.187 0 2.722-.768 3.757-1.973 1.315-1.514 2.046-3.41 2.73-6.082l1.67-7.24 1.749.03c.142 0 .204-.102.23-.176l.228-.664c.025-.075-.015-.17-.125-.17h-1.806c.431-1.536 1.08-3.806 2.307-5.056.109-.11.415-.379.695-.38.492-.006.629.28.834.74.2.454.166 1.233.843 1.233.782 0 1.37-.888 1.37-1.503 0-.834-1.42-1.372-2.555-1.372zm-1.722 13.514c-.746.018-1.288.649-1.321 1.424-.032.758.429 1.19 1.083 1.19 1.117 0 1.321-1.028 1.336-1.389.038-.883-.568-1.225-1.098-1.225zm3.892 0c-.745.018-1.288.649-1.32 1.424-.033.758.428 1.19 1.082 1.19 1.117 0 1.322-1.028 1.336-1.389.039-.883-.568-1.225-1.098-1.225zm3.893 0c-.747.018-1.288.649-1.32 1.424-.034.758.428 1.19 1.082 1.19 1.117 0 1.321-1.028 1.336-1.389.038-.883-.568-1.225-1.098-1.225zM11.995 5.823c-.793.02-1.38.691-1.431 1.518-.048.807.433 1.269 1.133 1.269 1.189 0 1.425-1.096 1.449-1.481.056-.94-.583-1.306-1.15-1.306zm-.593 11.628a.165.165 0 0 0-.24.011s-1.215 1.374-1.629 1.374c-.187 0-.181-.232-.181-.269 0-.203.122-.573.186-.749l.519-1.38 1.25-3.07c.257-.613.566-1.408.566-1.933 0-.681-.507-.846-.872-.846-1.682 0-3.49 1.999-4.178 2.795a.061.061 0 0 0-.006.007c-.051.056-.085.159.02.258l.317.307a.165.165 0 0 0 .232-.013s.827-.917 1.13-1.142c.08-.063.21-.148.285-.148.107 0 .16.162.16.252 0 .284-.282.964-.412 1.314l-1.295 3.334c-.453 1.119-.665 1.711-.665 2.216 0 .57.313 1.02 1.09 1.02 1.799.001 4.07-2.757 4.07-2.757.087-.102.043-.202-.012-.254l-.335-.327z" fill="#00A7E4" fill-rule="evenodd"/></svg>