<svg width="32" height="32" viewBox="0 0 32 32" xmlns="http://www.w3.org/2000/svg"><path d="M2.043 21.268a6.937 6.937 0 0 1 0-9.833l9.397-9.4A6.942 6.942 0 0 1 19.376.694l-.04.04-9.239 9.201-.039.04a2.312 2.312 0 0 0 0 3.277 2.311 2.311 0 0 0 3.277 0l1.619-1.658c.908-.909 1.855-.948 2.645-.119l3.514 3.515c.947.948 1.066 1.738 0 2.804l-3.277 3.317c-.908.909-1.777 1.027-2.803 0l-6.436-6.397a2.311 2.311 0 0 0-3.277 0 2.312 2.312 0 0 0 0 3.277l8.173 8.136a4.074 4.074 0 0 0 5.804 0l6.909-6.911c1.619-1.58 1.619-4.186 0-5.806l-5.29-5.252c-.83-.83-.75-1.738.078-2.606l1.698-1.699c.08-.079.158-.157.198-.236l6.593 6.595c3.356 3.356 3.356 8.846 0 12.202l-7.028 7.07c-3.356 3.356-8.844 3.356-12.2 0l-8.212-8.215z" fill="#00B1DF" fill-rule="evenodd"/></svg>