<svg width="32" height="32" viewBox="0 0 32 32" xmlns="http://www.w3.org/2000/svg"><path d="M20.096 10.62l6.55-6.553c.508.455.986.942 1.433 1.457l-1.443 1.443-10.635 10.64-6.138-6.141v-.846h2.043L16 14.716l4.092-4.094v-.002h.003zM9.863 21.902v-9.05l2.043 2.044v7.006H9.863zm12.274 0h-2.044v-7.003l2.044-2.044v9.047zm6.612-15.548A15.907 15.907 0 0 1 32 16c0 8.822-7.175 16-15.995 16S.011 24.822.011 16H0C0 7.178 7.175 0 15.994 0h.011c3.703 0 7.113 1.27 9.826 3.392L24.38 4.844a13.868 13.868 0 0 0-8.363-2.806h-.022c-7.689 0-13.945 6.252-13.956 13.94h.01V16c0 7.699 6.261 13.962 13.957 13.962 7.696 0 13.958-6.263 13.958-13.962v-.022a13.878 13.878 0 0 0-2.668-8.17l.84-.84.614-.614z" fill="#231F20" fill-rule="evenodd"/></svg>