<svg width="32" height="32" viewBox="0 0 32 32" xmlns="http://www.w3.org/2000/svg"><path d="M0 0h32v32H0V0zm25.898 15.07a1.98 1.98 0 0 0-1.82 1.825 1.961 1.961 0 0 0 1.96 2.087c.407 0 .954-.21 1.202-.631v.579H28v-1.86c.034-1.228-.955-2.088-2.102-2zm1.289 2c-.036.65-.6 1.14-1.272 1.053a1.158 1.158 0 0 1-.989-.983 1.138 1.138 0 0 1 1.13-1.263c.601 0 1.095.474 1.13 1.07v.123zm-5.457-2c-1.042.035-1.925.825-1.925 1.983 0 1.052.865 1.947 1.978 1.947.777 0 1.536-.456 1.837-1.21l-.76-.229a1.198 1.198 0 0 1-.847.65c-.53.105-1.025-.229-1.219-.58l2.95-.806c-.09-.772-.76-1.79-2.014-1.755zm-1.095 1.86c0-.404.247-.877.777-1.07.6-.228 1.13.07 1.36.49l-2.137.58zm-5.386-1.07v-.807c-.742 0-.989.368-1.113.561v-.439h-.847v3.737h.865V17.07c0-.842.495-1.175 1.095-1.21zm-7.788 1.56l-2.578-3.017H4v4.508h.918v-3.017l2.614 3.035h.795v-4.526H7.46v3.017zM19.293 14h-.812v1.474c-.195-.246-.795-.456-1.307-.404a1.98 1.98 0 0 0-1.819 1.825 1.961 1.961 0 0 0 1.96 2.087c.424 0 1.007-.193 1.201-.56v.49h.76v-1.93L19.292 14zm-.848 3.07c-.035.65-.6 1.14-1.271 1.053a1.158 1.158 0 0 1-.989-.983 1.138 1.138 0 0 1 1.13-1.263c.6 0 1.095.474 1.13 1.07v.123zm-7.628-2.017a1.968 1.968 0 0 0-1.978 1.965c0 1.087.883 1.964 1.978 1.964a1.968 1.968 0 0 0 1.977-1.964 1.991 1.991 0 0 0-1.977-1.965zm0 3.087c-.619 0-1.13-.508-1.13-1.122 0-.614.511-1.123 1.13-1.123.618 0 1.13.509 1.13 1.123 0 .631-.512 1.122-1.13 1.122z" fill="#0000A0"/></svg>