<svg width="32" height="32" xmlns="http://www.w3.org/2000/svg"><path d="M0 0h32v32H0V0zm12.668 14.403c.644 0 1.038.403 1.038 1.124v3.076h.717v-3.107c0-1.028-.592-1.697-1.672-1.697-.842 0-1.33.414-1.6.976-.219-.55-.79-.976-1.549-.976-.602 0-1.1.223-1.455.796v-.668h-.706v4.677h.717v-2.949c0-.69.509-1.251 1.362-1.251.654 0 1.05.403 1.05 1.124v3.076h.713v-2.896c0-.816.56-1.305 1.381-1.305h.004zm14.296-1.506h.696a1.988 1.988 0 0 0-.031-.413c-.229-1.273-1.247-1.984-2.37-1.984-1.308 0-2.358 1.018-2.358 2.397 0 1.495.883 2.036.883 3.436 0 1.018-.623 1.792-1.6 1.792-1.008 0-1.652-.849-1.652-1.856 0-1.007.623-1.676 1.32-1.792a1.84 1.84 0 0 1 .238-.021v-.615c-.073 0-.187.01-.28.021-.943.117-1.995.956-1.995 2.408 0 1.358.977 2.46 2.36 2.46 1.35 0 2.347-1.081 2.347-2.407 0-1.538-.883-2.1-.883-3.426 0-1.113.707-1.792 1.631-1.792.81 0 1.465.457 1.663 1.474.01.096.031.223.031.318zm.696.902c-.717 0-1.288.371-1.652 1.007v-.88h-.717V21.5h.72v-5.409c0-1.06.716-1.686 1.589-1.686 1.007 0 1.673.795 1.673 1.792 0 1.093-.613 1.93-1.673 1.93a1.883 1.883 0 0 1-.77-.148v.626c.25.08.509.123.77.127 1.496 0 2.4-1.114 2.4-2.535a2.398 2.398 0 0 0-.677-1.698 2.3 2.3 0 0 0-1.66-.699l-.003-.001zm-10.494 0c-.925 0-1.63.435-1.787 1.177h.717c.146-.424.551-.573 1.07-.573.613 0 1.122.265 1.122.976v.127c0 .255-.125.414-.446.414H16.77c-.935 0-1.58.52-1.58 1.379 0 .837.696 1.431 1.652 1.431.593 0 1.144-.233 1.455-.774v.647h.707V15.39c0-.965-.707-1.591-1.839-1.591zm1.122 3.107c0 .848-.644 1.241-1.33 1.241-.77 0-1.04-.445-1.04-.848 0-.488.281-.828.957-.828h.831c.24 0 .468-.042.581-.18l.001.615zM4.348 13.8C3.038 13.799 2 14.827 2 16.27s1.036 2.46 2.348 2.46c1.311 0 2.359-1.018 2.359-2.46s-1.042-2.471-2.36-2.471zm0 4.327c-.977 0-1.621-.796-1.621-1.856s.641-1.867 1.62-1.867c.98 0 1.63.806 1.63 1.867s-.645 1.856-1.63 1.856z" fill="#1DCA7A" fill-rule="evenodd"/></svg>