<svg width="32" height="32" xmlns="http://www.w3.org/2000/svg"><path d="M19.222 31.786c-1.295.278-5.084.287-6.368.016-6.59-1.39-11.676-6.7-12.728-13.285-.255-1.596-.106-4.94.287-6.446C1.994 6.006 6.99 1.37 13.205.201c1.875-.352 4.885-.23 6.786.275a16.242 16.242 0 0 1 7.053 3.947c1.458 1.389 2.393 2.659 3.27 4.44 2.37 4.813 2.235 10.38-.363 15.035-2.22 3.977-6.226 6.922-10.73 7.888zm-4.998-21.92c-6.27-3.203-11.006 2.16-10.738 6.192.027 5.087 5.504 8.858 10.738 6.102v6.389l3.358-.013.053-6.401c6.6 3.112 10.968-2.138 10.89-6.076-.082-5.08-5.167-9.032-10.89-6.194V3.451h-3.314l-.097 6.414zm-3.548 2.412c5.37.601 4.383 7.442-.02 7.546-5.187-.128-5.174-7.546.02-7.546zm11.008-.107c4.996.563 4.417 7.515-.237 7.653-5.712-.748-4.547-7.79.237-7.653z" fill="#FF6A10" fill-rule="evenodd" opacity=".99"/></svg>