<?xml version="1.0" encoding="UTF-8"?>
<svg width="32px" height="32px" viewBox="0 0 32 32" version="1.1" xmlns="http://www.w3.org/2000/svg" xmlns:xlink="http://www.w3.org/1999/xlink">
    <!-- Generator: Sketch 52.3 (67297) - http://www.bohemiancoding.com/sketch -->
    <title>Square/OP</title>
    <desc>Created with Sketch.</desc>
    <g id="Square/OP" stroke="none" stroke-width="1" fill="none" fill-rule="evenodd" opacity="0.98999999">
        <path d="M19.2217073,31.7858466 C17.92709,32.0636252 14.138322,32.0733719 12.8536807,31.8022293 C6.26364208,30.4113039 1.17796612,25.1027773 0.1263648,18.5172067 C-0.128541864,16.9208827 0.0199568013,13.5770281 0.412619464,12.0713761 C1.99437412,6.00618416 6.99125007,1.3697202 13.2053073,0.201390875 C15.0798887,-0.151054455 18.089578,-0.0293024559 19.9907286,0.475889539 C22.6469233,1.1817202 25.0612326,2.53260952 27.0441379,4.42251484 C28.5016752,5.81169616 29.4370072,7.08190681 30.3141179,8.86326813 C32.6836325,13.6756214 32.5489912,19.2433987 29.9505432,23.897596 C27.7301339,27.8746733 23.7246219,30.8196786 19.2217073,31.7858466 Z M14.224442,9.86510012 C7.95389006,6.66273215 3.21776077,12.0257321 3.48562877,16.0575707 C3.51284344,21.1446467 8.98977939,24.9162146 14.224442,22.1604693 L14.224442,28.5486999 L17.58219,28.5363933 L17.6353726,22.1349 C24.2351992,25.247324 28.6025672,19.996944 28.5241552,16.0590947 C28.4431059,10.9798454 23.3580939,7.02661881 17.6353726,9.86508812 L17.6353726,3.45129885 L14.32117,3.45129885 L14.224442,9.86510012 Z M10.676218,12.2784148 C16.046394,12.8794748 15.058674,19.7199067 10.6564687,19.8238027 C5.46910475,19.6960894 5.48236075,12.2776908 10.676218,12.2784148 Z M21.6843846,12.1713854 C26.6800219,12.7335014 26.1011872,19.6856774 21.4473033,19.8241134 C15.73545,19.075672 16.8998073,12.0346614 21.6843846,12.1713854 Z" id="OP" fill="#FF6A10"></path>
    </g>
</svg>