<svg width="32" height="32" viewBox="0 0 32 32" xmlns="http://www.w3.org/2000/svg"><g fill="none" fill-rule="evenodd"><path d="M2.07 20.104c.07-.07.21-.139.21-.139-.07-.417.14-.904-.14-1.322-.14-.208 0-.556 0-.904.21 0 .35-.07.56-.07v-1.947c.14-.07.28-.07.35-.07v-1.46c.91-.21.77-1.114 1.12-1.74.35.487.63 1.044 1.33 1.044.49-.348.49-.348.91-1.461l.42.208c.49-.556.49-1.252.49-1.947h.63c.42-.557.84-1.044 1.19-1.6h.77c.07.07.14.278.14.347.35.07.49.07.7.07.07.14.07.278.14.348h.35c.28-.278.49-.557.84-.974.14.278.14.417.21.556.49-.417.84-.834.7-1.6h.7l.35-.347v-.487c.14 0 .28-.07.56-.07.14-.139.28-.417.42-.626.49.417.84.835.84 1.46.14 0 .35.07.49.07.14.14.21.279.35.487.21-.417.42-.695.63-1.113.07.07.14.14.21.14.63-.14.42-.905.84-1.183l.21.209c.28-.21.63-.348.98-.626.14.139.28.347.56.626.14.07.35.139.7.208.21-.278.35-.556.56-.834h.7c.35-.418.77-.905 1.19-1.461.14.139.21.347.28.417h.56c.14-.14.21-.348.35-.556.91.139.7-.905 1.19-1.253l.28.279c.42-.487.98-.766 1.12-1.461l.42.417c.28-.417.49-.835.77-1.322.21-.07.56-.139.91-.278.14 0 .42-.07.42.209a.953.953 0 0 1-.21.278c.07.07.14.14.21.278-.21.348-.42.696-.7 1.113.14.07.28.14.49.21-.07.416.14.834-.14 1.251.07.14.14.348.21.557l-1.05 1.043c.35.07.49.14.77.209.07.626-.42.974-.84 1.46.21.14.42.28.63.418-.07.418-.21.835-.28 1.461l-.35.348c.07.209.07.835 0 1.46.35 0 .63 0 .91.07.42.557-.63 1.113.21 1.6-.28.279-.56.418-.77.626.21.07.35.14.56.279-.28.417-.56.834-.84 1.182.07 0 .21.07.35.14v.556c.35 0 .7 0 .98.07.07.417.21.834.28 1.252-.28.278-.56.487-.91.765l.7.696c-.35.347-.77.695-1.19 1.043 0-.07-.28.904-.28.974.21.07.35.07.63.14v.486c.21.07.42.07.56.07.14.208 0 .417-.56 1.182.07.07.14.209.21.348-.28.209-.56.417-.84.696-.21.208-.42.487-.7.834-.28-.07-.56-.139-.91-.208-.21.07-.56.139-.98.208.07-.556-.21-.834-.63-1.113-.42.21-.91.418-1.47.696a3.826 3.826 0 0 0-.49-.626l-1.05.417c-.14-.07-.35-.139-.56-.278v-1.46c-.77-.349-1.4.138-2.03.347-.21-.209-.35-.348-.56-.487-.42.278-.77.557-1.26.904-.21-.07-.56-.139-.98-.208-.56.348-.98.765-1.26 1.391h-.91c-.14.348-.35.765-.56 1.183-.07.07-.28.139-.49.278v.974c-.49 0-.91.07-.84.696-.63.904-1.05 1.947-2.1 2.573-.7.348-1.19.974-1.89 1.392-.98.626-2.03 1.113-3.15 1.391s-2.24.487-3.29.417l1.61-1.6c.63-.07 1.54-.07 2.31-.278.7-.139 1.4-.417 1.96-.835.28-.208.49-.626.49-.974-1.68-1.6-3.29-3.2-4.9-4.73-.63-.626-1.05-1.46-1.54-2.156-.07-.07 0-.21 0-.279-.07-.487-.07-.765-.07-.974z" fill="#009B41"/><path d="M11.66 29.148c.7-.765 1.47-1.322 1.75-2.365.7-.626 1.26-1.392 1.89-2.226.28-.418.84-.696 1.26-1.044.07-.209.07-.417.14-.626.42.07.84.209 1.26.14.28 0 .56-.349.84-.557h1.47c.14.278.35.626.49.834.63.557 1.33.557 2.1.557.14 0 .28.07.49.07.14 0 .28.139.49.069.42-.07.77-.348 1.26 0 .28.209.84.07 1.4.07-.14.208-.14.417-.28.487-.77.556-1.54 1.113-2.38 1.53-.49.209-.91.487-1.47.626-.49.14-.91.487-1.4.557-.77.139-1.4.487-2.17.626-.7.139-1.4.417-2.1.556-1.05.14-2.03.557-3.08.487-.28 0-.63.14-.91.209h-1.05z" fill="#8DBB3A"/></g></svg>