<svg width="32" height="32" xmlns="http://www.w3.org/2000/svg"><path d="M0 0h32v32H0V0zm27.839 13.664c0 .248.21.449.467.449.258 0 .467-.2.467-.45a.459.459 0 0 0-.467-.45.459.459 0 0 0-.467.45zm-11.649.888v.083c.341.182.294.388.294.723v1.726c0 .333.047.535-.294.717v.088h1.294V17.8c-.34-.181-.294-.375-.294-.71v-1.16c0-.525.321-.967.895-.967.626 0 .865.364.865 1.02v1.108c0 .326.046.528-.295.71v.088h1.294V17.8c-.34-.182-.294-.376-.294-.71v-1.358c0-1.099-.822-1.274-1.372-1.274-.452 0-.882.215-1.093.557v-.557h-.09c-.162.086-.282.093-.452.093h-.458zm-9.998-1.36a4.128 4.128 0 0 0-1.146-.159c-.984 0-1.932.346-1.932 1.253 0 1.544 2.604 1.37 2.604 2.447 0 .423-.557.668-1.077.668-.6 0-1.255-.232-1.641-.581l.199.964c.438.151.908.216 1.377.216 1.283 0 2.062-.574 2.062-1.401 0-1.332-2.59-1.406-2.59-2.393 0-.421.51-.608.948-.608.431 0 .924.165 1.196.405v-.812zm1.003 2.134l-.285.303c-.065.069-.063.124.016.124h1.603c.08 0 .185-.055.25-.124l.286-.303c.064-.07.068-.124-.017-.124H7.446a.385.385 0 0 0-.25.124zm13.113-2.21v.084c.334.181.288.387.288.721v3.163c0 .333.046.535-.288.717v.088h1.295V17.8c-.349-.182-.302-.384-.302-.717V13h-.09c-.101.109-.22.116-.39.116h-.513zm2.288 4.367c.147.196.34.406.79.406h.605c-.35-.203-.582-.515-.822-.813l-.946-1.124 1.295-1.4H22.34v.084c.067.015.147.046.147.149 0 .181-.28.457-.395.58l-.643.66 1.147 1.458zm5.11-2.931v.084c.34.181.294.38.294.714v1.734c0 .333.047.535-.294.716v.089H29V17.8c-.34-.182-.295-.384-.295-.717v-2.647h-.09c-.13.108-.258.115-.437.115h-.472zM9.36 13.116v.084c.387.145.34.613.34.939v2.734c0 .327.047.796-.348.927v.089h1.543V17.8c-.412-.217-.404-.44-.404-.847v-3.294l.545.001c.646.003 1.106.262 1.106.9 0 .637-.541 1.014-1.394 1.014v.081c.136.057.383.085.577.09.893.015 1.674-.526 1.674-1.36 0-.812-.748-1.27-1.756-1.27H9.361zm-.255 2.439l-.241.256a.385.385 0 0 1-.25.125H7.153l-.045.046c-.064.07-.064.126.017.126h1.602a.385.385 0 0 0 .25-.126l.286-.303c.065-.068.067-.124-.016-.124h-.14zm14.884-2.44v.085c.333.181.287.387.287.721v3.163c0 .333.046.535-.287.717v.088h1.295V17.8c-.35-.182-.303-.384-.303-.717V13h-.09c-.101.109-.22.116-.39.116h-.512zm2.28 4.368c.148.196.341.406.79.406h.605c-.348-.203-.58-.515-.82-.813l-.946-1.124 1.294-1.4h-1.178v.084c.067.015.147.046.147.149 0 .181-.28.457-.396.58l-.642.66 1.147 1.458zm-10.078-.018c-.664 0-.74-.151-.74-.805l.013-1.042c0-.962-.558-1.16-1.392-1.16-.138 0-.714-.007-.781.228-.094.332-.245.544-.245.544a1.979 1.979 0 0 1 1.003-.262c.287 0 .708.085.708.392 0 .749-2.292.379-2.292 1.626 0 .642.539.997 1.302.997.132 0 .155.003.365 0l.439-.516c-.223.002-.275 0-.461 0-.532 0-.86-.119-.86-.52 0-.335.434-.494.799-.577.287-.065.534-.115.71-.246v1.105c0 .58.468.74 1.003.74l.43-.504z" fill="#5B8F22"/></svg>