<svg width="32" height="32" xmlns="http://www.w3.org/2000/svg"><path d="M18.313 17.742h4.2c-2.094 1.589-3.359 4.018-3.359 6.619 0 2.615 1.277 5.053 3.389 6.639H9.463c2.11-1.585 3.387-4.023 3.387-6.639 0-2.598-1.267-5.029-3.362-6.62h4.198c1.41 1.91 2.244 4.195 2.244 6.62h.125c0-2.417.85-4.703 2.258-6.62zM7.82 9.492C7.882 5.432 11.627 2 15.998 2c4.379 0 8.126 3.431 8.187 7.492l.002.133.135.002C28.484 9.686 32 13.34 32 17.605c0 2.171-.867 4.211-2.443 5.744a8.392 8.392 0 0 1-5.902 2.385c-.822 0-1.656-.14-2.481-.393l-.09-.98c0-.954.206-1.838.607-2.703.603.29 1.244.448 1.964.448 1.234 0 2.391-.47 3.262-1.322a4.417 4.417 0 0 0 1.355-3.179 4.405 4.405 0 0 0-1.352-3.18 4.622 4.622 0 0 0-3.26-1.316c-1.162 0-1.867.206-2.605.458l-1.512.585.599-1.483c.258-.723.47-1.414.47-2.533a4.43 4.43 0 0 0-1.352-3.185 4.635 4.635 0 0 0-3.262-1.316 4.62 4.62 0 0 0-3.253 1.316 4.42 4.42 0 0 0-1.354 3.185c0 1.132.22 1.844.47 2.534l.6 1.482-1.517-.585c-.706-.242-1.438-.458-2.598-.458a4.644 4.644 0 0 0-3.265 1.315 4.399 4.399 0 0 0-1.349 3.181c0 1.196.48 2.324 1.35 3.18a4.647 4.647 0 0 0 3.265 1.32 4.47 4.47 0 0 0 1.967-.447c.4.872.605 1.756.605 2.703 0 0-.073.825-.088.98a8.55 8.55 0 0 1-2.484.393 8.41 8.41 0 0 1-5.903-2.385C.867 21.81 0 19.77 0 17.605c0-4.265 3.517-7.919 7.68-7.978l.138-.002.002-.133z" fill="#00B5D1" fill-rule="evenodd"/></svg>