<?xml version="1.0" encoding="UTF-8"?>
<svg width="32px" height="32px" viewBox="0 0 32 32" version="1.1" xmlns="http://www.w3.org/2000/svg" xmlns:xlink="http://www.w3.org/1999/xlink">
    <!-- Generator: Sketch 52.3 (67297) - http://www.bohemiancoding.com/sketch -->
    <title>Square/Ålandsbanken</title>
    <desc>Created with Sketch.</desc>
    <g id="Square/Ålandsbanken" stroke="none" stroke-width="1" fill="none" fill-rule="evenodd">
        <path d="M32,29 L32,28.9423503 L17.9359431,28.9423503 C20.0996441,24.8492239 18.1637011,28.5964523 20.2135231,24.6762749 L8.59786477,24.6762749 C6.60498221,28.4235033 8.37010676,25.0798226 6.3202847,28.9423503 C8.17124146e-14,28.9423503 6.2633452,29 8.17124146e-14,28.9423503 C8.19928826,13.4922395 8.17124146e-14,28.8847007 8.25622776,13.4922395 C5.58007117,9.16851441 8.25622776,13.4922395 5.58007117,9.16851441 C10.3060498,9.16851441 15.088968,9.16851441 19.8718861,9.16851441 C23.9145907,15.7405765 27.9572954,22.3702882 32,29 Z M16.797153,19.8913525 C16.8540925,19.8337029 16.683274,19.6031042 13.8932384,14.9334812 C11.3309609,19.5454545 13.6654804,15.2793792 11.1601423,19.8913525 C16.341637,19.8913525 11.5587189,19.8913525 16.797153,19.8913525 Z M9.22419929,7.43902439 C6.66192171,3.172949 9.22419929,7.43902439 6.5480427,3 C11.9572954,3 12.9822064,3 16.0569395,3 C18.7900356,7.38137472 16.1708185,3.172949 18.8469751,7.43902439 L9.22419929,7.43902439 Z" id="Ålandsbanken" fill="#00633A" fill-rule="nonzero"></path>
    </g>
</svg>