<svg width="159" height="24" xmlns="http://www.w3.org/2000/svg"><path d="M159 0v24h-56.925V0H159zm-.619.605H102.68V23.38h55.701V.605zm-41.697 9.3c0-1.44-.95-1.598-2.691-1.598h-4.548v3.628h4.332c1.957 0 2.907-.345 2.907-2.03zm2.26 5.327c0 2.088-1.396 3.225-3.9 3.225h-7.442V7.026h7.154c2.778 0 3.756 1.022 3.756 3.038 0 1.223-.806 2-2.303 2.39v.028c1.93.303 2.735 1.34 2.735 2.75zm-1.842.13c0-1.454-.59-2.131-2.706-2.131h-4.951v3.916h4.72c1.785 0 2.937-.158 2.937-1.785zm11.183.273v-.964h-2.82c-1.31 0-1.728.028-2.045.187-.345.158-.518.547-.518 1.238 0 .547.101.806.36.965.374.244 1.008.345 2.073.345s1.698-.057 2.144-.23c.763-.274.806-.878.806-1.54zm1.742 2.822h-1.454l-.158-.662c-.62.533-1.627.777-3.195.777-2.994 0-4.16-.633-4.16-2.534 0-.647.144-1.151.432-1.54.662-.907 1.87-.936 2.922-.936h3.871v-.777c0-.331.029-.763-.33-.965-.39-.216-1.31-.26-2.635-.26-1.151 0-1.54.087-1.77.303-.187.202-.216.691-.26.893h-1.683c-.015-.36-.043-.634-.043-.835 0-.317.057-.576.316-.792.763-.648 2.836-.734 3.599-.734 1.007 0 3.05.014 3.886.662.36.274.503.59.59 1.037.072.431.072 1.022.072 1.871v4.492zm9.989 0V14.08c0-1.511-.072-1.828-.432-2.102-.346-.259-1.037-.417-2.087-.417-.921 0-1.871.115-2.764.36v6.536h-1.712v-8.005h1.54l.13.576c.33-.187.59-.33.963-.432.562-.172 1.281-.259 2.246-.259 1.094 0 1.943.173 2.59.46.634.274.98.793 1.123 1.397.087.418.115.778.115 1.685v4.578h-1.712zm11.169 0l-4.131-3.786h-.62v3.786h-1.712V7.026h1.713v6.507h.619l3.425-3.08h2l-3.986 3.527 4.966 4.477h-2.274zM0 24V0h99.614v24H0zm34.4-10.38c0 2.36-1.267 3.527-4.103 3.527h-4.461v-8.84h4.317c3.426 0 4.246 1.67 4.246 3.499v1.814zm1.827-.072v-1.512c0-4.823-3.8-5.01-6.347-5.01h-5.887v11.431h6.39c5.024 0 5.844-2.72 5.844-4.91zm9.96 2.087c0 .663-.057 1.267-.82 1.54-.446.174-1.08.231-2.145.231s-1.698-.1-2.072-.345c-.26-.159-.36-.418-.36-.965 0-.691.173-1.08.504-1.238.33-.159.748-.187 2.043-.187h2.85v.964zm1.727 2.822v-4.492c0-.85 0-1.44-.072-1.871-.086-.447-.23-.763-.59-1.037-.834-.648-2.878-.662-3.886-.662-.763 0-2.835.086-3.598.734-.26.216-.317.475-.317.792 0 .201.03.475.044.835h1.684c.028-.202.071-.691.259-.893.23-.216.618-.302 1.77-.302 1.324 0 2.245.043 2.634.259.36.202.345.634.345.965v.777h-3.886c-1.05 0-2.26.029-2.922.936-.302.389-.431.893-.431 1.54 0 1.9 1.165 2.534 4.16 2.534 1.554 0 2.576-.244 3.194-.777l.159.662h1.453zm10.421 0h1.713V13.88c0-.907-.043-1.267-.13-1.685-.13-.604-.475-1.123-1.108-1.396-.648-.288-1.497-.46-2.59-.46-.965 0-1.685.086-2.26.258-.36.101-.62.245-.965.432l-.115-.576h-1.54v8.005h1.713v-6.536c.892-.245 1.842-.36 2.763-.36 1.05 0 1.742.158 2.087.417.36.274.432.59.432 2.102v4.377zm12.71-.49c.704-.36 1.007-.95 1.007-1.885 0-1.167-.346-1.742-1.224-2.045-.49-.173-1.05-.245-1.914-.259-.806-.014-3.167.014-3.613-.26-.187-.129-.33-.417-.33-.805 0-.576.2-.864.647-1.023.475-.172 1.065-.215 2.101-.215 1.037 0 1.77.086 2.015.273.144.1.173.187.26.62l.071.36h1.67c.029-.274.029-.447.029-.62 0-.633-.13-.993-.533-1.224-.36-.201-.863-.317-1.525-.403a21.245 21.245 0 0 0-2.303-.13c-3.052 0-4.16.634-4.16 2.448 0 2.001 1.814 2.073 3.526 2.16.389.014.72.043 1.008.043.604.014.979.014 1.094.029.216.014.417.014.619.057.662.101.791.36.791.994 0 .547-.172.835-.532.993-.504.23-1.267.346-2.36.346-.879 0-1.57-.058-2.001-.188-.447-.144-.418-.345-.475-.72-.015-.086-.015-.215-.072-.619h-1.656c-.043.432-.071.75-.043 1.109.043.691.446 1.065 1.252 1.253.749.201 1.713.287 2.88.287 1.683 0 2.978-.172 3.77-.575zm10.564.49h2.288l-4.966-4.477 3.987-3.528h-2.015l-3.425 3.081h-.605V7.026h-1.727v11.431h1.727v-3.786h.605l4.13 3.786zm10.809-4.78h-5.513c.058-1.008.274-1.454.662-1.742.403-.288 1.137-.432 2.217-.432 1.497 0 2.202.331 2.461 1.022.1.288.173.562.173 1.152zM94 15.952h-1.698c-.058.245-.087.864-.317 1.094-.26.26-.777.375-2.159.375-1.367 0-2.116-.188-2.504-.576-.288-.288-.461-.893-.461-1.829V14.8h7.182c.015-.388.043-.49.043-.806 0-1.325-.187-2.059-.762-2.62-.648-.677-1.9-1.008-3.628-1.008-2.202 0-3.555.504-4.116 1.612-.331.634-.518 1.526-.518 2.635 0 1.742.46 2.836 1.482 3.383.634.346 1.728.547 3.124.562 1.166 0 2.101-.058 3.123-.36.993-.317 1.238-.878 1.238-1.353 0-.116 0-.504-.029-.893z" fill="#03426A"/></svg>