<svg width="158" height="16" xmlns="http://www.w3.org/2000/svg"><path d="M0 0h3.463v6.022h6.374V0h3.462v15.692H9.837V8.923H3.463v6.77H0V0zm15.66 7.824c.176-2.923 2.8-3.802 5.359-3.802 2.271 0 5.006.505 5.006 3.23v5.913c0 1.032.11 2.066.397 2.527h-3.176a4.628 4.628 0 0 1-.22-1.099C22.033 15.626 20.577 16 19.188 16c-2.161 0-3.882-1.077-3.882-3.407 0-2.571 1.941-3.187 3.882-3.45 1.919-.286 3.705-.22 3.705-1.495 0-1.34-.926-1.538-2.029-1.538-1.19 0-1.963.483-2.073 1.714h-3.132zm7.233 2.308c-.53.461-1.632.483-2.603.66-.97.197-1.852.527-1.852 1.67 0 1.164.904 1.45 1.919 1.45 2.448 0 2.536-1.934 2.536-2.615v-1.165zM28.23 4.33h2.978v1.582h.066c.794-1.275 2.161-1.89 3.484-1.89 3.33 0 4.169 1.868 4.169 4.681v6.99h-3.132v-6.42c0-1.868-.551-2.79-2.007-2.79-1.698 0-2.426.944-2.426 3.252v5.956H28.23V4.33zm20.996 9.912h-.044C48.454 15.472 47.175 16 45.72 16c-3.441 0-5.117-2.945-5.117-6.088 0-3.055 1.698-5.89 5.05-5.89 1.346 0 2.67.571 3.375 1.692h.044V0h3.132v15.692h-2.978v-1.45zm-2.734-7.868c-2.052 0-2.757 1.758-2.757 3.626 0 1.78.816 3.648 2.757 3.648 2.073 0 2.69-1.802 2.69-3.67 0-1.846-.661-3.604-2.69-3.604zm10.432 4.395c.088 1.978 1.058 2.88 2.8 2.88 1.258 0 2.272-.77 2.47-1.473h2.758C64.069 14.857 62.195 16 59.614 16c-3.595 0-5.822-2.462-5.822-5.978 0-3.406 2.36-6 5.822-6 3.882 0 5.757 3.253 5.536 6.747h-8.226zm5.094-1.978c-.287-1.582-.97-2.417-2.492-2.417-1.985 0-2.559 1.538-2.603 2.417h5.095zM66.87 0h3.132v15.692H66.87V0zm7.808 12c.022 1.362 1.168 1.912 2.404 1.912.904 0 2.05-.352 2.05-1.45 0-.946-1.3-1.276-3.55-1.76-1.809-.395-3.617-1.032-3.617-3.032 0-2.901 2.514-3.648 4.962-3.648 2.492 0 4.786.835 5.029 3.626h-2.978c-.088-1.209-1.014-1.538-2.14-1.538-.705 0-1.741.131-1.741 1.055 0 1.12 1.764 1.274 3.55 1.692 1.831.417 3.617 1.077 3.617 3.187 0 2.988-2.602 3.956-5.205 3.956-2.646 0-5.227-.99-5.359-4h2.978zm9.196-12h3.132v5.714h.044c.772-1.165 2.184-1.692 3.595-1.692 2.272 0 4.72 1.824 4.72 5.978 0 4.176-2.448 6-4.72 6-1.676 0-3.065-.506-3.75-1.758h-.043v1.45h-2.977V0zm5.69 6.374c-1.852 0-2.668 1.736-2.668 3.648 0 1.89.816 3.626 2.669 3.626 1.852 0 2.668-1.736 2.668-3.626 0-1.912-.816-3.648-2.668-3.648zm7.433 1.45c.176-2.923 2.8-3.802 5.359-3.802 2.272 0 5.007.505 5.007 3.23v5.913c0 1.032.11 2.066.397 2.527h-3.176a4.628 4.628 0 0 1-.22-1.099c-.993 1.033-2.449 1.407-3.838 1.407-2.162 0-3.882-1.077-3.882-3.407 0-2.571 1.94-3.187 3.882-3.45 1.918-.286 3.705-.22 3.705-1.495 0-1.34-.926-1.538-2.03-1.538-1.19 0-1.962.483-2.072 1.714h-3.132zm7.234 2.308c-.53.461-1.632.483-2.602.66-.971.197-1.853.527-1.853 1.67 0 1.164.905 1.45 1.919 1.45 2.448 0 2.536-1.934 2.536-2.615v-1.165zm5.337-5.802h2.977v1.582h.066c.794-1.275 2.162-1.89 3.485-1.89 3.33 0 4.168 1.868 4.168 4.681v6.99h-3.131v-6.42c0-1.868-.551-2.79-2.007-2.79-1.698 0-2.426.944-2.426 3.252v5.956h-3.132V4.33zM122.713 0h3.132v8.417l3.947-4.088h3.706l-4.301 4.176 4.786 7.187h-3.793l-3.132-5.077-1.213 1.165v3.912h-3.132V0zm14.732 10.77c.089 1.977 1.059 2.878 2.801 2.878 1.257 0 2.272-.77 2.47-1.472h2.757c-.882 2.681-2.757 3.824-5.337 3.824-3.595 0-5.823-2.462-5.823-5.978 0-3.406 2.36-6 5.823-6 3.882 0 5.756 3.253 5.536 6.747h-8.227zm5.095-1.979c-.287-1.582-.97-2.417-2.492-2.417-1.985 0-2.559 1.538-2.603 2.417h5.095zm4.764-4.461h2.977v1.582h.066c.794-1.275 2.161-1.89 3.485-1.89 3.33 0 4.168 1.868 4.168 4.681v6.99h-3.132v-6.42c0-1.868-.551-2.79-2.007-2.79-1.698 0-2.426.944-2.426 3.252v5.956h-3.132V4.33z" fill="#0066B3" fill-rule="evenodd"/></svg>