<svg width="28" height="28" viewBox="0 0 28 28" xmlns="http://www.w3.org/2000/svg"><path d="M28 14c0 7.731-6.268 14-14 14S0 21.731 0 14C0 6.268 6.268 0 14 0s14 6.268 14 14zM18.898 3.93c-1.169 0-2.284.507-3.096 1.332-1.165 1.206-1.7 2.986-2.058 4.214l-1.19-.016c-.081 0-.15.072-.168.13l-.18.623c-.02.064.02.146.107.146l1.19-.016-1.925 7.845c-.406 1.658-1.062 3.346-1.528 3.944-.418.535-.698.7-.981.7-.397 0-.603-.29-.715-.768-.076-.347-.296-.82-.787-.82-.51 0-1.209.589-1.209 1.297 0 .96 1.577 1.176 2.104 1.176 1.039 0 2.382-.672 3.287-1.727 1.151-1.324 1.79-2.983 2.389-5.32l1.461-6.337 1.53.027c.125 0 .18-.089.203-.154l.198-.58c.023-.067-.013-.15-.109-.15h-1.58c.377-1.344.944-3.33 2.019-4.423.095-.097.363-.332.608-.334.43-.004.55.246.73.649.174.397.145 1.079.737 1.079.684 0 1.199-.778 1.199-1.316 0-.73-1.243-1.2-2.236-1.2zM17.39 15.755c-.652.016-1.126.568-1.155 1.246-.029.663.375 1.041.947 1.041.977 0 1.156-.9 1.17-1.215.033-.772-.498-1.072-.962-1.072zm3.406 0c-.652.016-1.127.568-1.155 1.246-.029.663.375 1.041.947 1.041.977 0 1.156-.9 1.169-1.215.034-.772-.497-1.072-.96-1.072zm3.406 0c-.653.016-1.127.568-1.155 1.246-.03.663.375 1.041.947 1.041.977 0 1.156-.9 1.17-1.215.033-.772-.498-1.072-.962-1.072zM10.496 5.095c-.695.018-1.208.605-1.253 1.328-.042.707.38 1.11.992 1.11 1.04 0 1.247-.958 1.267-1.295.05-.823-.51-1.143-1.006-1.143zm-.52 10.174a.145.145 0 0 0-.21.01s-1.062 1.203-1.424 1.203c-.164 0-.159-.203-.159-.236 0-.178.107-.502.163-.655l.454-1.208 1.093-2.686c.226-.536.496-1.232.496-1.691 0-.596-.443-.74-.763-.74-1.472 0-3.053 1.748-3.656 2.445l-.005.006c-.045.049-.074.139.017.226l.278.269a.145.145 0 0 0 .203-.012s.723-.802.989-1c.07-.054.183-.129.25-.129.093 0 .14.142.14.22 0 .25-.247.844-.362 1.151l-1.133 2.917c-.397.979-.582 1.497-.582 1.939 0 .498.274.893.954.893 1.574 0 3.56-2.413 3.56-2.413.078-.09.039-.177-.009-.222l-.293-.287z" fill="#00A7E4" fill-rule="evenodd"/></svg>