<svg width="149" height="44" viewBox="0 0 149 44" xmlns="http://www.w3.org/2000/svg"><path d="M59.597 22.078l-.14 4.979h-1.961l.373-8.977h2.008l2.147 5.704 2.148-5.704h2.007l.374 8.977h-1.961l-.14-4.98-1.564 3.835h-1.797l-1.494-3.834zm7.96 2.454v-1.52c0-1.355.63-2.664 2.964-2.664s2.965 1.309 2.965 2.665v1.52c0 1.355-.63 2.664-2.965 2.664-2.334 0-2.964-1.309-2.964-2.665zm3.968.07v-1.636c0-.631-.327-.982-1.027-.982s-1.027.35-1.027.982v1.636c0 .632.326.982 1.027.982.7-.023 1.027-.374 1.027-.982zm5.672 2.595c-.7 0-1.774-.07-2.66-.21v-9.164l1.937-.28v3.179a4.91 4.91 0 0 1 1.867-.374c1.447 0 2.007.911 2.007 2.36v1.707c0 1.59-.443 2.782-3.15 2.782zm-.723-1.706c.28.023.513.023.793.023.98 0 1.144-.444 1.144-1.075v-1.707c0-.42-.187-.701-.7-.701-.42 0-.864.163-1.237.374v3.086zm5.018-5.821v-2.058h1.938v2.058h-1.938zm0 7.387v-6.57h1.938v6.57h-1.938zm3.502-7.387v-2.058h1.937v2.058h-1.937zm0 7.387v-6.57h1.937v6.57h-1.937zm3.408 0v-9.234l1.937-.28v9.514h-1.937zm3.455-7.387v-2.058h1.937v2.058h-1.937zm0 7.387v-6.57h1.937v6.57h-1.937zm7.212 0h-2.474l-2.054-6.57h1.96l1.331 4.653 1.33-4.652h1.962l-2.055 6.569zm5.906 0l-.14-.42c-.747.42-1.424.56-1.867.56-1.214 0-1.704-.865-1.704-1.987 0-1.309.607-1.847 1.96-1.847h1.424v-.49c0-.679-.116-.912-1.167-.912a9.34 9.34 0 0 0-1.774.187l-.257-1.45c.63-.187 1.611-.327 2.358-.327 2.264 0 2.778.678 2.778 2.501v4.185h-1.61zm-.35-2.361h-.934c-.42 0-.583.117-.583.467 0 .374.14.515.513.515.397 0 .677-.094.98-.234v-.748h.024zm5.159-1.637v3.998h-1.938v-6.57h1.611l.14.632c.397-.28 1.237-.654 1.774-.771l.164 1.823c-.584.257-1.33.585-1.751.888zm6.326 3.998v-4.348c0-.304-.14-.468-.467-.468-.35 0-1.004.234-1.424.468v4.348h-1.937v-6.57h1.447l.21.492c.817-.398 1.867-.631 2.614-.631.584 0 .98.233 1.19.63.748-.373 1.728-.63 2.615-.63 1.12 0 1.518.841 1.518 2.104v4.605h-1.938v-4.348c0-.304-.14-.468-.467-.468-.35 0-1.004.234-1.424.468v4.348h-1.937zm8.777-2.595v.187c0 .748.303.959 1.19.959.607 0 1.424-.117 1.984-.28l.28 1.448c-.583.21-1.54.421-2.474.421-2.124 0-2.941-1.052-2.941-2.665V22.99c0-1.426.63-2.618 2.801-2.618 2.171 0 2.661 1.286 2.661 2.712v1.38h-3.501zm1.68-1.753c0-.468-.14-.842-.817-.842-.676 0-.887.374-.887.842v.28h1.704v-.28zm6.793 4.348v-4.348c0-.304-.14-.468-.467-.468-.35 0-1.003.234-1.424.468v4.348h-1.937v-6.57h1.447l.21.492c.817-.398 1.868-.631 2.615-.631 1.12 0 1.517.841 1.517 2.104v4.605h-1.96zm7.167 0v-4.348c0-.304-.14-.468-.467-.468-.35 0-1.004.234-1.424.468v4.348h-1.938v-6.57h1.448l.21.492c.817-.398 1.867-.631 2.614-.631 1.12 0 1.517.841 1.517 2.104v4.605h-1.96zm4.948-2.595v.187c0 .748.304.959 1.19.959a8 8 0 0 0 1.985-.28l.28 1.448c-.584.21-1.54.421-2.474.421-2.125 0-2.942-1.052-2.942-2.665V22.99c0-1.426.63-2.618 2.825-2.618 2.17 0 2.661 1.286 2.661 2.712v1.38h-3.525zm1.704-1.753c0-.468-.14-.842-.817-.842-.677 0-.887.374-.887.842v.28h1.704v-.28zm-119.534-8.08l7.02-7.05 1.98-1.981a20.47 20.47 0 0 1 1.98 2.004l-16.597 16.61-8.424-8.432v-1.152h2.808l5.616 5.621 5.617-5.62zM13.58 30.131v-12.44l2.808 2.81v9.63H13.58zm16.872 0h-2.808v-9.63l2.808-2.81v12.44zm9.07-21.378A21.814 21.814 0 0 1 43.987 22c0 12.14-9.875 22-21.983 22C9.875 44 .023 34.117.023 22H0C0 9.86 9.875 0 21.982 0h.023c5.087 0 9.76 1.728 13.489 4.653L33.49 6.658c-3.2-2.396-7.181-3.848-11.486-3.848h-.023c-10.565 0-19.15 8.593-19.174 19.167h.023V22c0 10.574 8.609 19.19 19.174 19.19 10.566 0 19.174-8.616 19.174-19.19v-.023a18.96 18.96 0 0 0-3.66-11.219l2.003-2.004z" fill-rule="evenodd"/></svg>