<?xml version="1.0" encoding="UTF-8"?>
<svg width="76px" height="16px" viewBox="0 0 76 16" version="1.1" xmlns="http://www.w3.org/2000/svg" xmlns:xlink="http://www.w3.org/1999/xlink">
    <!-- Generator: Sketch 52.3 (67297) - http://www.bohemiancoding.com/sketch -->
    <title>Cropped/Nordea</title>
    <desc>Created with Sketch.</desc>
    <g id="Page-1" stroke="none" stroke-width="1" fill="none" fill-rule="evenodd">
        <g id="Optical/Nordea" transform="translate(0.000000, -17.000000)" fill="#0000A0" fill-rule="nonzero">
            <path d="M69.3424545,20.4245614 C72.9773413,20.1438596 76.108936,22.8947368 75.9970933,26.8245614 L75.9970933,32.7754386 L73.5924759,32.7754386 L73.5924759,30.922807 C72.8095773,32.2701754 71.0760159,32.9438596 69.7898252,32.9438596 C66.2108598,32.9438596 63.3588718,29.9122807 63.5825571,26.2631579 C63.8062424,23.1754386 66.2667811,20.6491228 69.3424545,20.4245614 Z M73.4247119,26.8245614 L73.4247119,26.4315789 C73.3128693,24.522807 71.7470719,23.0070175 69.8457465,23.0070175 C67.7207358,23.0070175 66.0430958,24.8596491 66.2667811,27.0491228 C66.4904665,28.677193 67.7766572,29.9684211 69.3983759,30.1929825 C71.5233866,30.4736842 73.3128693,28.9017544 73.4247119,26.8245614 Z M56.1450196,20.4245614 C60.1154344,20.3122807 62.2404451,23.5684211 62.5200518,26.0385965 L53.1811889,28.6210526 C53.7963236,29.7438596 55.362121,30.8105263 57.039761,30.4736842 C58.214109,30.2491228 59.2766144,29.4070175 59.723985,28.3964912 L62.1286024,29.1263158 C61.1779397,31.5403509 58.7733224,33 56.3127836,33 C52.7897396,33 50.0495942,30.1368421 50.0495942,26.7684211 C50.0495942,23.0631579 52.8456609,20.5368421 56.1450196,20.4245614 Z M52.6778969,26.3754386 L59.4443784,24.522807 C58.717401,23.1754386 57.039761,22.2210526 55.1384356,22.9508772 C53.4607956,23.5684211 52.6778969,25.0842105 52.6778969,26.3754386 Z M35.62189,22.9508772 C33.7205646,23.0631579 32.1547672,24.1298246 32.1547672,26.8245614 C32.1547672,29.0701754 32.1547672,29.0140351 32.1547672,32.7192982 L29.4146218,32.7192982 L29.4146218,26.4877193 L29.4146218,20.7614035 L32.0988459,20.7614035 L32.0988459,22.1649123 C32.4902952,21.5473684 33.2731939,20.3684211 35.62189,20.3684211 L35.62189,22.9508772 Z M10.9605815,27.9473684 L10.9605815,18.2912281 L13.7007269,18.2912281 L13.7007269,32.7754386 L11.1842669,32.7754386 L2.90790938,23.0631579 L2.90790938,32.7192982 L-1.91846539e-13,32.7192982 L-1.91846539e-13,18.2912281 L2.79606672,18.2912281 L10.9605815,27.9473684 Z M48.4278755,17 L48.3719542,26.5438596 C48.3719542,26.6 48.3719542,26.6 48.3719542,26.6561404 C48.3719542,26.7122807 48.3719542,26.7122807 48.3719542,26.7684211 L48.3719542,32.7192982 L45.9673368,32.7192982 L45.9673368,31.1473684 C45.3522021,32.3263158 43.5067981,32.9438596 42.1646861,32.9438596 C38.5857207,32.9438596 35.7337326,29.9122807 35.957418,26.2631579 C36.1811033,23.1754386 38.641642,20.6491228 41.7173154,20.4245614 C43.3390341,20.2561404 45.2403595,20.9298246 45.8554941,21.7157895 L45.8554941,17 L48.4278755,17 Z M45.7436515,26.8245614 C45.7436515,26.8245614 45.7436515,26.4315789 45.7436515,26.4315789 C45.6318088,24.522807 44.0660114,23.0070175 42.1646861,23.0070175 C40.0396754,23.0070175 38.3620353,24.8596491 38.5857207,27.0491228 C38.809406,28.677193 40.0955967,29.9684211 41.7173154,30.1929825 C43.8423261,30.4736842 45.6318088,28.9017544 45.7436515,26.8245614 Z M21.585635,20.3684211 C24.9968364,20.3684211 27.7929031,23.1754386 27.8488245,26.6561404 C27.8488245,30.1368421 25.0527578,32.9438596 21.585635,32.9438596 C18.1185123,32.9438596 15.3224456,30.1368421 15.3224456,26.6561404 C15.3224456,23.1754386 18.1185123,20.3684211 21.585635,20.3684211 Z M21.585635,30.2491228 C23.5428817,30.2491228 25.1646004,28.677193 25.1646004,26.6561404 C25.1646004,24.6912281 23.5428817,23.0631579 21.585635,23.0631579 C19.6283883,23.0631579 18.0066696,24.6912281 18.0066696,26.6561404 C18.0066696,28.6210526 19.6283883,30.2491228 21.585635,30.2491228 Z" id="Cropped/Nordea"></path>
        </g>
    </g>
</svg>