<svg width="76" height="16" viewBox="0 0 76 16" xmlns="http://www.w3.org/2000/svg"><path d="M69.342 3.425c3.635-.281 6.767 2.47 6.655 6.4v5.95h-2.405v-1.852c-.782 1.347-2.516 2.02-3.802 2.02-3.58 0-6.431-3.03-6.207-6.68.223-3.088 2.684-5.614 5.76-5.838zm4.083 6.4v-.393c-.112-1.91-1.678-3.425-3.58-3.425-2.124 0-3.802 1.853-3.578 4.042a3.685 3.685 0 0 0 3.131 3.144c2.125.28 3.915-1.291 4.027-3.368zm-17.28-6.4c3.97-.113 6.095 3.143 6.375 5.614l-9.339 2.582c.615 1.123 2.181 2.19 3.859 1.853 1.174-.225 2.237-1.067 2.684-2.078l2.405.73C61.178 14.54 58.773 16 56.313 16a6.253 6.253 0 0 1-6.263-6.232c0-3.705 2.796-6.231 6.095-6.343zm-3.467 5.95l6.766-1.852c-.727-1.348-2.404-2.302-4.306-1.572-1.677.617-2.46 2.133-2.46 3.424zM35.622 5.951c-1.901.112-3.467 1.179-3.467 3.874v5.894h-2.74V3.761h2.684v1.404c.391-.618 1.174-1.797 3.523-1.797v2.583zM10.96 10.947V1.291h2.74v14.484h-2.517L2.908 6.063v9.656H0V1.291h2.796l8.165 9.656zM48.428 0l-.056 9.544v6.175h-2.405v-1.572c-.615 1.18-2.46 1.797-3.802 1.797-3.58 0-6.431-3.032-6.208-6.68.224-3.089 2.685-5.615 5.76-5.84 1.622-.168 3.523.506 4.138 1.292V0h2.573zm-2.684 9.825v-.393c-.112-1.91-1.678-3.425-3.58-3.425-2.124 0-3.802 1.853-3.578 4.042a3.685 3.685 0 0 0 3.131 3.144c2.125.28 3.915-1.291 4.027-3.368zM21.586 3.368c3.41 0 6.207 2.807 6.263 6.288 0 3.48-2.796 6.288-6.263 6.288s-6.264-2.807-6.264-6.288c0-3.48 2.797-6.288 6.264-6.288zm0 9.881a3.575 3.575 0 0 0 3.579-3.593c0-1.965-1.622-3.593-3.58-3.593-1.957 0-3.578 1.628-3.578 3.593s1.621 3.593 3.579 3.593z" fill="#0000A0"/></svg>