<svg width="79" height="32" viewBox="0 0 79 32" xmlns="http://www.w3.org/2000/svg"><g fill="none" fill-rule="evenodd"><path d="M30.15 10.91h-.01c-2.304 0-3.88 1.346-3.88 3.595v7.98h-2.004V14.01c0-1.986-1.11-3.097-2.948-3.097-2.394 0-3.823 1.547-3.823 3.448v8.124h-2.013V9.598h1.982v1.84c.994-1.577 2.394-2.19 4.086-2.19 2.132 0 3.736 1.17 4.348 2.688.76-1.55 2.132-2.689 4.495-2.689 3.033 0 4.697 1.841 4.697 4.675v8.561h-2.014v-8.475c0-1.986-1.107-3.097-2.917-3.097zM70.3 6.763c0-.263-.06-.614-.088-.877-.556-2.803-2.395-4.061-4.67-4.061-2.596 0-4.58 1.87-4.58 4.938 0 3.651 2.479 5.2 2.479 9.437 0 3.654-2.801 6.635-6.594 6.635-3.882 0-6.624-3.038-6.624-6.78 0-4 2.954-6.312 5.6-6.634.263-.03.584-.059.788-.059v1.694a5.266 5.266 0 0 0-.67.06c-1.956.32-3.707 2.163-3.707 4.938 0 2.774 1.81 5.113 4.64 5.113 2.744 0 4.494-2.133 4.494-4.938 0-3.858-2.48-5.348-2.48-9.469 0-3.798 2.949-6.603 6.625-6.603 3.151 0 6.012 1.96 6.653 5.466.07.376.099.758.087 1.14H70.3zm1.953 2.483l.007.004a6.52 6.52 0 0 1 4.664 1.925 6.541 6.541 0 0 1 1.9 4.68c0 3.916-2.538 6.984-6.74 6.984a7.585 7.585 0 0 1-2.16-.35v-1.725c.685.284 1.42.423 2.16.41 2.977 0 4.7-2.308 4.7-5.32 0-2.746-1.87-4.938-4.7-4.938-2.45 0-4.464 1.725-4.464 4.647v14.904H65.6V9.596h2.014v2.426c1.022-1.754 2.626-2.777 4.64-2.777zm-29.47 0c3.18 0 5.164 1.725 5.164 4.383v8.855h-1.985v-1.782c-.875 1.49-2.422 2.133-4.085 2.133-2.686 0-4.64-1.637-4.64-3.945 0-2.367 1.81-3.799 4.436-3.799h3.007c.904 0 1.254-.438 1.254-1.14v-.35c0-1.96-1.43-2.69-3.151-2.69-1.458 0-2.596.41-3.005 1.579h-2.013c.437-2.045 2.42-3.244 5.018-3.244zm3.15 8.563l-.001-1.696c-.32.381-.961.497-1.633.497h-2.335c-1.897 0-2.685.936-2.685 2.28 0 1.111.76 2.338 2.92 2.338 1.925 0 3.735-1.082 3.735-3.419zM6.784 9.245c3.7 0 6.625 2.836 6.625 6.81 0 3.973-2.941 6.779-6.624 6.779S.19 20.031.19 16.054c0-3.975 2.917-6.81 6.594-6.81zm0 11.923c2.765 0 4.575-2.19 4.575-5.113 0-2.924-1.823-5.144-4.574-5.144-2.75 0-4.552 2.222-4.552 5.144 0 2.921 1.81 5.113 4.552 5.113z" fill="#1DCA7A"/><path d="M.75 30.448v-5.133h.657v4.572h2.51v.561H.751zm5.96-2.45c0-.478-.357-.706-.858-.706-.373.01-.731.15-1.011.397l-.34-.478a2.11 2.11 0 0 1 1.401-.495c.924 0 1.449.528 1.449 1.288v2.442H6.71v-.419c-.22.364-.705.511-1.095.511-.8 0-1.313-.478-1.313-1.16 0-.681.486-1.095 1.28-1.095h.85c.2 0 .267-.105.267-.259l.01-.026zM5.276 25.24a.482.482 0 0 1 .47.47.475.475 0 0 1-.47.463.466.466 0 0 1 0-.933zm1.434 3.868v-.397a.562.562 0 0 1-.405.106h-.567c-.503 0-.753.201-.753.567 0 .31.234.61.738.61.503 0 .987-.253.987-.893v.007zm-.097-3.875a.482.482 0 0 1 .47.471.475.475 0 0 1-.47.463.466.466 0 0 1 0-.934zm2.33 5.214h-.638v-5.133h.639v1.992a1.575 1.575 0 0 1 1.247-.591c.858 0 1.337.543 1.337 1.354v2.376h-.64v-2.334a.768.768 0 0 0-.81-.844c-.366 0-.762.204-1.134.633v2.547zm3.986-1.624c.08.658.501 1.15 1.175 1.15.376.018.736-.152.963-.453h.761a1.919 1.919 0 0 1-1.733 1.021c-1.061 0-1.838-.802-1.838-1.913s.77-1.913 1.83-1.913c.938 0 1.82.609 1.82 2.084v.024H12.93zm.015-.528h2.22a1.077 1.077 0 0 0-1.077-1.013c-.633 0-1.029.421-1.143 1.013zm3.7-2.98h.64v5.13h-.64v-5.13zm1.618 0h.639v5.13h-.64v-5.13zm3.766 2.682c0-.478-.357-.706-.858-.706-.373.01-.73.15-1.01.397l-.34-.478a2.11 2.11 0 0 1 1.4-.495c.924 0 1.45.528 1.45 1.288v2.442h-.64v-.419c-.219.364-.704.511-1.094.511-.8 0-1.313-.478-1.313-1.16 0-.681.486-1.095 1.28-1.095h.85c.203 0 .266-.105.266-.259l.01-.026zm-1.433-2.757a.482.482 0 0 1 .47.47.473.473 0 0 1-.47.463.466.466 0 0 1 0-.933zm1.433 3.868v-.397a.564.564 0 0 1-.405.106h-.567c-.5 0-.752.201-.752.567 0 .31.234.61.737.61s.99-.253.99-.893l-.003.007zm-.096-3.875a.482.482 0 0 1 .47.471.475.475 0 0 1-.47.463.466.466 0 0 1 0-.934zM25.5 27.34h-.576v-.528h1.215v4.298c0 .682-.527.763-.915.763h-.461v-.53h.347c.22 0 .388-.04.388-.316l.002-3.687zm.267-2.1c.277.002.5.225.503.502a.5.5 0 1 1-.503-.501zm3.475 2.758c0-.478-.357-.706-.858-.706-.373.01-.73.15-1.01.397l-.342-.478a2.11 2.11 0 0 1 1.4-.495c.924 0 1.45.526 1.45 1.288v2.442h-.64v-.419c-.219.364-.705.511-1.094.511-.801 0-1.313-.478-1.313-1.16 0-.681.486-1.095 1.28-1.095h.85c.203 0 .266-.105.266-.259l.011-.026zm0 1.111v-.397a.562.562 0 0 1-.405.106h-.567c-.5 0-.752.201-.752.567 0 .31.234.607.737.607.504 0 .987-.252.987-.892v.009zm3.302-3.794h.64v5.131h-.64v-5.13zm3.767 2.683c0-.478-.357-.706-.858-.706-.373.01-.731.15-1.011.397l-.34-.478a2.11 2.11 0 0 1 1.401-.495c.924 0 1.449.528 1.449 1.288v2.442h-.64v-.419c-.218.364-.704.511-1.093.511-.801 0-1.313-.478-1.313-1.16 0-.681.485-1.095 1.28-1.095h.851c.201 0 .267-.105.267-.259l.007-.026zm-1.434-2.757a.482.482 0 0 1 .47.47.473.473 0 0 1-.47.463.466.466 0 0 1 0-.933zm1.434 3.868v-.397a.564.564 0 0 1-.405.106h-.567c-.503 0-.753.201-.753.567 0 .31.234.61.738.61.503 0 .987-.253.987-.893v.007zm-.097-3.875a.48.48 0 0 1 .469.471.473.473 0 0 1-.469.463.466.466 0 0 1 0-.934zm3.412 4.215c0-.3-.267-.439-.753-.607l-.177-.066c-.591-.22-.99-.487-.99-1.046 0-.558.543-1.012 1.296-1.012a1.93 1.93 0 0 1 1.248.438l-.324.46a1.675 1.675 0 0 0-.94-.357c-.356 0-.632.171-.632.439 0 .219.171.372.51.495l.396.147c.714.258 1.011.592 1.011 1.126 0 .487-.413 1.079-1.376 1.079a2.143 2.143 0 0 1-1.344-.478l.324-.478c.29.243.651.385 1.029.406.437 0 .72-.244.72-.544l.002-.002zm4.615 1h-.639v-2.337a.768.768 0 0 0-.81-.844c-.363 0-.761.204-1.133.633v2.547h-.64v-3.634h.625v.496c.309-.38.773-.597 1.262-.592.858 0 1.337.543 1.337 1.354l-.002 2.376zm3.092-2.451c0-.478-.356-.706-.857-.706-.374.01-.731.15-1.012.397l-.34-.478c.39-.33.888-.505 1.4-.495.923 0 1.448.528 1.448 1.288v2.442h-.639v-.419c-.218.364-.704.511-1.094.511-.8 0-1.313-.478-1.313-1.16 0-.681.486-1.095 1.28-1.095h.852c.2 0 .267-.105.267-.259l.008-.026zM45.9 25.241a.482.482 0 0 1 .47.47.475.475 0 0 1-.47.463.466.466 0 0 1 0-.933zm1.433 3.868v-.397a.562.562 0 0 1-.404.106h-.567c-.501 0-.753.201-.753.567 0 .31.234.61.737.61.504 0 .987-.253.987-.893v.007zm-.096-3.875a.482.482 0 0 1 .47.471.475.475 0 0 1-.47.463.466.466 0 0 1 0-.934z" fill="#333"/></g></svg>