<svg width="59" height="28" viewBox="0 0 59 28" xmlns="http://www.w3.org/2000/svg"><g fill="none" fill-rule="evenodd"><path d="M40.828 22.225c-4.071 0-5.428-2.975-5.428-5.892v-4.55c0-2.975 1.357-5.95 5.428-5.95s5.428 2.975 5.428 5.892v4.55c-.059 2.975-1.416 5.95-5.428 5.95zm3.894-10.442c0-2.508-1.003-4.55-3.953-4.55s-3.953 2.1-3.953 4.55v4.55c0 2.509 1.003 4.55 3.953 4.55s3.953-2.1 3.953-4.55v-4.55zm9.027 3.675h-3.776v6.009c0 .408-.295.7-.708.7s-.708-.292-.708-.7v-14.7c0-.409.354-.7.708-.7h4.248c3.776 0 5.133 2.158 5.133 4.2v1.108c0 2.392-1.829 4.083-4.897 4.083zm3.422-5.191c0-1.284-.826-2.859-3.717-2.859h-3.481v6.767h3.717c2.36 0 3.481-1.283 3.481-2.8v-1.108z" fill="#6E6E6E" fill-rule="nonzero"/><path d="M17.011 27.813c-1.146.243-4.499.251-5.635.014C5.543 26.61 1.043 21.965.112 16.203c-.226-1.397-.094-4.323.253-5.64C1.765 5.254 6.187 1.198 11.687.175c1.659-.308 4.322-.202 6.005.24a14.42 14.42 0 0 1 6.242 3.454c1.29 1.215 2.118 2.327 2.894 3.885 2.097 4.211 1.978 9.083-.322 13.155-1.965 3.48-5.51 6.057-9.495 6.903zM12.59 8.632c-5.55-2.802-9.741 1.89-9.504 5.418.024 4.452 4.871 7.752 9.504 5.34v5.59l2.971-.01.047-5.602c5.841 2.723 9.706-1.87 9.637-5.316-.072-4.445-4.572-7.904-9.637-5.42V3.02h-2.933l-.085 5.612zm-3.14 2.112c4.752.526 3.878 6.51-.018 6.602-4.59-.112-4.58-6.603.017-6.602zm9.742-.094c4.42.492 3.909 6.575-.21 6.696-5.055-.655-4.025-6.816.21-6.696z" fill="#FF6A10" opacity=".99"/></g></svg>