<?xml version="1.0" encoding="UTF-8"?>
<svg width="59px" height="28px" viewBox="0 0 59 28" version="1.1" xmlns="http://www.w3.org/2000/svg" xmlns:xlink="http://www.w3.org/1999/xlink">
    <!-- Generator: Sketch 52.3 (67297) - http://www.bohemiancoding.com/sketch -->
    <title>Cropped/OP</title>
    <desc>Created with Sketch.</desc>
    <g id="Page-1" stroke="none" stroke-width="1" fill="none" fill-rule="evenodd">
        <g id="Optical/OP" transform="translate(0.000000, -11.000000)">
            <g id="Cropped/OP" transform="translate(0.000000, 11.000000)">
                <path d="M40.828,22.225 C36.757,22.225 35.4,19.25 35.4,16.3333333 L35.4,11.7833333 C35.4,8.80833333 36.757,5.83333333 40.828,5.83333333 C44.899,5.83333333 46.256,8.80833333 46.256,11.725 L46.256,16.275 C46.197,19.25 44.84,22.225 40.828,22.225 Z M44.722,11.7833333 C44.722,9.275 43.719,7.23333333 40.769,7.23333333 C37.819,7.23333333 36.816,9.33333333 36.816,11.7833333 L36.816,16.3333333 C36.816,18.8416667 37.819,20.8833333 40.769,20.8833333 C43.719,20.8833333 44.722,18.7833333 44.722,16.3333333 L44.722,11.7833333 Z M53.749,15.4583333 L49.973,15.4583333 L49.973,21.4666667 C49.973,21.875 49.678,22.1666667 49.265,22.1666667 C48.852,22.1666667 48.557,21.875 48.557,21.4666667 L48.557,6.76666667 C48.557,6.35833333 48.911,6.06666667 49.265,6.06666667 L53.513,6.06666667 C57.289,6.06666667 58.646,8.225 58.646,10.2666667 L58.646,11.375 C58.646,13.7666667 56.817,15.4583333 53.749,15.4583333 Z M57.171,10.2666667 C57.171,8.98333333 56.345,7.40833333 53.454,7.40833333 L49.973,7.40833333 L49.973,14.175 L53.69,14.175 C56.05,14.175 57.171,12.8916667 57.171,11.375 L57.171,10.2666667 Z" id="Shape" fill="#6E6E6E" fill-rule="nonzero"></path>
                <path d="M17.011211,27.8126158 C15.8654746,28.0556721 12.512415,28.0642004 11.3755074,27.8269506 C5.54332324,26.6098909 1.04250002,21.9649301 0.111832848,16.2025559 C-0.11375955,14.8057724 0.0176617692,11.8798996 0.365168226,10.5624541 C1.76502109,5.25541114 6.18725631,1.19850517 11.686697,0.176217016 C13.3457015,-0.132172648 16.0092765,-0.0256396489 17.6917948,0.416403347 C20.0425271,1.03400517 22.1791908,2.21603333 23.934062,3.86970048 C25.2239826,5.08523414 26.0517514,6.19666846 26.8279943,7.75535961 C28.9250148,11.9661687 28.8058572,16.8379739 26.5062307,20.9103965 C24.5411685,24.3903391 20.9962904,26.9672188 17.011211,27.8126158 Z M12.5886312,8.63196261 C7.03919271,5.82989063 2.84771828,10.5225156 3.08478146,14.0503744 C3.10886644,18.5015658 7.95595476,21.8016878 12.5886312,19.3904107 L12.5886312,24.9801125 L15.5602381,24.9693441 L15.6073048,19.3680375 C21.4481513,22.0914085 25.313272,17.497326 25.2438774,14.0517079 C25.1721487,9.60736476 20.6719131,6.14829146 15.6073048,8.63195211 L15.6073048,3.01988649 L12.6742355,3.01988649 L12.5886312,8.63196261 Z M9.44845296,10.7436129 C14.2010587,11.2695404 13.3269265,17.2549184 9.4309748,17.3458274 C4.84015771,17.2340782 4.85188927,10.7429794 9.44845296,10.7436129 Z M19.1906804,10.6499623 C23.6118194,11.1418137 23.0995507,17.2249677 18.9808634,17.3460992 C13.9258732,16.691213 14.9563295,10.5303288 19.1906804,10.6499623 Z" id="OP" fill="#FF6A10" opacity="0.98999999"></path>
            </g>
        </g>
    </g>
</svg>