<?xml version="1.0" encoding="UTF-8"?>
<svg width="117px" height="40px" viewBox="0 0 117 40" version="1.1" xmlns="http://www.w3.org/2000/svg" xmlns:xlink="http://www.w3.org/1999/xlink">
    <!-- Generator: Sketch 52.3 (67297) - http://www.bohemiancoding.com/sketch -->
    <title>Cropped/Pohjantähti</title>
    <desc>Created with Sketch.</desc>
    <g id="Page-1" stroke="none" stroke-width="1" fill="none" fill-rule="evenodd">
        <g id="Optical/Pohjantähti">
            <g id="Cropped/Pohjantähti">
                <path d="M41.7740786,34.8226999 L41.7499607,34.8276059 L41.7499607,36.4318638 L43.0860875,34.758922 L43.6649149,34.9698795 L42.4204359,36.4711117 L43.9446815,38.3942589 L43.1873822,38.6150283 L41.7740786,36.6526333 L41.7740786,38.5463445 L41.03125,38.5463445 L41.03125,34.8226999 L41.7740786,34.8226999 Z M47.1137618,37.2756937 L45.4206915,37.2462578 C45.396322,37.4642291 45.4627462,37.682627 45.6038691,37.8485301 C45.7449915,38.0144331 45.9479339,38.1127016 46.16352,38.1195235 C46.4190358,38.1181433 46.6686797,38.041459 46.8822306,37.8987541 L47.0751731,38.2765151 C46.7612295,38.4749027 46.4025034,38.5880757 46.033284,38.6052163 C45.656052,38.6089384 45.294482,38.452021 45.0360997,38.1724492 C44.7777176,37.8928775 44.6460752,37.516135 44.6730394,37.13342 C44.6605278,36.774471 44.7962506,36.4265707 45.047329,36.1739978 C45.2984075,35.9214249 45.6419363,35.7872212 45.9946953,35.8038974 C46.8195245,35.8038974 47.15235,36.4662057 47.1137618,37.2756937 Z M45.4206915,36.8832147 L46.4481103,36.8832147 C46.4818752,36.4662057 46.4095216,36.2061884 45.9995191,36.2061884 C45.5895162,36.2061884 45.4206915,36.5299836 45.4206915,36.8832147 Z M49.8004859,36.0590088 L49.7908388,36.0590088 L49.5448372,36.3877099 C49.4199452,36.2770918 49.2617176,36.2130654 49.0962456,36.2061884 C49.02298,36.199416 48.9501675,36.2233305 48.8946333,36.2724061 C48.8390991,36.3214817 48.8056476,36.3914724 48.8020083,36.4662057 C48.8020083,36.6869752 49.0335395,36.8194368 49.3277768,37.0402063 C49.6087224,37.2138944 49.7887464,37.5160095 49.8101329,37.8496942 C49.7321955,38.323142 49.3166686,38.661244 48.8454208,38.6346522 C48.5267454,38.6258885 48.219834,38.5103391 47.9723559,38.3059511 L48.1797688,37.92819 C48.3411907,38.0743563 48.5436487,38.1653032 48.7585963,38.1882074 C48.8516798,38.1992825 48.9450404,38.1699292 49.015741,38.1073594 C49.0864412,38.0447896 49.127929,37.9548023 49.1300106,37.8595062 C49.1300106,37.5945829 48.9225977,37.4670272 48.6187133,37.2707877 C48.3148289,37.0745482 48.1074156,36.9273685 48.1074156,36.5250776 C48.1074156,36.1227866 48.507771,35.8088034 49.0190687,35.8088034 C49.3012147,35.7892422 49.5802406,35.8785847 49.8004859,36.0590088 Z M50.8279046,38.5414385 L50.8134338,38.5512505 L50.8134338,34.6264604 L51.4935561,34.6264604 L51.4935561,36.9371805 L51.5852039,36.9371805 L52.4727391,35.7989914 L52.9840368,36.0197609 L52.1881488,37.0009584 L53.1528615,38.345199 L52.496857,38.6052163 L51.5321448,37.13342 L51.5080269,37.13342 L51.5080269,38.5414385 L50.8279046,38.5414385 Z M53.9487494,35.8774872 L54.6433422,35.8774872 L54.6433422,38.5414385 L53.9487494,38.5414385 L53.9487494,35.8774872 Z M54.2960458,35.5144441 L54.3008691,35.5144441 C54.0675276,35.5117922 53.8790034,35.3200463 53.8763958,35.0827172 C53.8738091,34.9738778 53.9141827,34.8685173 53.9885013,34.7901634 C54.0628199,34.7118095 54.1648933,34.6669882 54.2719279,34.6657083 C54.4308307,34.6442161 54.5878896,34.716673 54.6766658,34.852428 C54.7654421,34.9881831 54.7704246,35.1635175 54.6895055,35.3042609 C54.6085863,35.4450042 54.4559036,35.5265662 54.2960458,35.5144441 Z M56.5052371,35.8774872 L56.4762959,35.8774872 L56.4762959,36.1914704 C56.7076008,35.9395546 57.0347868,35.8017921 57.3734782,35.8137094 C57.6429677,35.7779998 57.9132609,35.8734236 58.1030421,36.0712736 C58.2928234,36.2691237 58.3799426,36.5463073 58.3381908,36.8194368 L58.3381908,38.5414385 L57.6339506,38.5414385 L57.6339506,36.9077446 C57.6339506,36.5299836 57.4940671,36.2699662 57.1226529,36.2699662 C56.9497219,36.2679191 56.7839968,36.3403128 56.6663882,36.4692763 C56.5487797,36.5982399 56.4902461,36.7717565 56.5052371,36.9469925 L56.5052371,38.5414385 L55.8251147,38.5414385 L55.8251147,35.8774872 L56.5052371,35.8774872 Z M59.9974962,34.9257256 L59.9974962,34.9208196 C60.1573349,34.9208196 60.2869097,35.0526088 60.2869097,35.2151789 C60.2869097,35.377749 60.1573349,35.5095381 59.9974962,35.5095381 C59.9190626,35.5108792 59.8434539,35.4797804 59.787985,35.4233639 C59.7325165,35.3669475 59.7019401,35.2900465 59.7032588,35.2102729 C59.7195613,35.05492 59.8441259,34.9344577 59.9974962,34.9257256 Z M61.14068,34.9257256 L61.14068,34.9208196 C61.3005193,34.9208196 61.430094,35.0526088 61.430094,35.2151789 C61.430094,35.377749 61.3005193,35.5095381 61.14068,35.5095381 C61.0601682,35.5135704 60.981555,35.48383 60.9232038,35.4272639 C60.864853,35.3706978 60.8318748,35.2922601 60.8319723,35.2102729 C60.854835,35.052599 60.9841603,34.9333954 61.14068,34.9257256 Z M60.9332671,38.1489595 L60.9236201,38.1636775 L60.7837366,38.2961391 C60.6028977,38.4807743 60.3704318,38.6041336 60.1180851,38.6493702 C59.9093611,38.6432067 59.7121318,38.5507498 59.5719418,38.3933501 C59.4317517,38.2359504 59.3607223,38.0272174 59.3752566,37.8153523 C59.3752566,37.2904116 59.7129059,37.0156764 60.3399688,36.8341548 L60.957385,36.6624452 C60.9213195,36.4205614 60.7155524,36.2426707 60.4750285,36.2454363 C60.2145724,36.2425922 59.9640532,36.3469895 59.7804358,36.5348895 L59.5730224,36.1816585 C59.8545974,35.944647 60.2109404,35.8191897 60.5763233,35.8284274 C61.0490327,35.8284274 61.6519777,35.975607 61.6519777,36.8096249 L61.6519777,37.8889421 C61.6398614,38.1112862 61.6743905,38.3337081 61.7532725,38.5414385 L61.0104441,38.5414385 C60.9541435,38.4188007 60.9276729,38.2841878 60.9332671,38.1489595 Z M60.957385,37.0009584 L60.5715,37.13342 C60.2290269,37.2413518 60.0602023,37.4817452 60.0602023,37.7319505 C60.0602023,37.9821559 60.1856149,38.1244295 60.3544396,38.1244295 C60.6342061,38.1244295 61.0104441,37.7859164 60.957385,37.0009584 Z M62.7806912,35.8774872 L63.4608136,35.8774872 L63.4608136,38.5414385 L62.7806912,38.5414385 L62.7806912,35.8774872 Z M63.1279876,35.5144441 L63.1328114,35.5144441 C62.8959299,35.5145751 62.7016763,35.3235158 62.6938673,35.0827172 C62.6964726,34.8535162 62.8785196,34.6683583 63.1038702,34.6657083 C63.3182854,34.6819675 63.4859323,34.8604237 63.4921438,35.0790171 C63.4983556,35.2976106 63.3411222,35.4856169 63.1279876,35.5144441 Z M65.3371793,35.8774872 L65.3371793,36.1914704 C65.5684847,35.9395546 65.8956702,35.8017921 66.2343616,35.8137094 C66.8469541,35.8137094 67.1701326,36.1424105 67.1701326,36.8194368 L67.1701326,38.5414385 L66.4658928,38.5414385 L66.4658928,36.9077446 C66.4658928,36.5299836 66.3163623,36.2699662 65.9545951,36.2699662 C65.7811862,36.2663607 65.6145247,36.3382816 65.4965742,36.4676197 C65.3786241,36.5969577 65.3206243,36.771389 65.3371793,36.9469925 L65.3371793,38.5414385 L64.6425862,38.5414385 L64.6425862,35.8774872 L65.3371793,35.8774872 Z M70.6430976,37.2756937 L68.9500273,37.2462578 C68.9254687,37.4667238 68.9937921,37.687463 69.1380939,37.8538616 C69.2823953,38.0202603 69.4891946,38.1167738 69.7073266,38.1195235 C69.9583356,38.118137 70.2033436,38.0413305 70.4115664,37.8987541 L70.6045089,38.2765151 C70.2948013,38.4725223 69.9413506,38.5856015 69.5770902,38.6052163 C69.1978138,38.6115948 68.8332645,38.4560325 68.5720021,38.1763202 C68.3107398,37.8966079 68.1766746,37.5183439 68.2023751,37.13342 C68.1898634,36.774471 68.3255865,36.4265707 68.5766649,36.1739978 C68.8277433,35.9214249 69.1712721,35.7872212 69.5240311,35.8038974 C70.3488603,35.8038974 70.6816858,36.4662057 70.6430976,37.2756937 Z M68.9500273,36.8832147 L69.977446,36.8832147 C70.011211,36.4662057 69.9388574,36.2061884 69.5288549,36.2061884 C69.118852,36.2061884 68.9500273,36.5299836 68.9500273,36.8832147 Z M72.3506387,35.8774872 L72.321697,35.8774872 L72.321697,36.1914704 C72.5599539,35.9409469 72.8907964,35.803856 73.2333502,35.8137094 C73.8459427,35.8137094 74.1691212,36.1424105 74.1691212,36.8194368 L74.1691212,38.5414385 L73.4648814,38.5414385 L73.4648814,36.9077446 C73.4648814,36.5299836 73.3153508,36.2699662 72.9535837,36.2699662 C72.779455,36.2666547 72.6120498,36.3382953 72.49263,36.4672303 C72.3732102,36.5961653 72.312884,36.7704011 72.3265208,36.9469925 L72.3265208,38.5414385 L71.6512222,38.5414385 L71.6512222,35.8774872 L72.3506387,35.8774872 Z M78.9106831,38.5414385 L78.3318555,38.5414385 L76.9571405,34.8570418 L77.7385572,34.754016 C78.0472653,35.7057776 78.3800913,36.6477273 78.7032698,37.7319505 C79.021625,36.6477273 79.3689213,35.7057776 79.7162177,34.754016 L80.3577513,34.8570418 L78.9106831,38.5414385 Z M82.3643535,38.1489595 L82.3450589,38.1636775 L82.1907051,38.2961391 C82.0137925,38.4808362 81.7843373,38.6043881 81.5347006,38.6493702 C81.3234385,38.6471829 81.1224198,38.5564539 80.9790798,38.3985924 C80.8357394,38.2407308 80.7627741,38.0297202 80.7774013,37.8153523 C80.7774013,37.2904116 81.1246977,37.0156764 81.7421139,36.8341548 L82.3691768,36.6624452 C82.3331113,36.4205614 82.1273446,36.2426707 81.8868207,36.2454363 C81.6313762,36.2465317 81.3867863,36.3506266 81.2066984,36.5348895 L80.989638,36.1816585 C81.2743888,35.9435819 81.634113,35.8181403 82.0025863,35.8284274 C82.4656483,35.8284274 83.0685933,35.975607 83.0685933,36.8096249 L83.0685933,37.8889421 C83.0630539,38.1108971 83.0973812,38.3320173 83.1698881,38.5414385 L82.4270596,38.5414385 C82.3821085,38.4157785 82.3608353,38.2826302 82.3643535,38.1489595 Z M82.3884709,37.0009584 L82.0025863,37.13342 C81.6601133,37.2413518 81.4912886,37.4817452 81.4912886,37.7319505 C81.4912886,37.9821559 81.6167013,38.1244295 81.7855259,38.1244295 C82.0652924,38.1244295 82.4270596,37.7859164 82.3884709,37.0009584 Z M84.2117776,38.5414385 L84.1876597,38.5365325 L84.1876597,34.6117424 L84.8677821,34.6117424 L84.8677821,36.9224626 L84.9690769,36.9224626 L85.8421418,35.7989914 L86.353439,36.0197609 L85.5575515,37.0009584 L86.5222637,38.345199 L85.8566121,38.6052163 L84.8919,37.13342 L84.8677821,37.13342 L84.8677821,38.5414385 L84.2117776,38.5414385 Z M89.0353398,38.5414385 L89.0112219,38.5512505 L89.0112219,38.2225493 C88.7949733,38.4639528 88.4967679,38.6129737 88.1767457,38.6395582 C87.6268593,38.6395582 87.279563,38.2617972 87.279563,37.5945829 L87.279563,35.8823932 L87.9741561,35.8823932 L87.9741561,37.5013691 C87.9741561,37.8644122 88.138157,38.1146175 88.4565122,38.1146175 C88.7025138,38.1146175 88.9967511,37.8987541 88.9967511,37.4081554 L88.9967511,35.8774872 L89.6913443,35.8774872 L89.6913443,38.5414385 L89.0353398,38.5414385 Z M92.590305,38.5414385 L92.590305,38.5512505 L92.590305,38.2225493 C92.3740563,38.4639528 92.075851,38.6129737 91.7558288,38.6395582 C91.2059424,38.6395582 90.858646,38.2617972 90.858646,37.5945829 L90.858646,35.8823932 L91.5628862,35.8823932 L91.5628862,37.5013691 C91.5628862,37.8644122 91.7220638,38.1146175 92.0452423,38.1146175 C92.2912439,38.1146175 92.5854812,37.8987541 92.5854812,37.4081554 L92.5854812,35.8774872 L93.2848977,35.8774872 L93.2848977,38.5414385 L92.590305,38.5414385 Z M95.2722053,35.0827172 L95.267382,35.0729053 L95.267382,35.8676752 L95.9475039,35.8676752 L95.9475039,36.2209064 L95.267382,36.2209064 L95.267382,37.530805 C95.267382,37.9870619 95.3976179,38.1685834 95.6291491,38.1685834 C95.7501036,38.1629116 95.8684885,38.1311373 95.9764455,38.0753697 L96.0777403,38.4286008 C95.8738955,38.5582393 95.638028,38.6262955 95.3976179,38.6248403 C94.8187904,38.6248403 94.5776125,38.3010451 94.5776125,37.7515745 L94.5776125,36.2209064 L94.1917275,36.2209064 L94.1917275,35.8774872 L94.5776125,35.8774872 L94.5776125,35.2249909 L95.2722053,35.0827172 Z M98.6486987,38.5414385 L98.6197576,38.5512505 L98.6197576,38.2225493 C98.4035089,38.4639528 98.1053036,38.6129737 97.7852814,38.6395582 C97.2209246,38.6395582 96.8880986,38.2617972 96.8880986,37.5945829 L96.8880986,35.8823932 L97.5923388,35.8823932 L97.5923388,37.5013691 C97.5923388,37.8644122 97.7515164,38.1146175 98.0746949,38.1146175 C98.3206965,38.1146175 98.6149338,37.8987541 98.6149338,37.4081554 L98.6149338,35.8774872 L99.3288211,35.8774872 L99.3288211,38.5414385 L98.6486987,38.5414385 Z M102.165076,36.0590088 L102.140958,36.0590088 L101.894956,36.3877099 C101.771349,36.2749664 101.612339,36.2106233 101.446365,36.2061884 C101.373403,36.2007971 101.301337,36.2252017 101.246115,36.2740013 C101.190893,36.3228009 101.157069,36.3919715 101.152127,36.4662057 C101.152127,36.6869752 101.383659,36.8194368 101.692367,37.0402063 C101.971551,37.2156765 102.150968,37.5167725 102.174723,37.8496942 C102.096785,38.323142 101.681258,38.661244 101.21001,38.6346522 C100.891335,38.6258885 100.584424,38.5103391 100.336946,38.3059511 L100.544359,37.92819 C100.70578,38.0743563 100.908238,38.1653032 101.123186,38.1882074 C101.325776,38.1882074 101.4946,38.1244295 101.4946,37.8595062 C101.4946,37.5945829 101.282364,37.4670272 100.978479,37.2707877 C100.674595,37.0745482 100.467182,36.9273685 100.467182,36.5250776 C100.467182,36.1227866 100.867538,35.8088034 101.393306,35.8088034 C101.672373,35.7902888 101.94802,35.8796526 102.165076,36.0590088 Z M102.82108,35.941265 L102.816256,35.960889 L103.520497,35.8284274 C103.766498,36.4220519 103.969088,37.0598302 104.215089,37.7908224 C104.465915,37.0843602 104.692622,36.4416758 104.948271,35.8284274 L105.527098,35.946171 L104.244031,38.9241055 C104.089677,39.2380887 103.771322,39.905303 103.076729,39.905303 L102.782491,39.905303 L102.782491,39.4147043 L102.975434,39.4147043 C103.293789,39.4147043 103.549438,39.2871486 103.834028,38.3697289 L102.82108,35.941265 Z M107.04652,34.6215544 L106.993461,34.6264604 L106.993461,36.1963764 C107.227601,35.9486524 107.55286,35.811701 107.890644,35.8186154 C108.532178,35.8186154 108.855356,36.1473165 108.855356,36.8243428 L108.855356,38.5463445 L108.151116,38.5463445 L108.151116,36.9126506 C108.151116,36.5348895 108.001586,36.2748722 107.639819,36.2748722 C107.46569,36.2715606 107.298285,36.3432013 107.178865,36.4721363 C107.059445,36.6010713 106.999119,36.7753071 107.012755,36.9518985 L107.012755,38.5463445 L106.332633,38.5463445 L106.332633,34.6215544 L107.04652,34.6215544 Z M110.861958,35.0778112 L110.866782,35.0729053 L110.866782,35.8676752 L111.561375,35.8676752 L111.561375,36.2209064 L110.866782,36.2209064 L110.866782,37.530805 C110.866782,37.9870619 110.992194,38.1685834 111.238196,38.1685834 C111.354267,38.1611634 111.467578,38.1294286 111.571022,38.0753697 L111.686787,38.4286008 C111.478453,38.5601836 111.237406,38.6282851 110.992194,38.6248403 C110.413367,38.6248403 110.181836,38.3010451 110.181836,37.7515745 L110.181836,36.2209064 L109.795951,36.2209064 L109.795951,35.8725812 L110.181836,35.8725812 L110.181836,35.2200849 L110.861958,35.0778112 Z M112.530911,35.8725812 L113.225503,35.8725812 L113.225503,38.5365325 L112.530911,38.5365325 L112.530911,35.8725812 Z M112.878207,35.5095381 C112.644865,35.5068862 112.456341,35.3151403 112.453733,35.0778112 C112.476684,34.8610244 112.656595,34.6966845 112.870972,34.6966845 C113.085348,34.6966845 113.265259,34.8610244 113.28821,35.0778112 C113.290795,35.1905544 113.248897,35.299658 113.171864,35.3807718 C113.094832,35.4618855 112.989079,35.5082575 112.878207,35.5095381 Z M115.058457,34.9208196 L115.058457,34.9159136 C115.218296,34.9159136 115.347871,35.0477028 115.347871,35.2102729 C115.347871,35.372843 115.218296,35.5046322 115.058457,35.5046322 C114.980024,35.5059732 114.904415,35.4748744 114.848946,35.4184579 C114.793477,35.3620415 114.762901,35.2851405 114.76422,35.2053669 C114.785861,35.0527563 114.907511,34.935113 115.058457,34.9208196 Z M116.201641,34.9208196 L116.201641,34.9159136 C116.36148,34.9159136 116.491055,35.0477028 116.491055,35.2102729 C116.491055,35.372843 116.36148,35.5046322 116.201641,35.5046322 C116.123208,35.5059732 116.047599,35.4748744 115.99213,35.4184579 C115.936662,35.3620415 115.906085,35.2851405 115.907404,35.2053669 C115.923707,35.050014 116.048271,34.9295518 116.201641,34.9208196 Z M115.622814,38.6297463 C115.243988,38.6346333 114.880322,38.4786099 114.619386,38.199246 C114.358449,37.9198821 114.223886,37.542492 114.248099,37.15795 C114.248099,36.3857419 114.86358,35.7597435 115.622814,35.7597435 C116.382048,35.7597435 116.997529,36.3857419 116.997529,37.15795 C117.020274,37.5421116 116.88522,37.9186409 116.624603,38.1976624 C116.363986,38.476684 116.00119,38.633162 115.622814,38.6297463 Z M115.622814,38.2127373 C116.134111,38.2127373 116.264348,37.6142068 116.264348,37.167762 C116.264348,36.7213171 116.095523,36.1865645 115.622814,36.1865645 C115.150105,36.1865645 114.98128,36.6820692 114.98128,37.167762 C114.98128,37.6534547 115.140457,38.2127373 115.622814,38.2127373 Z M52.9921874,24.8390151 L54.84375,24.8390151 L54.84375,29.8859585 C54.84375,32.3996682 52.8328125,32.8389572 51.1875,32.453359 L51.1875,31.540614 C51.7242348,31.7033317 52.3035902,31.5585469 52.7109375,31.1598968 C52.912485,30.7620723 53.0095093,30.3158598 52.9921874,29.8664345 L52.9921874,24.8390151 Z M34.3088595,32.623106 C31.4527545,32.623106 29.65625,30.888926 29.65625,28.6565285 C29.65625,26.5486854 31.5924291,24.8863636 34.3088595,24.8863636 C37.02529,24.8863636 39,26.5486854 39,28.6565285 C39,30.888926 37.1986791,32.623106 34.3088595,32.623106 Z M34.3088595,31.5500223 C36.2835696,31.5500223 36.986759,30.0505793 36.986759,28.6756907 C36.986759,27.3008021 36.1583441,25.9786096 34.3088595,25.9786096 C32.459375,25.9786096 31.669491,27.2672683 31.669491,28.6756907 C31.669491,30.0841132 32.3823132,31.5500223 34.3088595,31.5500223 Z M60.5184695,25 L62.0996456,25 L65.6235464,32.7367424 L63.502457,32.7367424 L62.6395593,30.6330217 L59.2843812,30.6330217 L58.3202495,32.7367424 L56.6860465,32.7367424 L60.5184695,25 Z M59.8001915,29.672735 L62.3358577,29.672735 C61.9405637,28.6579991 61.5259873,27.7175122 61.077666,26.5344787 C60.7041548,27.6022151 60.2777746,28.6496651 59.8001915,29.672735 Z M88.7386731,25 L90.3198488,25 L93.84375,32.7367424 L91.7226606,32.7367424 L90.8597625,30.6330217 L87.5045848,30.6330217 L86.5404531,32.7367424 L84.9062502,32.7367424 L88.7386731,25 Z M88.0203952,29.672735 L90.5560613,29.672735 C90.1607673,28.6579991 89.7461905,27.7175122 89.2978696,26.5344787 C88.924358,27.6022151 88.4979778,28.6496651 88.0203952,29.672735 Z M87.9498591,23.2579041 C88.2821314,23.2554683 88.5796239,23.4655959 88.6915947,23.7818139 C88.8035655,24.0980318 88.7055476,24.4512415 88.4472075,24.6624693 C88.188867,24.873697 87.8266554,24.8967861 87.5441081,24.7200373 C87.2615608,24.5432885 87.1204185,24.205324 87.1921989,23.8773928 C87.258771,23.5101252 87.5806171,23.2469729 87.9498591,23.2579041 Z M91.0203536,23.2579041 C91.3526259,23.2554683 91.6501179,23.4655959 91.7620887,23.7818139 C91.87406,24.0980318 91.7760417,24.4512415 91.5177016,24.6624693 C91.259361,24.873697 90.8971499,24.8967861 90.6146022,24.7200373 C90.3320549,24.5432885 90.1909125,24.205324 90.2626929,23.8773928 C90.329265,23.5101252 90.6511111,23.2469729 91.0203536,23.2579041 Z M75.9687498,24.8390151 L75.9687498,32.5757576 L74.5452217,32.5757576 C72.6951307,30.8036822 70.8400798,29.016757 69.0098293,27.0367846 L69.0098293,32.5757576 L67.4374998,32.5757576 L67.4374998,24.8390151 L68.8610284,24.8390151 C70.7160793,26.6110905 72.5661699,28.3831659 74.3964209,30.3631384 L74.3964209,24.8390151 L75.9687498,24.8390151 Z M82.4076979,32.5757576 L80.4985518,32.5757576 L80.4985518,25.8884005 L77.5937502,25.8884005 L77.5937502,24.8390151 L85.3125,24.8390151 L85.3125,25.8884005 L82.4076979,25.8884005 L82.4076979,32.5757576 Z M103.59375,24.8736647 L103.59375,32.5757576 L101.712185,32.5757576 L101.712185,28.8435095 L97.7758143,28.8435095 L97.7758143,32.5757576 L95.8750002,32.5757576 L95.8750002,24.8390151 L97.7758143,24.8390151 L97.7758143,27.8089739 L101.712185,27.8089739 L101.712185,24.8736647 L103.59375,24.8736647 Z M110.429922,32.5757576 L108.538828,32.5757576 L108.538828,25.8884005 L105.625,25.8884005 L105.625,24.8390151 L113.34375,24.8390151 L113.34375,25.8884005 L110.429922,25.8884005 L110.429922,32.5757576 Z M117,32.5757576 L114.96875,32.5757576 L114.96875,24.8390151 L117,24.8390151 L117,32.5757576 Z M23.4935142,29.6602481 L23.4935142,32.5757576 L21.53125,32.5757576 L21.53125,24.8390151 L24.5531368,24.8390151 C26.7116274,24.8390151 28.03125,25.5765549 28.03125,27.076384 C28.03125,28.3881158 26.6380424,29.6602481 24.3520047,29.6602481 L23.4935142,29.6602481 Z M23.4935142,25.8933505 L23.4935142,28.6999615 L23.915401,28.6999615 L24.3372877,28.665312 C25.2546462,28.6306624 26.1327594,28.1703188 26.1327594,27.1308333 C26.1327594,26.3388443 25.4901179,25.8933505 24.3569104,25.8933505 L23.4935142,25.8933505 Z M48.75,24.8736647 L48.75,32.5757576 L46.8491858,32.5757576 L46.8491858,28.8435095 L42.9176278,28.8435095 L42.9176278,32.5757576 L41.03125,32.5757576 L41.03125,24.8390151 L42.9176278,24.8390151 L42.9176278,27.8089739 L46.8491858,27.8089739 L46.8491858,24.8736647 L48.75,24.8736647 Z" id="Shape" fill="#000000" fill-rule="nonzero"></path>
                <path d="M2.13162821e-14,0 C17.6511519,0 30.875,5.12930523 30.875,11.1401341 C30.875,17.150963 17.1818093,22.9438328 2.13162821e-14,23.2102273 L2.13162821e-14,11.0820117 C9.16427678,10.4814131 15.5995925,8.51009377 15.5995925,5.86067927 C15.5995925,3.33235316 8.97073343,1.10432634 2.13162821e-14,0.150149634 L2.13162821e-14,0 Z M24.78125,6.71875 L22.6452342,6.20122314 L22.1308268,4.0719697 L21.6360158,6.20122314 L19.5,6.71875 L21.6360158,7.23627686 L22.1308268,9.36553032 L22.6452342,7.23627686 L24.78125,6.71875 Z" id="Shape" fill="#FC1921"></path>
            </g>
        </g>
    </g>
</svg>