<svg width="102" height="23" viewBox="0 0 102 23" xmlns="http://www.w3.org/2000/svg"><g fill="none" fill-rule="evenodd"><path d="M100.433 9.192s-.382.087-.43.038l.03-.024-.028-.029a.634.634 0 0 1-.063-.084.986.986 0 0 1-.41.1.48.48 0 0 1-.316-.121.6.6 0 0 1-.264.065.491.491 0 0 1-.268-.078.476.476 0 0 1-.285-.197.838.838 0 0 1-.121-.283.478.478 0 0 1-.45.005 1.488 1.488 0 0 1-.093-.053l-.005.009a.474.474 0 0 1-.502.255 1.03 1.03 0 0 1-.232-.066l-.023.015a.921.921 0 0 1-.033.065c-.06.271-.207.384-.334.43a.5.5 0 0 1-.15.031.47.47 0 0 1-.254.355.78.78 0 0 1-.254.406.477.477 0 0 1-.13.086 2.599 2.599 0 0 1-.28.518c-.12.161-.278.333-.489.502 2.77-.204 4.724-1.144 5.561-1.878.082-.072-.036.017-.177-.067" fill="#84BF41"/><path d="M101.827 6.655c.077 0-.054.172-.204.292a.517.517 0 0 1-.263.12s.008.113.102.084c.036-.01-.09.16-.173.237-.125.116.229.117.238.141.072.196-.064.234-.064.234s.097.026.314-.056c.126.04-.168.406-.256.498 0 0 .01.097.106.065.097-.032-.062.156-.307.304-.09.054-.092.138-.084.159-.13.087-.349.299-.445.09 0 0-.385.087-.432.036-.045-.05-.021-.116-.033-.134-.012-.018.02-.032.003-.034-.02-.002.014-.065-.001-.067-.017-.002-.108 0-.152-.02-.043-.018.011-.124-.013-.122a.842.842 0 0 0-.299.117c-.166.095-.265.118-.332.118 0 0-.075-.082-.12-.103-.045-.02.035-.106.01-.106s-.284.06-.377.115c-.092.056-.106.034-.106.034l-.032-.05c-.013-.022.01-.069-.004-.067-.011.002-.048.018-.068.024-.019.007-.04.032-.04.032-.001 0-.08-.11-.051-.218.037-.139.046-.401.029-.426-.018-.026-.162-.015-.406.04-.244.056-.318.17-.318.17s-.135-.07-.167-.123c-.032-.053-.05-.053-.05-.053s-.16-.003-.299.083a.734.734 0 0 0-.229.256s-.132-.021-.19-.074a.429.429 0 0 0-.166-.077s-.1.085-.275.197c-.125.081-.1.135-.167.237-.032.047-.033.183-.07.183 0 0-.002.02-.086-.021-.084-.04-.248-.03-.248-.03s-.067.054-.077.165c-.01.11-.047.101-.047.101-.02.042.015.184.006.195 0 0-.05.022-.105.025-.054.004-.086-.035-.133-.01-.046.026-.005.23-.005.23.02.127-.103.224-.117.237 0 0-.03.01-.05-.043-.023-.057-.116.02-.116.02s-.109.843-1.182 1.505c-.289.177-1.064.53-1.694 1.235l-3.206 3.825 4.157 6.295H89.99l-2.901-4.718v4.718H84.44V7.22l2.648-1.273v9.667l3.13-4.075h1.223c1.585 0 2.11-.316 2.11-.316.014-.008.414-.28.333-.542-.052-.104-.05-.096-.165-.2-.278-.254-2.164-1.705-2.312-2.74.058-.075.185-.107.185-.107s.016-.178-.032-.35c-.054-.193-.17-.39-.112-.525.152-.05.276.02.276.02s.086-.426-.06-.744c.1-.08.197.003.197.003s.012-.151.011-.322c-.002-.188-.054-.212-.04-.296.065-.062.155-.019.155-.019s.21-.367.225-.63c.102-.028.129.149.251.25.12.1.262.178.368.17 0 0 .09-.133.158-.285.044-.1.072-.212.084-.29.084-.039.21.083.21.083s.102-.186.166-.405c.042-.145-.05-.372.072-.39.032.001.065-.005.1.006a.358.358 0 0 1 .087.041s.105-.359.28-.455c.154-.085.138-.132.261-.22.032-.02.064-.017.139.057.072.071.19.215.19.215l.046-.052c.029-.031.068-.03.068-.03s.066-.02.045.033c-.02.05.058.175.058.175s.101-.062.186-.14a.64.64 0 0 0 .167-.23c.021-.045.079.051.112.101.03.046.037.089.037.089s.133-.154.22-.325c.069-.136.077-.34.11-.343.04-.049.146.093.174.105.015.007.072-.067.108-.157.028-.07.037-.146.05-.227.051-.042.097.046.097.046s.073-.02.148-.085c.046-.041.089-.113.131-.17.034-.048.145.116.2.214a.805.805 0 0 1 .113.342s.03-.012.063-.03a.18.18 0 0 0 .058-.045.29.29 0 0 1 .077.102.458.458 0 0 1 .037.112s.13-.059.15-.186c.017-.105.11-.21.109-.227-.004-.04.142.086.142.086s.084-.074.143-.206c.047-.107.072-.272.076-.306.01-.077.116.125.116.125s.105-.036.18-.092.148-.133.18-.173c.032-.04.047.077.112.122.045.031.056.19.056.19s.09-.016.137-.051c.047-.035.14.186.14.186s.219-.232.255-.443c.072-.001.096.093.106.11 0 0 .137-.089.28-.232.137-.138.212-.352.337-.357-.02.071.186.212.186.212s.222-.147.229-.357c.028-.048.093.066.093.066s.138-.084.207-.218c.165-.32.115-.296.145-.313.015-.024.164.176.164.176s.072-.12.058-.198c.009-.043.064.032.064.032s.094-.088.162-.19a.785.785 0 0 0 .102-.226c.008-.035.136.133.136.133s.118-.106.203-.245a.725.725 0 0 0 .106-.31c.021-.034.082.06.082.06s.321-.189.513-.186c.083-.008-.053.136-.067.16-.014.024-.22.18-.018.18.04 0-.028.168-.158.282-.1.087-.047.23-.047.23s.155.001.176.045c-.052.114.017.378-.175.475-.042.049.177.017.176.07 0 .052-.163.322-.43.475-.08.047.33.063.33.086.018.21-.336.551-.336.551s.087.136.24.12c.027-.003-.02.245-.09.378-.07.132.031.058.045.081.013.024-.1.225-.197.293-.096.068.048.068.077.098.03.03-.085.453-.085.453s.05.122.386-.009c.14-.045-.108.493-.108.493s.036.052.137.043c.07-.007.001.105-.1.199-.078.073-.19.132-.19.132s.012.101.158.066c.265-.064-.32.561-.32.561s.275-.002.227.033c-.048.034.034.191.034.191s.058.013.222-.053.116.367.116.367.014.01.075.003c.133-.014-.317.473-.317.473s.012.167.213.164zm-68.66.479c1.396 0 3.169.078 4.42 1.483.75.833 1.23 2.16 1.23 3.696 0 2.003-.855 3.33-1.793 4.137-1.439 1.223-3.544 1.223-4.357 1.223-.295 0-.539-.007-.776-.017l.993-2.042c1.119-.031 2.889-.324 2.889-3.12 0-2.368-1.022-3.304-3.127-3.304-.52 0-1.084.025-1.417.025v6.325h.002v2.082h-.002v4.898h-2.897V7.264c1.189 0 3.23-.13 4.835-.13zM19.205 20.989c1.675 0 4.452-1.258 4.452-5.809 0-4.017-2.29-6.34-4.833-6.34-2.99 0-4.474 2.783-4.474 5.857 0 3.969 2.29 6.292 4.855 6.292zM24.4 8.791c.89.824 2.332 2.663 2.332 6.003 0 5.493-3.943 8.107-7.992 8.107-5.427 0-7.484-4.26-7.484-7.89 0-2.734 1.04-4.646 2.587-6.05 1.865-1.694 3.773-2.009 5.66-2.009.509 0 3.074.12 4.897 1.84zM4.837 7.134c1.396 0 3.168.078 4.419 1.483.75.833 1.23 2.16 1.23 3.696 0 2.003-.855 3.33-1.793 4.137-1.438 1.223-3.544 1.223-4.357 1.223-.297 0-.542-.007-.781-.017l.993-2.042c1.12-.03 2.894-.32 2.894-3.12 0-2.368-1.02-3.304-3.127-3.304-.52 0-1.083.025-1.417.025v5.913h-.004l.001 2.642.003-.006v4.756H0V7.264c1.188 0 3.232-.13 4.837-.13zm78.472 4.405l-3.929 4.686 4.158 6.295h-3.544l-2.902-4.718v4.718h-2.647V7.22l2.647-1.273v9.667l3.131-4.075h3.086zM94.504 22.52v-9.624l2.689-1.357V22.52h-2.69zM69.969 11.253c1.23 0 1.917.806 2.23 1.404.417.78.417 1.796.417 3.123v6.74h-2.669v-5.985c0-1.77 0-2.707-1.187-2.707-1.043 0-1.981.807-2.335 1.145v7.547h-2.69v-9.65l2.69-1.331-.043 1.327c1.063-.86 2.315-1.613 3.587-1.613zM52.067 8.617c.751.833 1.23 2.16 1.23 3.696 0 2.003-.855 3.33-1.793 4.137-1.438 1.223-3.543 1.223-4.357 1.223a18 18 0 0 1-.78-.017l.993-2.042c1.119-.03 2.894-.32 2.894-3.12 0-2.368-1.021-3.304-3.127-3.304-.521 0-1.084.025-1.417.025v5.913h-.004l.001 2.642.003-.005v4.755h-2.9V7.264c1.188 0 3.232-.13 4.837-.13 1.397 0 3.168.078 4.42 1.483zm6.41 11.457v-2.472c-1.041.182-1.896.39-2.063.442-.647.182-.834.313-.834 1.197 0 .885.25 1.224 1.084 1.224.604 0 .938-.105 1.813-.391zm3.044.39c.199 0 .399-.034.584-.084l.611 1.51-.007.006c-.062.026-1.355.884-2.585.884-.96 0-1.25-.65-1.417-1.04-1.022.494-2.19 1.04-3.377 1.04-.605 0-2.293-.312-2.293-3.174 0-2.447.896-2.967 5.44-3.67 0-1.561 0-1.848-.271-2.134-.355-.364-.917-.39-1.167-.39-1.123 0-1.819.472-2.24.896l-.794-1.96c1.38-.9 2.939-1.095 3.743-1.095 1.917 0 2.793.91 3.065 1.613.312.832.312 1.561.29 2.706l-.062 3.93c-.02.624 0 .963.48.963z" fill="#009F4A"/></g></svg>