<svg width="90" height="18" viewBox="0 0 90 18" xmlns="http://www.w3.org/2000/svg"><path d="M85.98 2.39a1.619 1.619 0 1 1 3.238-.003 1.619 1.619 0 0 1-3.238.003zM45.658 5.587v.3c1.18.653 1.019 1.397 1.019 2.6v6.214c0 1.2.162 1.929-1.02 2.582v.316h4.48v-.319c-1.18-.652-1.017-1.35-1.017-2.553V10.55c0-1.891 1.111-3.483 3.096-3.483 2.17 0 2.994 1.309 2.994 3.67v3.99c0 1.175.162 1.903-1.02 2.556v.316h4.48v-.316c-1.18-.653-1.018-1.353-1.018-2.556v-4.89c0-3.953-2.845-4.586-4.75-4.586-1.563 0-3.051.776-3.782 2.008V5.25h-.31c-.565.312-.979.336-1.569.336h-1.583zM11.048.688A13.777 13.777 0 0 0 7.082.12C3.677.12.395 1.363.395 4.63c0 5.559 9.012 4.934 9.012 8.81 0 1.522-1.925 2.403-3.727 2.403-2.078 0-4.342-.835-5.68-2.091l.689 3.472c1.516.543 3.141.777 4.768.777 4.44 0 7.136-2.065 7.136-5.045 0-4.795-8.964-5.062-8.964-8.612 0-1.517 1.764-2.189 3.282-2.189 1.49 0 3.195.593 4.138 1.457V.688zm3.475 7.685c.224-.248.578-.447.866-.447h5.547c.293 0 .28.199.057.447l-.988 1.093c-.225.246-.59.446-.867.446h-5.55c-.272 0-.278-.2-.054-.446l.989-1.093zM59.913.417V.72c1.156.652.996 1.393.996 2.594V14.7c0 1.2.16 1.929-.996 2.582v.316h4.483v-.316c-1.209-.653-1.046-1.381-1.046-2.582V0h-.314c-.348.39-.76.417-1.349.417h-1.774zm7.92 15.72c.508.708 1.178 1.462 2.735 1.462h2.094c-1.21-.73-2.015-1.854-2.845-2.924l-3.275-4.046 4.48-5.042h-4.076v.304c.234.052.51.165.51.534 0 .654-.967 1.645-1.369 2.087l-2.225 2.378 3.97 5.248zm17.686-10.55v.301c1.182.654 1.019 1.37 1.019 2.571v6.242c0 1.2.163 1.927-1.019 2.58v.318H90v-.316c-1.18-.653-1.02-1.381-1.02-2.582v-9.53h-.311c-.455.392-.896.416-1.514.416H85.52zM22.018.417V.72c1.34.522 1.18 2.205 1.18 3.378v9.843c0 1.179.16 2.868-1.206 3.338v.319h5.34v-.319c-1.425-.782-1.399-1.586-1.399-3.05V2.37l1.886.007c2.24.01 3.83.943 3.83 3.241 0 2.293-1.873 3.648-4.827 3.648v.292c.473.207 1.327.306 1.999.32 3.09.057 5.793-1.888 5.793-4.892 0-2.923-2.589-4.57-6.076-4.57h-6.52zm-.882 8.78h.49c.285 0 .279.202.053.449l-.988 1.09c-.223.25-.581.451-.866.451h-5.548c-.279 0-.279-.2-.056-.45l.155-.169h5.061c.285 0 .641-.2.864-.447l.835-.925zM72.658.416V.72c1.153.652.993 1.393.993 2.594V14.7c0 1.2.16 1.929-.993 2.582v.316h4.482v-.316c-1.21-.653-1.05-1.381-1.05-2.582V0h-.312c-.349.39-.758.417-1.35.417h-1.77zm7.894 15.72c.51.708 1.18 1.462 2.736 1.462h2.092c-1.206-.73-2.012-1.854-2.843-2.924l-3.272-4.046 4.479-5.042h-4.078v.304c.234.052.51.165.51.534 0 .654-.966 1.645-1.37 2.087l-2.224 2.378 3.97 5.248zm-34.886-.064c-2.299 0-2.561-.543-2.561-2.895l.044-3.753c0-3.464-1.932-4.177-4.82-4.177-.477 0-2.472-.026-2.704.822-.325 1.194-.847 1.956-.847 1.956a6.664 6.664 0 0 1 3.47-.942c.994 0 2.453.306 2.453 1.411 0 2.696-7.932 1.364-7.932 5.856 0 2.31 1.862 3.588 4.506 3.588.455 0 .535.01 1.262-.003l1.52-1.856c-.773.008-.952-.001-1.596-.001-1.84 0-2.977-.425-2.977-1.868 0-1.209 1.503-1.782 2.765-2.08.994-.231 1.849-.414 2.458-.886v3.978c0 2.088 1.62 2.667 3.472 2.667l1.487-1.817z" fill="#5B8F22"/></svg>