<svg width="153" height="26" viewBox="0 0 153 26" xmlns="http://www.w3.org/2000/svg"><path d="M13.792 12.093h3.163c-1.577 1.221-2.53 3.087-2.53 5.085 0 2.01.962 3.882 2.553 5.1H7.127c1.59-1.217 2.55-3.09 2.55-5.1 0-1.996-.953-3.863-2.531-5.085h3.162c1.061 1.467 1.69 3.222 1.69 5.085h.094c0-1.857.64-3.612 1.7-5.085zM5.89 5.756C5.936 2.636 8.757 0 12.05 0c3.298 0 6.12 2.636 6.165 5.756l.002.102.102.001c3.134.046 5.782 2.853 5.782 6.13a6.176 6.176 0 0 1-1.84 4.412 6.256 6.256 0 0 1-4.445 1.833 6.29 6.29 0 0 1-1.868-.302c-.012-.12-.068-.753-.068-.753 0-.734.155-1.412.457-2.077a3.29 3.29 0 0 0 1.48.344c.929 0 1.8-.36 2.456-1.015a3.426 3.426 0 0 0 1.02-2.443c0-.924-.362-1.793-1.018-2.443a3.445 3.445 0 0 0-2.455-1.01c-.875 0-1.406.158-1.961.351l-1.14.45.451-1.14c.195-.555.354-1.086.354-1.946 0-.923-.36-1.79-1.018-2.446a3.455 3.455 0 0 0-2.457-1.012c-.926 0-1.796.36-2.449 1.012A3.43 3.43 0 0 0 8.58 6.25c0 .87.166 1.417.353 1.947 0 0 .327.82.452 1.139-.39-.155-1.142-.45-1.142-.45-.531-.186-1.083-.351-1.957-.351-.93 0-1.804.358-2.458 1.01a3.413 3.413 0 0 0-1.016 2.443c0 .92.36 1.786 1.017 2.443a3.464 3.464 0 0 0 2.459 1.015c.54 0 1.024-.122 1.48-.344a4.96 4.96 0 0 1 .456 2.077l-.066.753a6.324 6.324 0 0 1-1.87.302A6.27 6.27 0 0 1 1.84 16.4 6.192 6.192 0 0 1 0 11.988C0 8.712 2.649 5.905 5.784 5.86l.104-.001.001-.102zM32.856 21.89c-2.314 0-4.31-.993-5.649-2.55l1.701-1.648c1.067 1.151 2.632 1.873 4.13 1.873 2.223 0 3.29-.767 3.29-2.302 0-1.219-.932-1.828-3.585-2.619-3.358-.993-4.969-1.827-4.969-4.649 0-2.731 2.315-4.4 5.241-4.4 2.155 0 3.789.789 5.196 2.143l-1.68 1.693c-.997-1.016-2.133-1.513-3.698-1.513-1.86 0-2.655.902-2.655 1.964 0 1.105.727 1.648 3.472 2.46 3.131.948 5.082 1.942 5.082 4.763 0 2.844-1.815 4.785-5.876 4.785zm14.814-.248V20.47c-.817.813-1.973 1.422-3.267 1.422-1.93 0-4.13-1.084-4.13-3.997 0-2.64 2.042-3.837 4.742-3.837 1.113 0 1.997.16 2.655.452v-.88c0-1.287-.794-2.01-2.246-2.01-1.225 0-2.178.227-3.109.746l-.906-1.76c1.133-.7 2.404-1.062 4.083-1.062 2.655 0 4.47 1.287 4.47 3.974v8.125H47.67zM43.223 8.325c-.839 0-1.543-.7-1.543-1.513 0-.834.704-1.534 1.543-1.534.817 0 1.52.7 1.52 1.534 0 .813-.703 1.513-1.52 1.513zm4.447 8.262c-.635-.317-1.452-.52-2.723-.52-1.497 0-2.45.677-2.45 1.762 0 1.173.749 1.964 2.292 1.964 1.247 0 2.337-.768 2.881-1.513v-1.693zm-.023-8.262c-.84 0-1.543-.7-1.543-1.513 0-.834.704-1.534 1.543-1.534.817 0 1.521.7 1.521 1.534 0 .813-.704 1.513-1.521 1.513zm11.345 13.318V20.47c-.817.813-1.974 1.422-3.267 1.422-1.928 0-4.13-1.084-4.13-3.997 0-2.64 2.042-3.837 4.743-3.837 1.112 0 1.995.16 2.654.452v-.88c0-1.287-.794-2.01-2.247-2.01-1.225 0-2.178.227-3.108.746l-.907-1.76c1.134-.7 2.404-1.062 4.084-1.062 2.654 0 4.47 1.287 4.47 3.974v8.125h-2.292zM54.545 8.325c-.84 0-1.543-.7-1.543-1.513 0-.834.703-1.534 1.543-1.534.817 0 1.52.7 1.52 1.534 0 .813-.703 1.513-1.52 1.513zm4.447 8.262c-.636-.317-1.452-.52-2.723-.52-1.497 0-2.45.677-2.45 1.762 0 1.173.748 1.964 2.29 1.964 1.25 0 2.339-.768 2.883-1.513v-1.693zm-.024-8.262c-.839 0-1.541-.7-1.541-1.513 0-.834.702-1.534 1.541-1.534.818 0 1.521.7 1.521 1.534 0 .813-.703 1.513-1.52 1.513zm8.395 13.566c-1.61 0-3.358-.632-4.56-1.512l1.066-1.76c1.112.767 2.36 1.173 3.472 1.173 1.474 0 2.178-.473 2.178-1.31 0-.902-1.044-1.33-2.768-1.985-2.564-.994-3.494-1.852-3.494-3.724 0-2.122 1.679-3.23 4.06-3.23 1.498 0 2.973.542 4.039 1.311l-1.02 1.783c-.976-.678-1.952-1.016-3.086-1.016-1.135 0-1.633.451-1.633 1.083 0 .587.408 1.016 2.2 1.716 2.655 1.016 4.015 1.738 4.015 3.973 0 2.618-2.132 3.498-4.469 3.498zm12.046-.541c-.567.315-1.36.541-2.292.541-1.656 0-2.677-1.015-2.677-3.136v-6.84h-1.7V9.793h1.701V6.406l2.292-1.219v4.606h2.95v2.122h-2.95v6.434c0 1.105.363 1.421 1.225 1.421.612 0 1.294-.226 1.725-.474l-.273 2.054zm6.761.541c-2.994 0-5.24-2.46-5.24-6.163 0-3.88 2.314-6.184 5.309-6.184 3.04 0 5.309 2.415 5.309 6.118 0 3.927-2.315 6.23-5.378 6.23zm-2.2-13.453c-.84 0-1.543-.7-1.543-1.512 0-.835.704-1.536 1.543-1.536.816 0 1.52.7 1.52 1.536 0 .813-.704 1.512-1.52 1.512zm2.178 3.318c-1.77 0-2.859 1.557-2.859 3.906 0 2.595 1.202 4.017 2.972 4.017s2.927-1.783 2.927-3.95c0-2.416-1.157-3.973-3.04-3.973zm2.245-3.318c-.839 0-1.541-.7-1.541-1.512 0-.835.702-1.536 1.541-1.536.818 0 1.52.7 1.52 1.536 0 .813-.702 1.512-1.52 1.512zm10.31 13.453c-1.202 0-2.337-.632-2.995-1.354v4.267L93.394 26V9.792h2.314v1.129c.862-.79 1.86-1.377 3.109-1.377 2.564 0 4.583 1.85 4.583 6.366 0 4.062-2.224 5.981-4.696 5.981zm-.317-10.203c-1.113 0-2.087.746-2.7 1.513v4.987c.522.701 1.61 1.56 2.79 1.56 1.68 0 2.586-1.265 2.586-3.77 0-2.98-.953-4.29-2.676-4.29zm13.701 9.955V20.47c-.817.813-1.973 1.422-3.267 1.422-1.927 0-4.13-1.084-4.13-3.997 0-2.64 2.043-3.837 4.743-3.837 1.112 0 1.996.16 2.654.452v-.88c0-1.287-.793-2.01-2.246-2.01-1.225 0-2.178.227-3.108.746l-.908-1.76c1.135-.7 2.405-1.062 4.085-1.062 2.654 0 4.47 1.287 4.47 3.974v8.125h-2.293zm0-5.056c-.635-.317-1.451-.52-2.722-.52-1.498 0-2.451.677-2.451 1.762 0 1.173.749 1.964 2.291 1.964 1.249 0 2.338-.768 2.882-1.513v-1.693zm11.885 5.056V14.94c0-2.392-.908-3.25-2.45-3.25-1.566 0-2.451 1.106-2.451 3.025v6.93h-2.336V9.791h2.336v1.129c.59-.858 1.77-1.377 2.995-1.377 2.768 0 4.242 1.807 4.242 5.304v6.795h-2.336zm11.467 0l-2.632-5.891-1.815 2.392v3.5h-2.337V6.405l2.337-1.219v7.472c0 .722-.023 1.942-.023 2.529.317-.474.908-1.377 1.317-1.942l2.472-3.454h2.654l-3.017 3.974 3.584 7.877h-2.54zm10.807 0l-2.632-5.891-1.815 2.392v3.5h-2.337V6.405l2.337-1.219v7.472c0 .722-.023 1.942-.023 2.529.317-.474.909-1.377 1.316-1.942l2.473-3.454h2.654l-3.017 3.974 3.585 7.877h-2.541zm5.256-13.385c-.84 0-1.52-.677-1.52-1.49 0-.836.68-1.513 1.52-1.513.817 0 1.498.677 1.498 1.513 0 .813-.68 1.49-1.498 1.49zm1.157 13.385h-2.337V9.793h2.337v11.85z" fill="#00B5D1" fill-rule="evenodd"/></svg>