<svg width="57" height="48" xmlns="http://www.w3.org/2000/svg"><path d="M15.14 32.732h-2.744l-1.445-4.037H4.09l-1.42 4.037H0l6.173-17.027h2.72l6.247 17.027zm-4.973-6.324l-1.372-3.916c-.417-1.216-1.103-3.187-1.299-3.916-.196.73-.808 2.675-1.25 3.94l-1.37 3.892h5.29zm18.056 6.324h-2.744l-2.842-6.348-1.96 2.578v3.77h-2.523V16.313L20.677 15v8.051c0 .779-.024 2.092-.024 2.725.343-.511 1.004-1.484 1.42-2.092l2.671-3.722h2.866l-3.258 4.281 3.87 8.49zm9.013-2.53l-.294 2.214c-.612.34-1.47.584-2.474.584-1.789 0-2.891-1.095-2.891-3.381v-7.37H29.74v-2.287h1.837v-3.649L34.051 15v4.962h3.185v2.287h-3.185v6.932c0 1.192.392 1.532 1.323 1.532.662 0 1.397-.243 1.862-.51zm6.44-13.5c0 .876-.734 1.606-1.616 1.606-.907 0-1.642-.73-1.642-1.605 0-.9.735-1.63 1.642-1.63.882 0 1.617.73 1.617 1.63zm-.367 16.03h-2.523v-12.77h2.523v12.77zm13.691 0h-2.474v-1.264c-.882.875-2.132 1.532-3.528 1.532-2.082 0-4.459-1.168-4.459-4.305 0-2.846 2.205-4.136 5.12-4.136 1.2 0 2.156.17 2.867.487v-.949c0-1.386-.858-2.165-2.426-2.165-1.323 0-2.351.244-3.356.803l-.98-1.897c1.225-.754 2.597-1.143 4.41-1.143 2.866 0 4.826 1.386 4.826 4.28v8.757zm-2.474-3.624v-1.824c-.686-.34-1.568-.56-2.94-.56-1.617 0-2.646.73-2.646 1.898 0 1.264.809 2.116 2.475 2.116 1.347 0 2.523-.827 3.11-1.63z" fill="#009430" fill-rule="evenodd"/></svg>