<svg height="48" viewBox="0 0 51 48" width="51" xmlns="http://www.w3.org/2000/svg"><path d="m51 32.7272495v-7.9364595c0-2.7545323-1.789569-4.4452941-4.8261933-4.4452941-2.4672922 0-4.3652015 1.5545526-4.7176754 3.6271958h2.6028571c.2982023-.845432.9759508-1.3091359 2.0605466-1.3091359 1.5454607 0 2.3046548.9546139 2.3046548 2.1818251v.9816923c-.4880642-.3543942-1.708098-.7361734-2.7926937-.7361734-2.6571288 0-4.6904507 1.6089904-4.6904507 3.8999719 0 2.4818073 2.0333219 3.9543841 4.5007664 3.9543841 1.3556241 0 2.5756578-.4907568 2.982378-.8998698v.6818635zm-2.5758102-3.2182362c-.2982022.7636606-1.382671 1.227339-2.4672667 1.227339-1.2200338 0-2.4944916-.5184227-2.4944916-1.7454806 0-1.1999796 1.2744578-1.7181467 2.4944916-1.7181467 1.0845957 0 2.1690645.4635762 2.4672667 1.2272367zm-8.7168666-12.5453477c0-.9274079-.7862412-1.663709-1.6810257-1.663709s-1.6810256.7363011-1.6810256 1.663709c0 .9272546.7862411 1.6635303 1.6810256 1.6635303s1.6810257-.7362757 1.6810257-1.6635303zm-6.92072 16.0363344c.8405382 0 1.57266-.1635941 2.0334995-.4363446v-2.4818073c-.3795209.2725973-1.0031501.4907823-1.5454353.4907823-.8947845 0-1.4369173-.4363446-1.4369173-1.4181646v-6.2727505h2.7111974v-2.2636222h-2.7111974v-3.2454678h-2.7114005v3.2454678h-1.8979092v2.2636222h1.8979092v6.5728603c0 2.4000103 1.5183884 3.5454244 3.6602536 3.5454244zm-10.6825584-7.1454141 5.1243956-5.2364928h-3.4704169l-4.7178278 4.9637423v-10.5818354h-2.7112227v17.7272495h2.7112227v-4.009256l1.1116681-1.1452864 3.9856806 5.1545424h3.2807326zm-9.4693055 6.8726636h2.8740124l-6.39870098-16.7454295h-2.71137511l-6.39867561 16.7454295h2.84678768l1.70822498-4.6364008h6.37165404zm-2.6300564-7.091002h-4.5550381l2.27760792-6.1908002zm26.6658382 7.091002h2.7113751v-12.1091564h-2.7113751z" fill="#0a0b09" fill-rule="evenodd"/></svg>