<svg width="72" height="48" xmlns="http://www.w3.org/2000/svg"><path d="M60.877 16.662a87.513 87.513 0 0 0-.415 2.304h2.723c.077 0 .103-.026.13-.105.129-.76.258-1.518.414-2.252.026-.157-.026-.13-.13-.13h-2.514c-.156 0-.182.078-.208.183zM16.08 18.154c.026-.366.052-.759.052-1.23-.052-.603-.104-1.179-.234-1.755-.389-1.57-1.166-2.932-2.385-4.006a8.678 8.678 0 0 0-2.177-1.413 8.764 8.764 0 0 0-2.956-.734c-.596-.052-1.192.027-1.789.158-.907.183-1.762.55-2.566 1.02a9.413 9.413 0 0 0-2.126 1.807A7.861 7.861 0 0 0 .681 13.94c-.441.969-.623 1.99-.674 3.037-.026.628.026 1.23.13 1.833.103.733.336 1.44.647 2.094.311.629.7 1.205 1.167 1.755.467.55.96 1.02 1.53 1.44.388.314.83.55 1.244.785.052.026.104.053.104.131v4.11c0 .158-.052.132-.182.132H2.055c-.39-.026-.778 0-1.167 0-.104 0-.13.026-.13.13v3.221c.052.079.13.053.182.053h13.973c.052 0 .13.026.182-.053v-3.142c0-.104-.026-.157-.156-.157h-3.733c-.104 0-.156 0-.156-.13v-4.033c0-.105.052-.157.13-.183.285-.105.57-.262.856-.42.881-.523 1.685-1.177 2.333-1.989a7.652 7.652 0 0 0 1.192-2.042 8.16 8.16 0 0 0 .519-2.357zm12.884 7.305c0-.104.052-.21.052-.262.13-.602.233-1.23.363-1.859.026-.13-.026-.13-.104-.13H25.31c-.104 0-.208 0-.182-.158.13-.523.208-1.047.311-1.57.156-.76.312-1.493.441-2.252.026-.157.078-.21.234-.21h4.122c.155 0 .181-.078.207-.21.052-.366.155-.732.207-1.125.052-.367.182-.76.182-1.152-.052-.052-.13-.026-.182-.026h-7.155c-.052 0-.13-.026-.181.052-.052.262-.078.524-.13.786a8.285 8.285 0 0 1-.13.785 194.01 194.01 0 0 0-.31 1.623c-.104.576-.208 1.126-.312 1.702l-.31 1.571c-.13.681-.26 1.388-.39 2.069-.13.654-.259 1.335-.389 2.016a47.908 47.908 0 0 1-.337 1.885l-.388 2.042c-.13.576-.234 1.152-.337 1.728h2.877c.104 0 .182 0 .182-.157 0-.078 0-.157.026-.235.155-.76.31-1.493.44-2.226.156-.76.285-1.492.415-2.252.13-.654.285-1.335.389-2.016.026-.183.078-.21.233-.21h3.889c.155 0 .233-.025.233-.209zm9.177-.864c.026-.445 0-.916-.155-1.387-.13-.603-.415-1.152-.96-1.519-.57-.393-1.192-.524-1.84-.55-.389-.026-.778 0-1.167.026a5.05 5.05 0 0 0-1.633.445c-.83.393-1.4 1.048-1.84 1.86-.363.68-.597 1.413-.778 2.173-.285 1.152-.519 2.304-.596 3.482-.052.628-.052 1.257.103 1.859.156.576.441 1.1.96 1.44.492.34 1.062.497 1.659.524.544.026 1.089.052 1.633-.053.467-.078.881-.235 1.296-.419.415-.183.726-.471 1.063-.733.26-.21.467-.497.648-.785.389-.602.622-1.23.804-1.912.026-.104-.026-.104-.104-.104H34.59c-.052 0-.078.026-.104.104-.052.236-.104.498-.207.733-.156.393-.363.76-.726.995-.519.315-1.193.236-1.4-.366a2.438 2.438 0 0 1-.13-.969c.026-.34.052-.707.104-1.047l.156-.786h5.184c.078 0 .182.026.234-.052 0-.026.026-.079.026-.131.052-.419.155-.864.233-1.283.104-.524.156-1.021.181-1.545zm9.618-.523c.104-.472.182-.943.104-1.388-.13-.707-.596-1.178-1.27-1.388-.44-.157-.908-.157-1.374-.078a2.822 2.822 0 0 0-1.815 1.047c-.078.105-.181.183-.285.314.104-.419.156-.785.233-1.152 0-.026-.026-.026-.026-.026H40.63c-.13 0-.155.078-.155.157-.026.183-.052.34-.078.524a48.08 48.08 0 0 0-.337 1.675l-.311 1.65c-.104.497-.182.969-.285 1.466-.104.629-.234 1.23-.337 1.86-.13.628-.234 1.23-.363 1.858l-.39 2.042c-.025.105 0 .131.104.131h2.593c.104 0 .13-.026.155-.13.052-.158.078-.34.104-.524l.311-1.65c.104-.55.208-1.126.311-1.675.104-.55.208-1.126.311-1.676.078-.471.156-.969.26-1.44.13-.576.181-1.152.415-1.702.181-.393.414-.707.855-.812.337-.052.648-.078.907.21.156.157.182.366.208.576.026.445-.078.89-.156 1.335-.103.628-.233 1.23-.363 1.859l-.31 1.65c-.156.759-.286 1.492-.442 2.251-.103.55-.207 1.126-.31 1.702h2.721c.104 0 .104-.052.13-.13.026-.21.078-.393.104-.603.155-.864.31-1.702.466-2.566.078-.471.182-.969.26-1.44.13-.707.259-1.388.389-2.095.103-.602.259-1.23.362-1.832zm9.567.261c.103-.47.207-.942.259-1.466-.026-.707-.493-1.309-1.089-1.57-.493-.21-1.011-.236-1.555-.158a2.715 2.715 0 0 0-1.634.812l-.492.497c.052-.34.103-.654.181-.969.026-.078.026-.13-.104-.13h-2.618c-.052 0-.078.026-.104.104-.077.42-.155.812-.233 1.23-.104.498-.181.97-.285 1.467-.104.629-.207 1.23-.337 1.86a56.227 56.227 0 0 0-.44 2.225c-.156.733-.26 1.492-.416 2.225a61.188 61.188 0 0 0-.414 2.121c-.052.157.026.131.103.131h2.515c.156.026.181-.052.207-.183a6.16 6.16 0 0 1 .104-.681c.156-.76.311-1.492.44-2.226.13-.68.234-1.387.364-2.068.103-.628.233-1.257.363-1.885.103-.55.155-1.1.363-1.624.259-.654.622-1.02 1.374-.942.388.026.57.288.622.68.052.446-.052.89-.13 1.336-.104.524-.207 1.073-.31 1.597-.105.576-.208 1.126-.312 1.702-.13.628-.233 1.23-.363 1.859a30.12 30.12 0 0 1-.285 1.492l-.156.786c0 .052-.052.157.104.157h2.644c.078 0 .104 0 .104-.079.078-.497.156-.995.26-1.492.129-.628.233-1.23.362-1.859.078-.497.156-.969.26-1.466.103-.524.207-1.074.31-1.624.104-.628.208-1.256.338-1.859zm5.47-2.801c.026-.157-.026-.157-.156-.21h-2.515c-.13 0-.155.053-.181.157-.078.472-.182.97-.26 1.44l-.31 1.65c-.156.76-.311 1.493-.441 2.252-.104.628-.208 1.23-.337 1.859l-.389 2.042c-.13.628-.233 1.257-.363 1.86-.026.13 0 .156.104.156h2.592c.078 0 .104 0 .13-.105.104-.576.233-1.125.337-1.701l.389-2.043.466-2.513c.182-.838.337-1.702.493-2.54.13-.76.285-1.545.44-2.304zm8.866 4.818c.13-.629.259-1.283.259-1.938.078-.524.13-1.021 0-1.545-.13-.628-.518-1.073-1.089-1.335-.518-.236-1.089-.34-1.659-.367-.726-.052-1.452-.052-2.152.131-.881.236-1.633.681-2.151 1.466a4.724 4.724 0 0 0-.7 1.886h2.54c.26 0 .234 0 .285-.262.078-.34.182-.707.39-.995.31-.445.751-.498 1.244-.445.13 0 .285.052.389.157.337.288.259.654.233 1.021-.052.393-.156.76-.208 1.152-.025.157-.077.183-.207.183-.493 0-.96-.026-1.452.026-.44.053-.881.105-1.296.21-1.27.34-2.152 1.1-2.644 2.33a7.16 7.16 0 0 0-.441 1.78c-.078.577-.078 1.127.052 1.676.181.681.57 1.179 1.244 1.388.519.183 1.063.157 1.608.026.674-.157 1.244-.55 1.71-1.073.156-.184.286-.393.493-.576-.052.523-.104.995-.155 1.545.077-.079.155-.053.233-.053h2.255c.052 0 .156.053.156-.078.026-.262.052-.524.078-.76.026-.314.052-.654.103-.968.078-.498.182-.97.286-1.467l.31-1.65c.078-.497.208-.968.286-1.465zm-61.597-9.19c1.297 0 2.593 0 3.863-.027h.156c-.519.89-1.011 1.78-1.53 2.67-.7 1.231-1.426 2.462-2.126 3.693-.078.078-.052.157-.052.235v5.315c0 .184-.051.236-.233.236H5.606c-.207 0-.233-.052-.233-.236v-5.131c0-.079.026-.158-.026-.21-.052-.288-.207-.524-.337-.76-.337-.68-.7-1.36-1.063-2.042-.492-.942-.985-1.91-1.478-2.853a27.696 27.696 0 0 1-.466-.89h4.044c.104 0 .181.025.233.13.57 1.074 1.115 2.121 1.685 3.195l.026.026c.519-.917 1.037-1.807 1.556-2.697.104-.183.207-.34.285-.524.052-.105.13-.13.233-.13zm24.94 6.126c.259.157.337.419.363.707.077.576-.052 1.152-.156 1.702-.026.052-.052.105-.13.105h-2.488c.103-.445.181-.89.337-1.31.155-.445.337-.864.726-1.125.44-.315.985-.315 1.348-.079zm32.535 4.058a8.732 8.732 0 0 1 1.166-.078c-.077.471-.181.943-.259 1.388-.13.68-.337 1.309-.752 1.859a1.179 1.179 0 0 1-.881.497c-.13 0-.26.026-.389 0-.337-.052-.518-.288-.57-.602a3.738 3.738 0 0 1 .44-2.304c.26-.472.7-.681 1.245-.76z" fill="#004921"/></svg>