<?xml version="1.0" encoding="UTF-8"?>
<svg width="136px" height="48px" viewBox="0 0 136 48" version="1.1" xmlns="http://www.w3.org/2000/svg" xmlns:xlink="http://www.w3.org/1999/xlink">
    <!-- Generator: Sketch 52.3 (67297) - http://www.bohemiancoding.com/sketch -->
    <title>Optical/Lähitapiola</title>
    <desc>Created with Sketch.</desc>
    <g id="Optical/Lähitapiola" stroke="none" stroke-width="1" fill="none" fill-rule="evenodd">
        <path d="M39.6956197,31.9552233 C39.6956197,32.1279984 39.6956197,32.3007735 39.6608828,32.4389936 C39.6608828,32.5772137 39.6261459,32.6808787 39.5914089,32.7499888 C39.556672,32.8190988 39.5219351,32.8882088 39.4871982,32.9227639 C39.4524612,32.9573189 39.3829874,32.9918739 39.3135135,32.9918739 L33.7556057,32.9918739 C33.5471842,32.9918739 33.3734996,32.9227639 33.2345519,32.8190988 C33.0956042,32.7154337 33.0261303,32.5081036 33.0261303,32.2316634 L33.0261303,21.2777218 C33.0261303,21.2086118 33.0608672,21.1740568 33.0956042,21.1049467 C33.1303411,21.0703917 33.1998149,21.0012816 33.3040257,21.0012816 C33.4082365,20.9667266 33.5124473,20.9321716 33.6861319,20.9321716 C33.8598165,20.8976166 34.0335011,20.8976166 34.2766596,20.8976166 C34.519818,20.8976166 34.7282396,20.8976166 34.8671873,20.9321716 C35.006135,20.9667266 35.1450827,20.9667266 35.2492934,21.0012816 C35.3535042,21.0358367 35.4229781,21.0703917 35.457715,21.1049467 C35.4924519,21.1395017 35.5271888,21.2086118 35.5271888,21.2777218 L35.5271888,30.9531277 L39.3482505,30.9531277 C39.4177243,30.9531277 39.4524612,30.9531277 39.5219351,30.9876827 C39.556672,31.0222377 39.5914089,31.0913478 39.6261459,31.1604578 C39.6608828,31.2295678 39.6956197,31.3332329 39.6956197,31.471453 L39.6956197,31.9552233 Z M48.9356414,18.7206503 C48.9356414,19.1698655 48.8314307,19.4463057 48.657746,19.6190808 C48.4840614,19.7918559 48.1714291,19.895521 47.6851122,19.895521 C47.1987952,19.895521 46.8861629,19.8264109 46.7124783,19.6536358 C46.5387937,19.4808607 46.4693198,19.2044206 46.4693198,18.7552053 C46.4693198,18.30599 46.5387937,17.9949948 46.7124783,17.8222197 C46.8861629,17.6494446 47.1987952,17.5803346 47.6851122,17.5803346 C48.1714291,17.5803346 48.4840614,17.6494446 48.657746,17.8222197 C48.8661676,17.9949948 48.9356414,18.271435 48.9356414,18.7206503 Z M45.496686,23.247358 L43.7598398,28.3615011 L47.1987952,28.3615011 L45.496686,23.247358 Z M44.8366844,18.7206503 C44.8366844,19.1698655 44.7672106,19.4463057 44.593526,19.6190808 C44.4198413,19.7918559 44.107209,19.895521 43.6208921,19.895521 C43.1345752,19.895521 42.8219428,19.8264109 42.6482582,19.6536358 C42.4745736,19.4808607 42.4050998,19.2044206 42.4050998,18.7552053 C42.4050998,18.30599 42.5093105,17.9949948 42.6829951,17.8222197 C42.8566798,17.6494446 43.1693121,17.5803346 43.655629,17.5803346 C44.1419459,17.5803346 44.4545783,17.6494446 44.6282629,17.8222197 C44.7672106,17.9949948 44.8366844,18.271435 44.8366844,18.7206503 Z M51.0545938,32.0588883 C51.1240676,32.2662185 51.1935415,32.4735486 51.1935415,32.5772137 C51.2282784,32.7154337 51.1935415,32.8190988 51.1240676,32.8536538 C51.0545938,32.9227639 50.950383,32.9573189 50.7766984,32.9918739 C50.6030138,32.9918739 50.3598553,33.0264289 50.047223,33.0264289 L49.3177476,33.0264289 C49.144063,33.0264289 49.0051153,32.9918739 48.9009045,32.9573189 C48.7966937,32.9227639 48.7272199,32.8882088 48.692483,32.8536538 C48.657746,32.8190988 48.6230091,32.7499888 48.5882722,32.6463237 L47.7893229,30.2274722 L43.2387859,30.2274722 L42.4745736,32.5772137 C42.4398367,32.6808787 42.4050998,32.7499888 42.3703628,32.7845438 C42.3356259,32.8536538 42.2661521,32.8882088 42.1619413,32.9227639 C42.0577305,32.9573189 41.9535197,32.9918739 41.7798351,32.9918739 C41.6061505,32.9918739 41.397729,33.0264289 41.1198336,33.0264289 C40.8419382,33.0264289 40.5987797,33.0264289 40.459832,32.9918739 C40.2861474,32.9918739 40.1819366,32.9227639 40.1124628,32.8536538 C40.0429889,32.7845438 40.0429889,32.6808787 40.0429889,32.5426586 C40.0777259,32.4044385 40.1124628,32.2316634 40.1819366,32.0243333 L43.8987875,21.3468319 C43.9335244,21.2431668 43.9682613,21.1395017 44.0377352,21.1049467 C44.0724721,21.0358367 44.1766829,21.0012816 44.2808936,20.9667266 C44.3851044,20.9321716 44.5240521,20.8976166 44.7324737,20.8976166 L46.3651091,20.8976166 C46.5735306,20.8976166 46.7472152,20.9321716 46.8861629,20.9667266 C46.9903737,21.0012816 47.0945845,21.0358367 47.1640583,21.1049467 C47.2335322,21.1740568 47.2682691,21.2777218 47.303006,21.3813869 L51.0545938,32.0588883 Z M62.2051463,32.6463237 C62.2051463,32.7154337 62.1704094,32.7499888 62.1356725,32.8190988 C62.1009356,32.8536538 62.0314617,32.9227639 61.9272509,32.9227639 C61.8230402,32.9573189 61.7188294,32.9918739 61.5451448,32.9918739 C61.4061971,33.0264289 61.1977755,33.0264289 60.9546171,33.0264289 C60.7114586,33.0264289 60.5030371,33.0264289 60.3640894,32.9918739 C60.1904048,32.9918739 60.086194,32.9573189 59.9819832,32.9227639 C59.8777724,32.8882088 59.8430355,32.8536538 59.7735617,32.8190988 C59.7388247,32.7845438 59.7040878,32.7154337 59.7040878,32.6463237 L59.7040878,27.7740657 L55.1882877,27.7740657 L55.1882877,32.6463237 C55.1882877,32.7154337 55.1535508,32.7499888 55.1188139,32.8190988 C55.084077,32.8536538 55.0146031,32.9227639 54.9103923,32.9227639 C54.8061816,32.9573189 54.7019708,32.9918739 54.5282862,32.9918739 C54.3546016,33.0264289 54.1809169,33.0264289 53.9377585,33.0264289 C53.6946,33.0264289 53.4861785,33.0264289 53.3472308,32.9918739 C53.1735461,32.9918739 53.0693354,32.9573189 52.9651246,32.9227639 C52.8609138,32.8882088 52.79144,32.8536538 52.7567031,32.8190988 C52.7219661,32.7845438 52.6872292,32.7154337 52.6872292,32.6463237 L52.6872292,21.2777218 C52.6872292,21.2086118 52.7219661,21.1740568 52.7567031,21.1049467 C52.79144,21.0703917 52.8609138,21.0012816 52.9651246,21.0012816 C53.0693354,20.9667266 53.1735461,20.9321716 53.3472308,20.9321716 C53.5209154,20.8976166 53.6946,20.8976166 53.9377585,20.8976166 C54.1809169,20.8976166 54.3893385,20.8976166 54.5282862,20.9321716 C54.6672339,20.9667266 54.8061816,20.9667266 54.9103923,21.0012816 C55.0146031,21.0358367 55.084077,21.0703917 55.1188139,21.1049467 C55.1535508,21.1395017 55.1882877,21.2086118 55.1882877,21.2777218 L55.1882877,25.7007645 L59.7040878,25.7007645 L59.7040878,21.2777218 C59.7040878,21.2086118 59.7388247,21.1740568 59.7735617,21.1049467 C59.8082986,21.0703917 59.8777724,21.0012816 59.9819832,21.0012816 C60.086194,20.9667266 60.1904048,20.9321716 60.3640894,20.9321716 C60.537774,20.8976166 60.7114586,20.8976166 60.9546171,20.8976166 C61.1977755,20.8976166 61.4061971,20.8976166 61.5451448,20.9321716 C61.6840925,20.9667266 61.8230402,20.9667266 61.9272509,21.0012816 C62.0314617,21.0358367 62.1009356,21.0703917 62.1356725,21.1049467 C62.1704094,21.1395017 62.2051463,21.2086118 62.2051463,21.2777218 L62.2051463,32.6463237 Z M67.3114741,32.6463237 C67.3114741,32.7154337 67.2767372,32.7499888 67.2420003,32.8190988 C67.2072634,32.8536538 67.1377895,32.9227639 67.0335787,32.9227639 C66.929368,32.9573189 66.8251572,32.9918739 66.6514726,32.9918739 C66.5125249,33.0264289 66.3041033,33.0264289 66.0609449,33.0264289 C65.8177864,33.0264289 65.6093649,33.0264289 65.4704172,32.9918739 C65.2967326,32.9918739 65.1925218,32.9573189 65.088311,32.9227639 C64.9841002,32.8882088 64.9146264,32.8536538 64.8798895,32.8190988 C64.8451525,32.7845438 64.8104156,32.7154337 64.8104156,32.6463237 L64.8104156,21.2777218 C64.8104156,21.2086118 64.8451525,21.1740568 64.8798895,21.1049467 C64.9146264,21.0703917 64.9841002,21.0012816 65.088311,21.0012816 C65.1925218,20.9667266 65.2967326,20.9321716 65.4704172,20.9321716 C65.6441018,20.8976166 65.8177864,20.8976166 66.0609449,20.8976166 C66.3041033,20.8976166 66.5125249,20.8976166 66.6514726,20.9321716 C66.7904203,20.9667266 66.929368,20.9667266 67.0335787,21.0012816 C67.1377895,21.0358367 67.2072634,21.0703917 67.2420003,21.1049467 C67.2767372,21.1395017 67.3114741,21.2086118 67.3114741,21.2777218 L67.3114741,32.6463237 Z M78.0451836,21.9342672 C78.0451836,22.1070423 78.0451836,22.2798174 78.0104467,22.3834825 C78.0104467,22.5217026 77.9757098,22.6253676 77.9409728,22.6944777 C77.9062359,22.7635877 77.871499,22.8326978 77.8367621,22.8672528 C77.8020251,22.9018078 77.7325513,22.9363628 77.6978144,22.9363628 L74.675702,22.9363628 L74.675702,32.6463237 C74.675702,32.7154337 74.6409651,32.7499888 74.6062281,32.8190988 C74.5714912,32.8536538 74.5020174,32.9227639 74.3978066,32.9227639 C74.2935958,32.9573189 74.1893851,32.9918739 74.0157004,32.9918739 C73.8420158,33.0264289 73.6683312,33.0264289 73.4251727,33.0264289 C73.1820143,33.0264289 72.9735927,33.0264289 72.834645,32.9918739 C72.6609604,32.9918739 72.5567496,32.9573189 72.4525389,32.9227639 C72.3483281,32.8882088 72.2788542,32.8536538 72.2441173,32.8190988 C72.2093804,32.7845438 72.1746435,32.7154337 72.1746435,32.6463237 L72.1746435,22.9363628 L69.1525311,22.9363628 C69.0830573,22.9363628 69.0483203,22.9018078 68.9788465,22.8672528 C68.9441096,22.8326978 68.9093726,22.7635877 68.8746357,22.6944777 C68.8398988,22.6253676 68.8051619,22.5217026 68.8051619,22.3834825 C68.8051619,22.2452624 68.7704249,22.1070423 68.7704249,21.9342672 C68.7704249,21.7614921 68.7704249,21.588717 68.8051619,21.4504969 C68.8051619,21.3122768 68.8398988,21.2086118 68.8746357,21.1395017 C68.9093726,21.0703917 68.9441096,21.0012816 68.9788465,20.9667266 C69.0135834,20.9321716 69.0830573,20.9321716 69.1525311,20.9321716 L77.6978144,20.9321716 C77.7672882,20.9321716 77.8020251,20.9667266 77.8367621,20.9667266 C77.871499,21.0012816 77.9062359,21.0703917 77.9409728,21.1395017 C77.9757098,21.2086118 78.0104467,21.3122768 78.0104467,21.4504969 C78.0104467,21.588717 78.0451836,21.7614921 78.0451836,21.9342672 Z M82.3178252,23.247358 L80.580979,28.3615011 L84.0199345,28.3615011 L82.3178252,23.247358 Z M87.875733,32.0588883 C87.9452069,32.2662185 87.9799438,32.4735486 88.0146807,32.5772137 C88.0494177,32.7154337 88.0146807,32.8190988 87.9452069,32.8536538 C87.875733,32.9227639 87.7715223,32.9573189 87.5978377,32.9918739 C87.424153,32.9918739 87.1809946,33.0264289 86.8683623,33.0264289 L86.1388869,33.0264289 C85.9652022,33.0264289 85.8262545,32.9918739 85.7220438,32.9573189 C85.617833,32.9227639 85.5483591,32.8882088 85.5136222,32.8536538 C85.4788853,32.8190988 85.4441484,32.7499888 85.4094115,32.6463237 L84.6104622,30.2274722 L80.0599252,30.2274722 L79.2957129,32.5772137 C79.2609759,32.6808787 79.226239,32.7499888 79.1915021,32.7845438 C79.1567652,32.8536538 79.0872913,32.8882088 78.9830805,32.9227639 C78.8788698,32.9573189 78.774659,32.9918739 78.6009744,32.9918739 C78.4272898,32.9918739 78.2188682,33.0264289 77.9409728,33.0264289 C77.6630774,33.0264289 77.419919,33.0264289 77.2809713,32.9918739 C77.1072867,32.9918739 77.0030759,32.9227639 76.933602,32.8536538 C76.8641282,32.7845438 76.8641282,32.6808787 76.8641282,32.5426586 C76.8988651,32.4044385 76.933602,32.2316634 77.0030759,32.0243333 L80.7199267,21.3468319 C80.7546637,21.2431668 80.7894006,21.1395017 80.8588744,21.1049467 C80.8936114,21.0358367 80.9978221,21.0012816 81.1020329,20.9667266 C81.2062437,20.9321716 81.3799283,20.8976166 81.5536129,20.8976166 L83.1862483,20.8976166 C83.3946699,20.8976166 83.5683545,20.9321716 83.7073022,20.9667266 C83.8462499,21.0012816 83.9157237,21.0358367 83.9851976,21.1049467 C84.0546714,21.1740568 84.0894083,21.2777218 84.1241453,21.3813869 L87.875733,32.0588883 Z M95.2746978,24.7677789 C95.2746978,24.3531187 95.205224,24.0075685 95.0662763,23.7311283 C94.9273286,23.4546881 94.718907,23.247358 94.5104855,23.1436929 C94.3020639,23.0054729 94.0589055,22.9363628 93.815747,22.9018078 C93.5725885,22.8672528 93.3294301,22.8672528 93.0862716,22.8672528 L92.0441639,22.8672528 L92.0441639,26.9447452 L93.1557455,26.9447452 C93.5378516,26.9447452 93.8852209,26.8756352 94.1283793,26.7719701 C94.4062747,26.6683051 94.6146963,26.530085 94.7883809,26.3227549 C94.9620655,26.1154247 95.1010132,25.9080946 95.170487,25.6316544 C95.2399609,25.3897693 95.2746978,25.0787741 95.2746978,24.7677789 Z M97.8452302,24.5950038 C97.8452302,25.2861042 97.7410194,25.8735396 97.5325979,26.3918649 C97.3241763,26.9101902 97.011544,27.3594055 96.5947009,27.7049557 C96.1778578,28.0505059 95.6915409,28.3269461 95.1010132,28.5342762 C94.5104855,28.7070513 93.815747,28.8107164 93.0167978,28.8107164 L92.009427,28.8107164 L92.009427,32.6463237 C92.009427,32.7154337 91.9746901,32.7499888 91.9399531,32.8190988 C91.9052162,32.8536538 91.8357424,32.9227639 91.7315316,32.9227639 C91.6273208,32.9573189 91.52311,32.9918739 91.3494254,32.9918739 C91.1757408,33.0264289 91.0020562,33.0264289 90.7588977,33.0264289 C90.5157393,33.0264289 90.3073177,33.0264289 90.16837,32.9918739 C89.9946854,32.9918739 89.8904746,32.9573189 89.7862639,32.9227639 C89.6820531,32.8882088 89.6125792,32.8536538 89.5778423,32.8190988 C89.5431054,32.7845438 89.5083685,32.7154337 89.5083685,32.6463237 L89.5083685,21.8306021 C89.5083685,21.554162 89.5778423,21.3122768 89.7515269,21.1740568 C89.8904746,21.0358367 90.0988962,20.9667266 90.3420546,20.9667266 L93.1904824,20.9667266 C93.4683778,20.9667266 93.7462732,20.9667266 94.0241686,21.0012816 C94.267327,21.0358367 94.5799593,21.0703917 94.9620655,21.1395017 C95.3094347,21.2086118 95.6915409,21.3468319 96.0736471,21.519607 C96.4557532,21.7269371 96.7683855,21.9688222 97.011544,22.2452624 C97.2894394,22.5562576 97.463124,22.8672528 97.6020717,23.281913 C97.7757563,23.6620183 97.8452302,24.1112335 97.8452302,24.5950038 Z M102.222083,32.6463237 C102.222083,32.7154337 102.187346,32.7499888 102.152609,32.8190988 C102.117872,32.8536538 102.048398,32.9227639 101.944187,32.9227639 C101.839976,32.9573189 101.735766,32.9918739 101.562081,32.9918739 C101.423133,33.0264289 101.214712,33.0264289 100.971553,33.0264289 C100.728395,33.0264289 100.55471,33.0264289 100.381026,32.9918739 C100.207341,32.9918739 100.10313,32.9573189 99.9989195,32.9227639 C99.8947087,32.8882088 99.8252348,32.8536538 99.7904979,32.8190988 C99.755761,32.7845438 99.7210241,32.7154337 99.7210241,32.6463237 L99.7210241,21.2777218 C99.7210241,21.2086118 99.755761,21.1740568 99.7904979,21.1049467 C99.8252348,21.0703917 99.8947087,21.0012816 99.9989195,21.0012816 C100.10313,20.9667266 100.207341,20.9321716 100.381026,20.9321716 C100.519973,20.8976166 100.728395,20.8976166 100.971553,20.8976166 C101.214712,20.8976166 101.423133,20.8976166 101.562081,20.9321716 C101.735766,20.9667266 101.839976,20.9667266 101.944187,21.0012816 C102.048398,21.0358367 102.117872,21.0703917 102.152609,21.1049467 C102.187346,21.1395017 102.222083,21.2086118 102.222083,21.2777218 L102.222083,32.6463237 Z M113.164214,26.9447452 C113.164214,26.3227549 113.129477,25.7353195 113.025266,25.2169942 C112.921055,24.6986689 112.74737,24.2494536 112.504212,23.8693484 C112.261054,23.4892432 111.948421,23.212803 111.531578,23.0054729 C111.149472,22.7981427 110.628418,22.6944777 110.03789,22.6944777 C109.447363,22.6944777 108.926309,22.7981427 108.509466,23.0400279 C108.092623,23.281913 107.77999,23.5583532 107.536832,23.9384584 C107.293673,24.3185637 107.119989,24.7677789 107.015778,25.2515492 C106.911567,25.7698745 106.87683,26.2881998 106.87683,26.8410802 C106.87683,27.4976256 106.911567,28.0850609 107.015778,28.6033862 C107.119989,29.1217116 107.293673,29.5709268 107.536832,29.9510321 C107.77999,30.3311373 108.092623,30.6075775 108.474729,30.8149076 C108.856835,31.0222377 109.377889,31.1259028 109.968417,31.1259028 C110.558944,31.1259028 111.079998,31.0222377 111.496841,30.7803526 C111.913684,30.5730224 112.226317,30.2620273 112.469475,29.881922 C112.712634,29.5018168 112.886318,29.0526015 112.990529,28.5342762 C113.129477,28.0850609 113.164214,27.5321806 113.164214,26.9447452 Z M115.769483,26.8065252 C115.769483,27.8086208 115.630535,28.7070513 115.387377,29.5018168 C115.144218,30.2965823 114.762112,30.9531277 114.275795,31.506008 C113.789478,32.0588883 113.164214,32.4735486 112.434738,32.7499888 C111.705263,33.0264289 110.871577,33.199204 109.898943,33.199204 C108.961046,33.199204 108.12736,33.0609839 107.432621,32.8190988 C106.737883,32.5772137 106.147355,32.1971084 105.661038,31.7133381 C105.209458,31.1950128 104.827352,30.5730224 104.61893,29.812812 C104.375772,29.0526015 104.271561,28.119616 104.271561,27.0484103 C104.271561,26.0808697 104.410509,25.1824392 104.653667,24.4222287 C104.896826,23.6274632 105.278932,22.9709178 105.765249,22.4525925 C106.251566,21.8997122 106.87683,21.4850519 107.606306,21.2086118 C108.335781,20.9321716 109.169467,20.7593965 110.142101,20.7593965 C111.045261,20.7593965 111.878947,20.8976166 112.573686,21.1395017 C113.268424,21.3813869 113.858952,21.7614921 114.345269,22.2452624 C114.831586,22.7635877 115.178955,23.3855781 115.422114,24.1457885 C115.630535,24.871444 115.769483,25.7698745 115.769483,26.8065252 Z M124.488451,31.9552233 C124.488451,32.1279984 124.488451,32.3007735 124.453714,32.4389936 C124.453714,32.5772137 124.418977,32.6808787 124.38424,32.7499888 C124.349503,32.8190988 124.314766,32.8882088 124.280029,32.9227639 C124.245292,32.9573189 124.175818,32.9918739 124.106345,32.9918739 L118.548437,32.9918739 C118.340015,32.9918739 118.166331,32.9227639 118.027383,32.8190988 C117.888435,32.7154337 117.818961,32.5081036 117.818961,32.2316634 L117.818961,21.2777218 C117.818961,21.2086118 117.853698,21.1740568 117.888435,21.1049467 C117.923172,21.0703917 117.992646,21.0012816 118.096857,21.0012816 C118.201068,20.9667266 118.305278,20.9321716 118.478963,20.9321716 C118.652648,20.8976166 118.826332,20.8976166 119.069491,20.8976166 C119.312649,20.8976166 119.521071,20.8976166 119.660018,20.9321716 C119.798966,20.9667266 119.937914,20.9667266 120.042125,21.0012816 C120.146335,21.0358367 120.215809,21.0703917 120.250546,21.1049467 C120.285283,21.1395017 120.32002,21.2086118 120.32002,21.2777218 L120.32002,30.9531277 L124.141082,30.9531277 C124.210555,30.9531277 124.245292,30.9531277 124.314766,30.9876827 C124.349503,31.0222377 124.38424,31.0913478 124.418977,31.1604578 C124.453714,31.2295678 124.488451,31.3332329 124.488451,31.471453 L124.488451,31.9552233 Z M130.289517,23.247358 L128.552671,28.3615011 L131.991626,28.3615011 L130.289517,23.247358 Z M135.847425,32.0588883 C135.916899,32.2662185 135.951636,32.4735486 135.986373,32.5772137 C136.021109,32.7154337 135.986373,32.8190988 135.916899,32.8536538 C135.847425,32.9227639 135.743214,32.9573189 135.534793,32.9918739 C135.361108,32.9918739 135.117949,33.0264289 134.805317,33.0264289 L134.075842,33.0264289 C133.902157,33.0264289 133.763209,32.9918739 133.658999,32.9573189 C133.554788,32.9227639 133.485314,32.8882088 133.450577,32.8536538 C133.41584,32.8190988 133.381103,32.7499888 133.346366,32.6463237 L132.547417,30.2274722 L127.99688,30.2274722 L127.232668,32.5772137 C127.197931,32.6808787 127.163194,32.7499888 127.128457,32.7845438 C127.09372,32.8536538 127.024246,32.8882088 126.920035,32.9227639 C126.815825,32.9573189 126.711614,32.9918739 126.537929,32.9918739 C126.364245,32.9918739 126.155823,33.0264289 125.877928,33.0264289 C125.600032,33.0264289 125.356874,33.0264289 125.217926,32.9918739 C125.044242,32.9918739 124.940031,32.9227639 124.870557,32.8536538 C124.801083,32.7845438 124.801083,32.6808787 124.801083,32.5426586 C124.83582,32.4044385 124.870557,32.2316634 124.940031,32.0243333 L128.656882,21.3468319 C128.691619,21.2431668 128.726355,21.1395017 128.795829,21.1049467 C128.830566,21.0358367 128.934777,21.0012816 129.038988,20.9667266 C129.143199,20.9321716 129.316883,20.8976166 129.490568,20.8976166 L131.123203,20.8976166 C131.331625,20.8976166 131.505309,20.9321716 131.644257,20.9667266 C131.783205,21.0012816 131.852679,21.0358367 131.922152,21.1049467 C131.991626,21.1740568 132.026363,21.2777218 132.0611,21.3813869 L135.847425,32.0588883 Z M1.79763581,31.6096731 C-0.599211936,29.2253766 -0.599211936,25.3897693 1.79763581,23.0054729 L10.0650237,14.7813779 C11.9408176,12.9154068 14.7545084,12.5007465 17.0471454,13.6065072 L17.0124084,13.6410622 L8.88396827,21.6923821 L8.84923134,21.7269371 C8.0502821,22.5217026 8.0502821,23.8002383 8.84923134,24.5950038 C9.64818059,25.3897693 10.9334468,25.3897693 11.732396,24.5950038 L13.1566099,23.1436929 C13.9555591,22.3489275 14.7892453,22.3143724 15.4839838,23.0400279 L18.57557,26.1154247 C19.4092562,26.9447452 19.513467,27.6358457 18.57557,28.5688312 L15.6924053,31.471453 C14.8934561,32.2662185 14.1292438,32.3698835 13.2260837,31.471453 L7.56396516,25.8735396 C6.76501591,25.0787741 5.47974973,25.0787741 4.68080049,25.8735396 C3.88185124,26.6683051 3.88185124,27.9468408 4.68080049,28.7416063 L11.8713437,35.8599406 C13.2955576,37.2766965 15.5534576,37.2766965 16.9776715,35.8599406 L23.0566332,29.812812 C24.4808471,28.4306111 24.4808471,26.1499798 23.0566332,24.7332239 L18.4018854,20.1374061 C17.67241,19.4117507 17.7418838,18.6169852 18.4713592,17.8567747 L19.965047,16.3709088 C20.0345208,16.3017988 20.1039947,16.2326888 20.1387316,16.1635787 L25.9397979,21.9342672 C28.8924364,24.871444 28.8924364,29.6745919 25.9397979,32.6117687 L19.7566254,38.7971174 C16.8039869,41.7342942 11.9755545,41.7342942 9.02291596,38.7971174 L1.79763581,31.6096731 Z" id="Cropped/Lähitapiola" fill="#00B1DF"></path>
    </g>
</svg>