<svg width="117" height="48" xmlns="http://www.w3.org/2000/svg"><g fill="none" fill-rule="evenodd"><path d="M41.774 34.823l-.024.005v1.604l1.336-1.673.579.21-1.245 1.502 1.525 1.923-.758.221-1.413-1.962v1.893h-.743v-3.723h.743zm5.34 2.453l-1.693-.03a.794.794 0 0 0 .183.603.767.767 0 0 0 .56.27c.255 0 .505-.078.718-.22l.193.378a2.135 2.135 0 0 1-1.042.328 1.34 1.34 0 0 1-.997-.433 1.388 1.388 0 0 1-.363-1.039 1.297 1.297 0 0 1 .374-.959 1.25 1.25 0 0 1 .948-.37c.825 0 1.157.662 1.119 1.472zm-1.693-.393h1.027c.034-.417-.038-.677-.448-.677-.41 0-.58.324-.58.677zm4.38-.824h-.01l-.246.329a.722.722 0 0 0-.449-.182.267.267 0 0 0-.201.066.277.277 0 0 0-.093.194c0 .221.232.353.526.574.28.174.46.476.482.81a.93.93 0 0 1-.965.785 1.433 1.433 0 0 1-.873-.329l.208-.378c.161.146.364.237.579.26a.33.33 0 0 0 .257-.08.34.34 0 0 0 .114-.248c0-.265-.207-.393-.511-.59-.304-.195-.512-.343-.512-.745 0-.402.4-.716.912-.716.282-.02.561.07.781.25zm1.027 2.482l-.015.01v-3.925h.68v2.311h.092l.888-1.138.511.22-.796.982.965 1.344-.656.26-.965-1.472h-.024v1.408h-.68zm3.12-2.664h.695v2.664h-.694v-2.664zm.348-.363h.005a.433.433 0 0 1-.312-.724.397.397 0 0 1 .283-.124.417.417 0 0 1 .405.186.433.433 0 0 1 .013.452.418.418 0 0 1-.394.21zm2.21.363h-.03v.314c.232-.251.559-.39.897-.377.27-.036.54.06.73.257.19.198.277.475.235.748v1.722h-.704v-1.633c0-.378-.14-.638-.511-.638a.608.608 0 0 0-.457.2.63.63 0 0 0-.16.477v1.594h-.68v-2.664h.68zm3.491-.951v-.005c.16 0 .29.132.29.294a.292.292 0 1 1-.584-.005.316.316 0 0 1 .294-.284zm1.144 0v-.005c.16 0 .29.132.29.294 0 .163-.13.295-.29.295a.291.291 0 0 1-.218-.083.302.302 0 0 1-.091-.217.33.33 0 0 1 .309-.284zm-.208 3.223l-.01.015-.14.132a1.23 1.23 0 0 1-.665.353.762.762 0 0 1-.546-.256.788.788 0 0 1-.197-.578c0-.525.338-.8.965-.98l.617-.173a.485.485 0 0 0-.482-.417.956.956 0 0 0-.695.29l-.207-.353a1.499 1.499 0 0 1 1.003-.354c.473 0 1.076.148 1.076.982v1.079a1.59 1.59 0 0 0 .101.652h-.743a.856.856 0 0 1-.077-.392zm.024-1.148l-.386.132c-.342.108-.51.349-.51.599s.125.392.293.392c.28 0 .656-.338.603-1.123zm1.824-1.124h.68v2.664h-.68v-2.664zm.347-.363h.005a.442.442 0 0 1-.44-.431.418.418 0 0 1 .41-.417.424.424 0 0 1 .39.413.425.425 0 0 1-.365.435zm2.21.363v.314c.23-.251.558-.39.896-.377.613 0 .936.328.936 1.005v1.722h-.704v-1.633c0-.378-.15-.638-.511-.638a.603.603 0 0 0-.458.198.625.625 0 0 0-.16.479v1.594h-.694v-2.664h.694zm5.305 1.399l-1.693-.03a.794.794 0 0 0 .188.608.766.766 0 0 0 .57.266c.25-.002.495-.079.704-.221l.193.378c-.31.196-.664.309-1.028.328a1.34 1.34 0 0 1-1.005-.429 1.393 1.393 0 0 1-.37-1.043 1.297 1.297 0 0 1 .375-.959c.25-.253.594-.387.947-.37.825 0 1.158.662 1.12 1.472zm-1.693-.393h1.027c.034-.417-.038-.677-.448-.677-.41 0-.579.324-.579.677zm3.4-1.006h-.028v.314a1.21 1.21 0 0 1 .911-.377c.613 0 .936.328.936 1.005v1.722h-.704v-1.633c0-.378-.15-.638-.511-.638a.612.612 0 0 0-.461.197.634.634 0 0 0-.166.48v1.594h-.676v-2.664h.7zm6.56 2.664h-.578l-1.375-3.684.782-.103c.308.952.641 1.894.964 2.978.319-1.084.666-2.026 1.013-2.978l.642.103-1.447 3.684zm3.454-.392l-.019.015-.154.132a1.204 1.204 0 0 1-.656.353.761.761 0 0 1-.556-.25.788.788 0 0 1-.202-.584c0-.525.348-.8.965-.98l.627-.173a.485.485 0 0 0-.482-.417.957.957 0 0 0-.68.29l-.217-.353a1.513 1.513 0 0 1 1.013-.354c.463 0 1.066.148 1.066.982v1.079a1.85 1.85 0 0 0 .1.652h-.742a1.081 1.081 0 0 1-.063-.392zm.024-1.148l-.385.132c-.343.108-.512.349-.512.599s.126.392.295.392c.28 0 .641-.338.602-1.123zm1.824 1.54l-.024-.004v-3.925h.68v2.31h.101l.873-1.123.511.22-.795.982.964 1.344-.665.26-.965-1.472h-.024v1.408h-.656zm4.823 0l-.024.01v-.328a1.26 1.26 0 0 1-.834.417c-.55 0-.897-.378-.897-1.045v-1.713h.694v1.62c0 .362.164.613.483.613.246 0 .54-.216.54-.707v-1.53h.694v2.663h-.656zm3.555 0v.01-.328a1.26 1.26 0 0 1-.834.417c-.55 0-.897-.378-.897-1.045v-1.713h.704v1.62c0 .362.16.613.482.613.246 0 .54-.216.54-.707v-1.53h.7v2.663h-.695zm2.682-3.458l-.005-.01v.795h.68v.353h-.68v1.31c0 .456.13.638.362.638a.843.843 0 0 0 .347-.094l.102.354c-.204.13-.44.197-.68.196-.58 0-.82-.324-.82-.873V36.22h-.386v-.344h.386v-.652l.694-.142zm3.377 3.458l-.03.01v-.328a1.26 1.26 0 0 1-.834.417c-.564 0-.897-.378-.897-1.045v-1.713h.704v1.62c0 .362.16.613.483.613.246 0 .54-.216.54-.707v-1.53h.714v2.663h-.68zm3.516-2.482h-.024l-.246.329a.693.693 0 0 0-.449-.182.272.272 0 0 0-.2.068.281.281 0 0 0-.094.192c0 .221.232.353.54.574.28.176.459.477.483.81a.93.93 0 0 1-.965.785 1.433 1.433 0 0 1-.873-.329l.207-.378c.162.146.364.237.58.26.202 0 .37-.064.37-.328 0-.265-.212-.393-.516-.59-.303-.195-.51-.343-.51-.745 0-.402.4-.716.925-.716.28-.019.555.07.772.25zm.656-.118l-.005.02.704-.133c.246.594.45 1.232.695 1.963.25-.707.478-1.35.733-1.963l.58.118-1.284 2.978c-.154.314-.473.981-1.167.981h-.295v-.49h.193c.319 0 .574-.128.859-1.045l-1.013-2.429zm4.226-1.32l-.054.005v1.57a1.2 1.2 0 0 1 .898-.377c.641 0 .964.328.964 1.005v1.722h-.704v-1.633c0-.378-.15-.638-.511-.638a.612.612 0 0 0-.461.197.634.634 0 0 0-.166.48v1.594h-.68v-3.924h.714zm3.815.457l.005-.005v.795h.694v.353h-.694v1.31c0 .456.125.638.371.638a.833.833 0 0 0 .333-.094l.116.354c-.209.131-.45.2-.695.196-.579 0-.81-.324-.81-.873V36.22h-.386v-.348h.386v-.653l.68-.142zm1.669.795h.695v2.664h-.695v-2.664zm.347-.363a.433.433 0 0 1-.424-.432.422.422 0 0 1 .417-.381c.214 0 .394.164.417.38a.426.426 0 0 1-.116.304.412.412 0 0 1-.294.129zm2.18-.59v-.004c.16 0 .29.132.29.294a.292.292 0 1 1-.584-.005.33.33 0 0 1 .294-.284zm1.144 0v-.004c.16 0 .29.132.29.294a.292.292 0 1 1-.585-.005.316.316 0 0 1 .295-.284zm-.58 3.71a1.35 1.35 0 0 1-1.003-.43 1.397 1.397 0 0 1-.37-1.042c0-.772.615-1.398 1.374-1.398.759 0 1.375.626 1.375 1.398a1.41 1.41 0 0 1-.373 1.04 1.357 1.357 0 0 1-1.002.432zm0-.417c.512 0 .642-.599.642-1.045 0-.447-.168-.981-.641-.981s-.642.495-.642.98c0 .486.16 1.046.642 1.046zm-62.63-13.374h1.852v5.047c0 2.514-2.011 2.953-3.657 2.567v-.912a1.535 1.535 0 0 0 1.524-.381 2.64 2.64 0 0 0 .281-1.294V24.84zM34.31 32.623c-2.856 0-4.653-1.734-4.653-3.966 0-2.108 1.936-3.77 4.653-3.77 2.716 0 4.691 1.662 4.691 3.77 0 2.232-1.801 3.966-4.691 3.966zm0-1.073c1.975 0 2.678-1.5 2.678-2.874 0-1.375-.829-2.697-2.678-2.697-1.85 0-2.64 1.288-2.64 2.697 0 1.408.713 2.874 2.64 2.874zM60.519 25h1.58l3.525 7.737h-2.122l-.862-2.104h-3.356l-.964 2.104h-1.634L60.518 25zm-.719 4.673h2.536c-.395-1.015-.81-1.955-1.258-3.139a33.818 33.818 0 0 1-1.278 3.139zM88.74 25h1.58l3.525 7.737h-2.121l-.863-2.104h-3.355l-.965 2.104h-1.634L88.74 25zm-.719 4.673h2.536c-.395-1.015-.81-1.955-1.258-3.139a33.818 33.818 0 0 1-1.278 3.139zm-.07-6.415a.782.782 0 0 1 .742.524.796.796 0 0 1-.245.88.775.775 0 0 1-.903.058.794.794 0 0 1-.352-.843.75.75 0 0 1 .758-.62zm3.07 0a.782.782 0 0 1 .742.524.796.796 0 0 1-.244.88.775.775 0 0 1-.903.058.794.794 0 0 1-.352-.843.75.75 0 0 1 .757-.62zM75.97 24.839v7.737h-1.424c-1.85-1.772-3.705-3.56-5.535-5.54v5.54h-1.573v-7.737h1.424c1.855 1.772 3.705 3.544 5.535 5.524V24.84h1.573zm6.439 7.737h-1.91v-6.688h-2.904V24.84h7.719v1.05h-2.905v6.687zm21.186-7.702v7.702h-1.882v-3.732h-3.936v3.732h-1.901v-7.737h1.9v2.97h3.937v-2.935h1.882zm6.836 7.702h-1.891v-6.688h-2.914V24.84h7.719v1.05h-2.914v6.687zm6.57 0h-2.031v-7.737H117v7.737zM23.494 29.66v2.916H21.53v-7.737h3.022c2.159 0 3.478.738 3.478 2.237 0 1.312-1.393 2.584-3.679 2.584h-.858zm0-3.767V28.7h.421l.422-.035c.918-.034 1.796-.495 1.796-1.534 0-.792-.643-1.238-1.776-1.238h-.863zm25.256-1.02v7.703h-1.9v-3.732h-3.932v3.732H41.03v-7.737h1.887v2.97h3.931v-2.935h1.901z" fill="#000" fill-rule="nonzero"/><path d="M0 0c17.651 0 30.875 5.13 30.875 11.14 0 6.011-13.693 11.804-30.875 12.07V11.082c9.164-.6 15.6-2.572 15.6-5.221C15.6 3.332 8.97 1.104 0 .15V0zm24.781 6.719L22.645 6.2l-.514-2.129-.495 2.13-2.136.517 2.136.517.495 2.13.514-2.13 2.136-.517z" fill="#FC1921"/></g></svg>