<?xml version="1.0" encoding="UTF-8"?>
<svg width="102px" height="48px" viewBox="0 0 102 48" version="1.1" xmlns="http://www.w3.org/2000/svg" xmlns:xlink="http://www.w3.org/1999/xlink">
    <!-- Generator: Sketch 52.3 (67297) - http://www.bohemiancoding.com/sketch -->
    <title>Optical/POP-Pankki</title>
    <desc>Created with Sketch.</desc>
    <g id="Optical/POP-Pankki" stroke="none" stroke-width="1" fill="none" fill-rule="evenodd">
        <g id="Cropped/POP-Pankki" transform="translate(0.000000, 10.000000)">
            <path d="M100.43343,9.19230043 C100.43343,9.19230043 100.05093,9.27906867 100.0025,9.22981116 C100.012384,9.22171674 100.023256,9.21381974 100.03314,9.20572532 C100.024244,9.19664378 100.01436,9.18706867 100.005465,9.17709871 C99.9807558,9.14945923 99.96,9.12122747 99.9422093,9.09309442 C99.7939535,9.1603176 99.6605233,9.19220172 99.5320349,9.19220172 C99.415407,9.19220172 99.3027326,9.1484721 99.2157558,9.07177253 C99.1455814,9.10612446 99.0556395,9.13712017 98.9518605,9.13712017 C98.855,9.13712017 98.7627849,9.10987554 98.6840116,9.05893991 C98.5676802,9.03130043 98.4660756,8.96091845 98.3994593,8.86230472 C98.3696105,8.81847639 98.3077384,8.7154206 98.2778895,8.579 C98.2076163,8.61749785 98.1286453,8.63773391 98.0484884,8.63773391 C97.9738663,8.63773391 97.8982558,8.62016309 97.8280814,8.58354077 C97.7952674,8.56636481 97.7645291,8.54879399 97.7354709,8.53082833 C97.7334942,8.53388841 97.7314186,8.5369485 97.7295407,8.53981116 C97.7164942,8.56577253 97.7007791,8.59084549 97.6826919,8.61453648 C97.5917616,8.73318884 97.451314,8.801103 97.3045407,8.801103 C97.2790407,8.801103 97.2534419,8.79912876 97.227843,8.79498283 C97.1706163,8.78570386 97.0848256,8.76665236 96.9955756,8.72884549 C96.9881628,8.73387983 96.9804535,8.73891416 96.9727442,8.7439485 C96.9640465,8.763 96.9534709,8.78481545 96.9402267,8.80870386 C96.8797384,9.08036052 96.7334593,9.1928927 96.6059593,9.238103 C96.5591105,9.25616738 96.5085058,9.26732189 96.4557267,9.27048069 C96.4451512,9.34175107 96.4177733,9.42141202 96.3559012,9.49870386 C96.3138953,9.55112017 96.261314,9.59406009 96.2017151,9.62456223 C96.1665291,9.77519742 96.079157,9.9169485 95.9481977,10.0313562 C95.9098488,10.0668927 95.866064,10.0958155 95.8185233,10.1170386 C95.7597151,10.2648112 95.6708605,10.443382 95.5378256,10.6351803 C95.417936,10.796279 95.260093,10.9682361 95.0491744,11.1369356 C97.8196802,10.932897 99.7731977,9.99266094 100.610349,9.25932618 C100.692384,9.18716738 100.573779,9.27551502 100.43343,9.19230043" id="Fill-1" fill="#84BF41"></path>
            <path d="M101.827035,6.65509442 C101.904128,6.6541073 101.772674,6.82744635 101.62343,6.94728326 C101.485058,7.05872961 101.359535,7.06682403 101.359535,7.06682403 C101.359535,7.06682403 101.36843,7.1799485 101.462326,7.15122318 C101.497907,7.14046352 101.372384,7.3116309 101.28936,7.38763948 C101.163837,7.50402146 101.517674,7.50451502 101.52657,7.52929185 C101.598721,7.72493991 101.463314,7.76304292 101.463314,7.76304292 C101.463314,7.76304292 101.560174,7.78949785 101.776628,7.70667811 C101.90314,7.74774249 101.608605,8.11327468 101.52064,8.2054721 C101.52064,8.2054721 101.530523,8.30171674 101.627384,8.26973391 C101.724244,8.2379485 101.565116,8.42639056 101.32,8.57376824 C101.230058,8.6281588 101.228081,8.71186695 101.235988,8.73259657 C101.106512,8.82005579 100.887093,9.0318927 100.791221,8.82212876 C100.791221,8.82212876 100.405756,8.9096867 100.359302,8.85904721 C100.313837,8.80830901 100.337558,8.74325751 100.325698,8.72519313 C100.313837,8.70703004 100.346453,8.69251931 100.328663,8.69074249 C100.309884,8.68906438 100.343488,8.6257897 100.327674,8.62411159 C100.310872,8.62233476 100.219942,8.62401288 100.176453,8.60486266 C100.132965,8.58561373 100.187326,8.47959657 100.162616,8.48206438 C100.137907,8.48453219 100.031163,8.50318884 99.8641279,8.59864378 C99.6980814,8.69409871 99.5992442,8.71650644 99.5320349,8.71650644 C99.5320349,8.71650644 99.4569186,8.63467382 99.4124419,8.61404292 C99.3669767,8.59351073 99.4470349,8.50832189 99.4213372,8.50782833 C99.3966279,8.50723605 99.1376744,8.56804292 99.0447674,8.62332189 C98.9528488,8.67860086 98.9390116,8.65747639 98.9390116,8.65747639 C98.9390116,8.65747639 98.9212209,8.62954077 98.9073837,8.60703433 C98.8935465,8.5845279 98.9162791,8.53823176 98.9034302,8.53990987 C98.8915698,8.5416867 98.855,8.55797425 98.8353314,8.56448927 C98.8159593,8.571103 98.7942151,8.59617597 98.7942151,8.59617597 C98.7940174,8.59578112 98.7149477,8.48561803 98.7437093,8.37792275 C98.7807733,8.23903433 98.790064,7.97685408 98.7727674,7.9516824 C98.7554709,7.92641202 98.6108721,7.93677682 98.3669419,7.99225322 C98.1229128,8.04782833 98.0487849,8.16193991 98.0487849,8.16193991 C98.0487849,8.16193991 97.9140698,8.09155794 97.8819477,8.03854936 C97.8499244,7.98554077 97.8320349,7.98623176 97.8320349,7.98623176 C97.8320349,7.98623176 97.6719186,7.98307296 97.5329535,8.06944635 C97.3939884,8.15581974 97.3024651,8.32511159 97.3044419,8.32540773 C97.3044419,8.32540773 97.1716047,8.30388841 97.1132907,8.2506824 C97.0549767,8.19747639 96.9477384,8.17388412 96.9477384,8.17388412 C96.9477384,8.17388412 96.8474186,8.25927039 96.6732674,8.3712103 C96.5476453,8.45195708 96.5735407,8.50585408 96.5056395,8.60762661 C96.4740116,8.65490987 96.4726279,8.79123176 96.4364535,8.79123176 C96.4364535,8.79123176 96.4337849,8.81008584 96.3499709,8.76961373 C96.2662558,8.72924034 96.1022849,8.73940773 96.1022849,8.73940773 C96.1022849,8.73940773 96.0349767,8.79429185 96.0247965,8.90504721 C96.0147151,9.01570386 95.9776512,9.00603004 95.9776512,9.00603004 C95.9579826,9.04808155 95.9932674,9.18993133 95.9839767,9.20148069 C95.9839767,9.20148069 95.9334709,9.22280258 95.8790116,9.2261588 C95.8245523,9.22961373 95.7925291,9.19072103 95.7460756,9.21628755 C95.6996221,9.24185408 95.7408372,9.44658369 95.7408372,9.44658369 C95.7606047,9.57283691 95.6376512,9.67026609 95.6242093,9.68270386 C95.6242093,9.68270386 95.5937674,9.69366094 95.5731105,9.64045494 C95.5507733,9.58280687 95.4576686,9.66069099 95.4576686,9.66069099 C95.4576686,9.66069099 95.3492442,10.5033004 94.2756744,11.1647725 C93.9872674,11.3424549 93.2123837,11.6949571 92.5822965,12.3997639 L89.3757209,16.2253648 L93.533407,22.5200601 L89.9898953,22.5200601 L87.0885291,17.8019013 L87.0885291,22.5200601 L84.4409767,22.5200601 L84.4409767,7.21923605 L87.0885291,5.94653648 L87.0885291,15.6144335 L90.219,11.5385966 L91.4421105,11.5385966 C93.027064,11.5385966 93.5513953,11.2230129 93.5513953,11.2230129 C93.5662209,11.2152146 93.966314,10.942867 93.8849709,10.6813777 C93.8334767,10.5767425 93.834564,10.5846395 93.7202093,10.4806953 C93.4423779,10.2265107 91.5564651,8.77583262 91.4076163,7.74191845 C91.4660291,7.66561373 91.5932326,7.63432189 91.5932326,7.63432189 C91.5932326,7.63432189 91.6090465,7.45624464 91.5610116,7.28438627 C91.5069477,7.0911073 91.3912093,6.89476824 91.4485349,6.75854506 C91.6012384,6.70899142 91.7252791,6.7786824 91.7252791,6.7786824 C91.7252791,6.7786824 91.8112674,6.3527382 91.665186,6.03518026 C91.7649128,5.95482833 91.8619709,6.03754936 91.8619709,6.03754936 C91.8619709,6.03754936 91.8744244,5.88671674 91.8730407,5.71574678 C91.8714593,5.52760086 91.8189767,5.50440343 91.833407,5.42049785 C91.89775,5.35791416 91.987593,5.40134764 91.987593,5.40134764 C91.987593,5.40134764 92.1988081,5.03403863 92.2131395,4.77018026 C92.3146453,4.74254077 92.3420233,4.91953219 92.4644826,5.02169957 C92.5835814,5.121103 92.7262035,5.19898712 92.8318605,5.19020172 C92.8318605,5.19020172 92.9218023,5.05802575 92.9895058,4.90600858 C93.0342791,4.80591416 93.0617558,4.69427039 93.074407,4.61628755 C93.1579244,4.57749356 93.2831512,4.69881116 93.2831512,4.69881116 C93.2831512,4.69881116 93.3855465,4.5127382 93.4497907,4.29369528 C93.4919942,4.14937768 93.4003721,3.92194421 93.5222384,3.90338627 C93.5539651,3.90506438 93.5873721,3.89943777 93.6227558,3.90960515 C93.6664419,3.92214163 93.7092384,3.95096567 93.7092384,3.95096567 C93.7092384,3.95096567 93.8143023,3.59204721 93.98875,3.49629614 C94.1431337,3.41140343 94.1269244,3.36372532 94.2501744,3.27675966 C94.2822965,3.25652361 94.3137267,3.25879399 94.3887442,3.33272961 C94.4614884,3.40449356 94.5784128,3.54762661 94.5784128,3.54762661 C94.5784128,3.54762661 94.5962035,3.52788412 94.6249651,3.49629614 C94.6537267,3.46460944 94.693064,3.46549785 94.693064,3.46549785 C94.693064,3.46549785 94.7593837,3.44536052 94.7377384,3.49935622 C94.7182674,3.54812017 94.7960523,3.67417597 94.7960523,3.67417597 C94.7960523,3.67417597 94.8971628,3.61228326 94.9817674,3.5333133 C95.0660756,3.45434335 95.1336802,3.35819742 95.1485058,3.30479399 C95.1701512,3.25869528 95.2276744,3.35543348 95.2612791,3.40528326 C95.2919186,3.45059227 95.2975523,3.4936309 95.2975523,3.4936309 C95.2975523,3.4936309 95.4308837,3.34042918 95.5176628,3.1692618 C95.5865523,3.03333476 95.5948547,2.82840773 95.6276686,2.8258412 C95.6674012,2.7774721 95.7740465,2.91882833 95.8015233,2.93096996 C95.816843,2.93758369 95.8736744,2.86404292 95.9098488,2.77441202 C95.9382151,2.70432618 95.9469128,2.62841631 95.9598605,2.54727468 C96.0110581,2.50522318 96.0570174,2.59317597 96.0570174,2.59317597 C96.0570174,2.59317597 96.1296628,2.57343348 96.2048779,2.50759227 C96.2514302,2.46672532 96.2937326,2.39535622 96.3363314,2.33859657 C96.3701337,2.29012876 96.4805349,2.4538927 96.5368721,2.55230901 C96.6106047,2.68083262 96.650436,2.82603863 96.6488547,2.89355794 C96.6488547,2.89355794 96.6798895,2.88171245 96.7116163,2.86433906 C96.7350407,2.85150644 96.7588605,2.83551502 96.7704244,2.81883262 C96.7772442,2.81804292 96.8207326,2.86720172 96.8473198,2.92090129 C96.873907,2.97460086 96.8836919,3.03303863 96.8836919,3.03303863 C96.8836919,3.03303863 97.0134651,2.97440343 97.0341221,2.84686695 C97.0511221,2.74203433 97.1446221,2.63739914 97.142843,2.61982833 C97.1387907,2.58083691 97.2851686,2.70580687 97.2851686,2.70580687 C97.2851686,2.70580687 97.3690814,2.63216738 97.4279884,2.4998927 C97.4752326,2.39338197 97.4995465,2.22774249 97.5037965,2.1936867 C97.5132849,2.11738197 97.6195349,2.31885408 97.6195349,2.31885408 C97.6195349,2.31895279 97.7252907,2.28282403 97.8001105,2.22685408 C97.8750291,2.17098283 97.9483663,2.09418455 97.9799942,2.05381116 C98.0115233,2.01343777 98.0271395,2.13120172 98.0919767,2.17601717 C98.137343,2.20730901 98.1484128,2.36534764 98.1484128,2.36534764 C98.1484128,2.36534764 98.23875,2.35024464 98.2853023,2.31500429 C98.3317558,2.27976395 98.4242674,2.50058369 98.4242674,2.50058369 C98.4242674,2.50058369 98.6437849,2.26900429 98.6800581,2.05805579 C98.7521105,2.05687124 98.7758314,2.15143777 98.7861105,2.16733047 C98.7861105,2.16733047 98.9231977,2.07927897 99.0665116,1.93584979 C99.202907,1.79804721 99.2780233,1.58423605 99.4025581,1.57890558 C99.3827907,1.6504721 99.5893605,1.79113734 99.5893605,1.79113734 C99.5893605,1.79113734 99.8107558,1.64375966 99.8176744,1.433897 C99.8463372,1.38641631 99.9105814,1.49983691 99.9105814,1.49983691 C99.9105814,1.49983691 100.048953,1.41603004 100.11814,1.28187983 C100.283198,0.962150215 100.232791,0.986236052 100.26343,0.968862661 C100.278256,0.945072961 100.426512,1.14457082 100.426512,1.14457082 C100.426512,1.14457082 100.498663,1.02572103 100.484826,0.946652361 C100.493721,0.903811159 100.54907,0.978832618 100.54907,0.978832618 C100.54907,0.978832618 100.642965,0.891077253 100.711163,0.788317597 C100.771453,0.698587983 100.806047,0.594643777 100.812965,0.562759657 C100.820872,0.528407725 100.94936,0.696416309 100.94936,0.696416309 C100.94936,0.696416309 101.066977,0.590103004 101.151977,0.45111588 C101.219186,0.340459227 101.259709,0.199892704 101.257733,0.141849785 C101.279477,0.106609442 101.339767,0.200682403 101.339767,0.200682403 C101.339767,0.200682403 101.660988,0.0122403433 101.852733,0.0153004292 C101.935756,0.0068111588 101.800349,0.151128755 101.785523,0.174622318 C101.771686,0.198806867 101.566105,0.354377682 101.767733,0.354772532 C101.808256,0.354871245 101.740058,0.522583691 101.609593,0.636695279 C101.510756,0.724055794 101.56314,0.867583691 101.56314,0.867583691 C101.56314,0.867583691 101.718314,0.868077253 101.73907,0.911708155 C101.686686,1.02562232 101.755872,1.29017167 101.564128,1.38681116 C101.521628,1.43567382 101.741047,1.40448069 101.740058,1.45679828 C101.73907,1.50921459 101.576977,1.77860086 101.310116,1.93229614 C101.22907,1.97898712 101.639244,1.99507725 101.640233,2.01797854 C101.658023,2.2278412 101.304186,2.56928755 101.304186,2.56928755 C101.304186,2.56928755 101.391163,2.70501717 101.543372,2.68853219 C101.571047,2.68557082 101.524593,2.93422747 101.454419,3.06660086 C101.383256,3.19887554 101.485058,3.12454506 101.498895,3.14833476 C101.511744,3.17212446 101.39907,3.37251073 101.302209,3.44091845 C101.206337,3.50903004 101.349651,3.50912876 101.379302,3.53874249 C101.409942,3.56845494 101.294302,3.99232618 101.294302,3.99232618 C101.294302,3.99232618 101.344709,4.11433476 101.679767,3.98304721 C101.820116,3.93823176 101.572035,4.47562232 101.572035,4.47562232 C101.572035,4.47562232 101.607616,4.52843348 101.709419,4.51885837 C101.779593,4.51234335 101.710407,4.62428326 101.609593,4.71756652 C101.530523,4.79100858 101.419826,4.84993991 101.419826,4.84993991 C101.419826,4.84993991 101.430698,4.95121888 101.576977,4.91587983 C101.84186,4.85201288 101.257733,5.47696137 101.257733,5.47696137 C101.257733,5.47696137 101.5325,5.47508584 101.48407,5.50963519 C101.43564,5.54408584 101.517674,5.70113734 101.517674,5.70113734 C101.517674,5.70113734 101.575988,5.71416738 101.740058,5.64783262 C101.904128,5.58159657 101.855698,6.01474678 101.855698,6.01474678 C101.855698,6.01474678 101.869535,6.02501288 101.930814,6.01820172 C102.064244,6.00359227 101.613547,6.49103433 101.613547,6.49103433 C101.613547,6.49103433 101.626395,6.65766094 101.827035,6.65509442 Z M33.1673953,7.1339485 C34.5634709,7.1339485 36.3355233,7.21153648 37.5861105,8.61739914 C38.3371744,9.44964378 38.8163372,10.7769313 38.8163372,12.3125021 C38.8163372,14.3162661 37.9618895,15.6433562 37.0240233,16.4500343 C35.5851512,17.6734764 33.4795233,17.6734764 32.6673779,17.6734764 C32.371657,17.6734764 32.1281221,17.6661717 31.8910116,17.6556094 L32.8835349,15.6136438 C34.0025698,15.5828455 35.7725465,15.2901631 35.7725465,12.4949227 C35.7725465,10.1262189 34.7513605,9.18983262 32.6463256,9.18983262 C32.1254535,9.18983262 31.5619826,9.21530043 31.2290988,9.21530043 L31.2290988,15.5396094 C31.2298895,15.5398069 31.2304826,15.5398069 31.2309767,15.5398069 L31.2309767,17.6216524 L31.2290988,17.6216524 L31.2290988,22.5200601 L28.3319826,22.5200601 L28.3319826,7.26375536 C29.5205988,7.26375536 31.5619826,7.1339485 33.1673953,7.1339485 Z M19.2050581,20.9893262 C20.88025,20.9893262 23.6573779,19.7312361 23.6573779,15.1804936 C23.6573779,11.1631931 21.367814,8.84009442 18.8237442,8.84009442 C15.8345116,8.84009442 14.3499767,11.6234893 14.3499767,14.6966052 C14.3499767,18.66603 16.639936,20.9893262 19.2050581,20.9893262 Z M24.3990523,8.79133047 C25.2896744,9.61459227 26.7311163,11.4539013 26.7311163,14.7939356 C26.7311163,20.2872833 22.7885,22.9012876 18.7392384,22.9012876 C13.3116919,22.9012876 11.2549884,18.6417468 11.2549884,15.011794 C11.2549884,12.2767682 12.2941628,10.3646094 13.8415581,8.96062232 C15.7072093,7.26711159 17.615064,6.95221888 19.5018663,6.95221888 C20.0108779,6.95221888 22.5759012,7.07294421 24.3990523,8.79133047 Z M4.83659884,7.1339485 C6.23297093,7.1339485 8.00502326,7.21153648 9.25590698,8.61739914 C10.0067733,9.44964378 10.4856395,10.7769313 10.4856395,12.3125021 C10.4856395,14.3162661 9.63099419,15.6433562 8.69302907,16.4500343 C7.25455233,17.6734764 5.14902326,17.6734764 4.33638372,17.6734764 C4.03878488,17.6734764 3.79376744,17.666073 3.55487791,17.6556094 L4.54799419,15.6140386 C5.66712791,15.5836352 7.44234302,15.2942103 7.44234302,12.4949227 C7.44234302,10.1262189 6.42105814,9.18983262 4.31543023,9.18983262 C3.79426163,9.18983262 3.23168023,9.21530043 2.89761047,9.21530043 L2.89761047,15.1282747 L2.89444767,15.1282747 L2.89513953,17.7696223 L2.89761047,17.7640944 L2.89761047,22.5200601 L0,22.5200601 L0,7.26375536 C1.18831977,7.26375536 3.23168023,7.1339485 4.83659884,7.1339485 Z M83.3089942,11.5385966 L79.3801163,16.2253648 L83.5379012,22.5200601 L79.9941919,22.5200601 L77.0922326,17.8019013 L77.0922326,22.5200601 L74.4449767,22.5200601 L74.4449767,7.21923605 L77.0922326,5.94653648 L77.0922326,15.6144335 L80.2233953,11.5385966 L83.3089942,11.5385966 Z M94.503593,22.5200601 L94.503593,12.8961888 L97.192657,11.5385966 L97.192657,22.5200601 L94.503593,22.5200601 Z M69.9685407,11.2525279 C71.1983721,11.2525279 71.8859826,12.0586137 72.1985058,12.6569099 C72.6156977,13.437824 72.6156977,14.4528841 72.6156977,15.7801717 L72.6156977,22.5200601 L69.9472907,22.5200601 L69.9472907,16.5345322 C69.9472907,14.7650129 69.9472907,13.8282318 68.7597616,13.8282318 C67.7172267,13.8282318 66.7785698,14.635206 66.4245349,14.9731974 L66.4245349,22.5200601 L63.7350756,22.5200601 L63.7350756,12.8703262 L66.4245349,11.5385966 L66.3822326,12.8657854 C67.4453256,12.0064936 68.6971977,11.2525279 69.9685407,11.2525279 Z M52.0674419,8.61739914 C52.8180116,9.44964378 53.2970756,10.7769313 53.2970756,12.3125021 C53.2970756,14.3162661 52.4423314,15.6433562 51.5044651,16.4500343 C50.0657907,17.6734764 47.9605581,17.6734764 47.1473256,17.6734764 C46.8506163,17.6734764 46.6058953,17.666073 46.3670058,17.6556094 L47.3597267,15.6140386 C48.478564,15.5836352 50.2543721,15.2938155 50.2543721,12.4949227 C50.2543721,10.1262189 49.232593,9.18983262 47.1269651,9.18983262 C46.6058953,9.18983262 46.0429186,9.21530043 45.7095407,9.21530043 L45.7095407,15.1282747 L45.7064767,15.1282747 L45.7072674,17.7696223 L45.7095407,17.7651803 L45.7095407,22.5200601 L42.8112384,22.5200601 L42.8112384,7.26375536 C43.9994593,7.26375536 46.0429186,7.1339485 47.6477384,7.1339485 C49.0445058,7.1339485 50.8161628,7.21153648 52.0674419,8.61739914 Z M58.4774302,20.073867 L58.4774302,17.6020086 C57.435686,17.7842318 56.5807442,17.9922189 56.4137093,18.0444378 C55.7671163,18.2258712 55.5797209,18.3566652 55.5797209,19.2413262 C55.5797209,20.1255923 55.8296802,20.4646695 56.6636686,20.4646695 C57.2678605,20.4646695 57.6017326,20.3604292 58.4774302,20.073867 Z M61.5213198,20.4646695 C61.7199826,20.4646695 61.9199302,20.4300215 62.1049535,20.3803691 L62.7163605,21.8904721 C62.7133953,21.8916567 62.7122093,21.8940258 62.7092442,21.8955064 C62.6466802,21.9217639 61.3543837,22.7801674 60.1239593,22.7801674 C59.164843,22.7801674 58.8733721,22.1300472 58.7070291,21.7396395 C57.6853488,22.2338927 56.5178837,22.7801674 55.3298605,22.7801674 C54.7250756,22.7801674 53.0366395,22.4680386 53.0366395,19.6058712 C53.0366395,17.1591845 53.9333895,16.6394635 58.4774302,15.9362361 C58.4774302,14.375 58.4774302,14.0882403 58.2057267,13.8023691 C57.8514942,13.437824 57.2892093,13.4115665 57.0391512,13.4115665 C55.9162616,13.4115665 55.2201512,13.8837082 54.7981163,14.3077768 L54.00475,12.3471502 C55.3847151,11.447485 56.9436744,11.2525279 57.7477151,11.2525279 C59.665157,11.2525279 60.5405581,12.1627554 60.812657,12.8657854 C61.1247849,13.6982275 61.1247849,14.4274163 61.1035349,15.5718884 L61.0413663,19.5018283 C61.0205116,20.1255923 61.0413663,20.4646695 61.5213198,20.4646695 Z" id="Combined-Shape" fill="#009F4A"></path>
        </g>
    </g>
</svg>