<?xml version="1.0" encoding="UTF-8"?>
<svg width="90px" height="48px" viewBox="0 0 90 48" version="1.1" xmlns="http://www.w3.org/2000/svg" xmlns:xlink="http://www.w3.org/1999/xlink">
    <!-- Generator: Sketch 52.3 (67297) - http://www.bohemiancoding.com/sketch -->
    <title>Optical/S-Pankki</title>
    <desc>Created with Sketch.</desc>
    <g id="Optical/S-Pankki" stroke="none" stroke-width="1" fill="none" fill-rule="evenodd">
        <path d="M85.980148,30.6100015 C85.980148,31.5055501 86.7051146,32.230518 87.5965839,32.230518 C88.4916211,32.230518 89.2155682,31.5055501 89.2155682,30.6100015 C89.2155682,29.7154723 88.4916211,28.9930529 87.5965839,28.9930529 C86.7051146,28.9930529 85.980148,29.7154723 85.980148,30.6100015 Z M45.6579407,27.412803 L45.6579407,27.1125878 C46.838751,26.4603375 46.6770054,25.7156611 46.6770054,24.5122518 L46.6770054,18.2986295 C46.6770054,17.0981084 46.838751,16.3700823 45.6579407,15.7168127 L45.6579407,15.4011364 L50.1378839,15.4011364 L50.1378839,15.7198709 C48.9574134,16.3716114 49.1198386,17.069735 49.1198386,18.2728045 L49.1198386,22.4498225 C49.1198386,24.3411614 50.2313293,25.9327947 52.2157702,25.9327947 C54.3850631,25.9327947 55.210441,24.6243865 55.210441,22.2622518 L55.210441,18.2728045 C55.210441,17.0981084 55.3715069,16.3700823 54.1903568,15.7168127 L54.1903568,15.4011364 L58.6706398,15.4011364 L58.6706398,15.7168127 C57.4903393,16.3700823 57.6515751,17.069735 57.6515751,18.2728045 L57.6515751,23.1623877 C57.6515751,27.1161557 54.8072665,27.7492071 52.9019994,27.7492071 C51.3392522,27.7492071 49.8509215,26.973099 49.1198386,25.7411463 L49.1198386,27.7492071 L48.8097697,27.7492071 C48.2453593,27.4365891 47.8309714,27.412803 47.2414158,27.412803 L45.6579407,27.412803 Z M11.0488163,32.3117307 C9.76946355,32.6992751 8.41110698,32.87971 7.08061413,32.87971 C3.67699223,32.87971 0.395019265,31.6373933 0.395019265,28.3713849 C0.395019265,22.8120516 9.40740503,23.4372876 9.40740503,19.5604848 C9.40740503,18.0391905 7.48157993,17.1575738 5.68046198,17.1575738 C3.60223589,17.1575738 1.33762868,17.9926376 0,19.2493959 L0.688777677,15.7772974 C2.20548175,15.233614 3.83041261,15 5.45670268,15 C9.89790852,15 12.5925346,17.0651476 12.5925346,20.0452126 C12.5925346,24.8403307 3.62942002,25.1065657 3.62942002,28.6566488 C3.62942002,30.1738654 5.3931598,30.8456543 6.91088328,30.8456543 C8.40142264,30.8456543 10.1063768,30.2528694 11.0488163,29.3889224 L11.0488163,32.3117307 Z M14.5227771,24.6274447 C14.7465364,24.8749906 15.1011193,25.0744544 15.389271,25.0744544 L20.9363608,25.0744544 C21.2289299,25.0744544 21.2156777,24.8749906 20.9929378,24.6274447 L20.0049649,23.534471 C19.7801862,23.2884543 19.4155791,23.0884807 19.1377914,23.0884807 L13.5883229,23.0884807 C13.315972,23.0884807 13.3095158,23.2884543 13.5337848,23.534471 L14.5227771,24.6274447 Z M59.9134639,32.5830628 L59.9134639,32.2791097 C61.0689589,31.6270294 60.9087425,30.8859209 60.9087425,29.6845503 L60.9087425,18.2986295 C60.9087425,17.0981084 61.0689589,16.3700823 59.9134639,15.7168127 L59.9134639,15.4011364 L64.3964653,15.4011364 L64.3964653,15.7168127 C63.1872816,16.3700823 63.3500465,17.0981084 63.3500465,18.2986295 L63.3500465,33 L63.0362398,33 C62.6879433,32.6093974 62.2761038,32.5830628 61.6870579,32.5830628 L59.9134639,32.5830628 Z M67.8323684,16.8624556 C68.3408813,16.1549875 69.0106301,15.4011364 70.5676007,15.4011364 L72.6616275,15.4011364 C71.4527836,16.130182 70.6466045,17.2547572 69.8168092,18.3254738 L66.5419721,22.3711583 L71.0229347,27.412803 L66.9456563,27.412803 L66.9456563,27.10885 C67.1797795,27.0572 67.4551887,26.9435362 67.4551887,26.5750208 C67.4551887,25.9209016 66.4887932,24.9296987 66.0873177,24.4879559 L63.8616177,22.1101903 L67.8323684,16.8624556 Z M85.5192073,27.412803 L85.5192073,27.1115684 C86.7005273,26.457789 86.5377623,25.7411463 86.5377623,24.5406252 L86.5377623,18.2986295 C86.5377623,17.0981084 86.7005273,16.3716114 85.5192073,15.7198709 L85.5192073,15.4011364 L90,15.4011364 L90,15.7168127 C88.820379,16.3700823 88.9804255,17.0981084 88.9804255,18.2986295 L88.9804255,27.8282111 L88.6689975,27.8282111 C88.2141731,27.4365891 87.7727709,27.412803 87.1551817,27.412803 L85.5192073,27.412803 Z M22.0179491,32.5830628 L22.0179491,32.2791097 C23.3577865,31.7566639 23.19757,30.0741335 23.19757,28.9006267 L23.19757,19.0577475 C23.19757,17.8789738 23.3577865,16.1901571 21.9921242,15.7198709 L21.9921242,15.4011364 L27.3314254,15.4011364 L27.3314254,15.7198709 C25.9069774,16.5017556 25.9333121,17.3058975 25.9333121,18.7697652 L25.9333121,30.6292003 C27.6044559,30.622914 26.0644755,30.6292003 27.8187008,30.622914 C30.0581627,30.6130597 31.6494532,29.6803028 31.6494532,27.381881 C31.6494532,25.0894057 29.7762973,23.7344446 26.821893,23.7344446 L26.821893,23.441875 C27.2948967,23.2352752 28.1494976,23.1355433 28.8209454,23.1211017 C31.9102509,23.0652043 34.6137117,25.009892 34.6137117,28.0142528 C34.6137117,30.937231 32.0252737,32.5830628 28.5377208,32.5830628 L22.0179491,32.5830628 Z M21.136334,23.8037643 L21.6258181,23.8037643 C21.9105718,23.8037643 21.9047952,23.6005626 21.6793369,23.3540361 L20.6910241,22.2632712 C20.4684541,22.0136865 20.1097936,21.8125236 19.82504,21.8125236 L14.2774404,21.8125236 C13.9982934,21.8125236 13.9982934,22.0136865 14.2213731,22.2632712 L14.3758129,22.4316431 L19.4373264,22.4316431 C19.7220801,22.4316431 20.0780222,22.631107 20.3012718,22.8791626 L21.136334,23.8037643 Z M72.6578897,32.5830628 L72.6578897,32.2791097 C73.811346,31.6270294 73.6506199,30.8859209 73.6506199,29.6845503 L73.6506199,18.2986295 C73.6506199,17.0981084 73.811346,16.3700823 72.6578897,15.7168127 L72.6578897,15.4011364 L77.1398717,15.4011364 L77.1398717,15.7168127 C75.930688,16.3700823 76.0907346,17.0981084 76.0907346,18.2986295 L76.0907346,33 L75.7776075,33 C75.4293109,32.6093974 75.02002,32.5830628 74.4279158,32.5830628 L72.6578897,32.5830628 Z M80.5524984,16.8624556 C81.0615211,16.1549875 81.7317796,15.4011364 83.2877307,15.4011364 L85.3802285,15.4011364 C84.174103,16.130182 83.3679239,17.2547572 82.537449,18.3254738 L79.2648205,22.3711583 L83.7435744,27.412803 L79.666296,27.412803 L79.666296,27.10885 C79.9004193,27.0572 80.1768478,26.9435362 80.1768478,26.5750208 C80.1768478,25.9209016 79.2101125,24.9296987 78.806938,24.4879559 L76.5822575,22.1101903 L80.5524984,16.8624556 Z M45.6657561,16.927018 C43.3671688,16.927018 43.104842,17.4701918 43.104842,19.8224722 L43.1488463,23.5747376 C43.1488463,27.0391905 41.2165649,27.7522653 38.3289316,27.7522653 C37.8516804,27.7522653 35.8567057,27.7780903 35.6254708,26.9296043 C35.2996011,25.7358793 34.777666,24.9737031 34.777666,24.9737031 C35.7652991,25.5518765 36.8796782,25.9156347 38.2485686,25.9156347 C39.2418084,25.9156347 40.7014258,25.6103224 40.7014258,24.504946 C40.7014258,21.8089557 32.7685895,23.1406403 32.7685895,18.6494752 C32.7685895,16.3389904 34.6312115,15.0609945 37.2750372,15.0609945 C37.7295218,15.0609945 37.8098848,15.0501208 38.5373999,15.0642226 L40.0566525,16.9203919 C39.283604,16.9120668 39.1053781,16.9214113 38.4612843,16.9214113 C36.6202397,16.9214113 35.4836036,17.346164 35.4836036,18.788964 C35.4836036,19.9978102 36.9872254,20.5708865 38.2485686,20.868893 C39.2433375,21.1004682 40.0975985,21.2834516 40.7065229,21.7552669 L40.7065229,17.7766933 C40.7065229,15.6894586 42.3278858,15.1100959 44.1794643,15.1100959 L45.6657561,16.927018 Z" id="Cropped/S-Pankki" fill="#5B8F22" fill-rule="nonzero" transform="translate(45.000000, 24.000000) scale(-1, 1) rotate(-180.000000) translate(-45.000000, -24.000000) "></path>
    </g>
</svg>