<?xml version="1.0" encoding="UTF-8"?>
<svg width="212px" height="48px" viewBox="0 0 212 48" version="1.1" xmlns="http://www.w3.org/2000/svg" xmlns:xlink="http://www.w3.org/1999/xlink">
    <!-- Generator: Sketch 52.3 (67297) - http://www.bohemiancoding.com/sketch -->
    <title>Optical/Ålandsbanken</title>
    <desc>Created with Sketch.</desc>
    <g id="Optical/Ålandsbanken" stroke="none" stroke-width="1" fill="none" fill-rule="evenodd">
        <path d="M21.1293333,23.4988962 C19.61,20.8852097 21.0586667,23.3576159 19.5393333,20.7792494 L26.182,20.7792494 L26.182,29.8211921 L32.6833333,29.8211921 C31.058,32.7880795 32.648,29.8918322 30.9873333,32.8940397 C28.7613333,32.9293598 24.6626667,32.9293598 21.1293333,32.9293598 L21.1293333,23.4988962 Z M53.8833333,23.6048565 C52.2933333,20.8852097 53.8126667,23.5342163 52.258,20.8145695 L61.6566667,20.8145695 C65.1546667,26.3951435 61.7626667,20.99117 65.1546667,26.4657837 L65.1546667,20.8145695 L69.2886667,20.8145695 L69.2886667,32.9646799 L62.752,32.9646799 C58.1233333,25.6534216 62.6813333,32.7880795 58.0526667,25.5827815 L58.0526667,32.9646799 C56.2506667,32.9293598 55.4733333,32.9293598 53.8833333,32.9293598 L53.8833333,23.6048565 Z M168.363333,27.9492274 L168.363333,32.9293598 C166.632,32.9646799 165.077333,32.9293598 163.416667,32.9293598 L163.416667,23.4988962 C161.897333,20.9205298 163.346,23.392936 161.791333,20.8145695 L168.328,20.8145695 L168.328,27.419426 C170.306667,25.2649007 172.356,23.004415 174.334667,20.8145695 L177.832667,20.8145695 C173.345333,25.794702 177.585333,21.0618102 173.168667,26.0066225 C177.196667,32.7527594 173.31,26.2538631 177.338,32.9293598 L171.437333,32.9293598 C168.434,28.0551876 171.366667,32.7880795 168.363333,27.9492274 Z M178.751333,20.8145695 L192.672667,20.8145695 C194.262667,23.392936 192.743333,20.9558499 194.333333,23.4988962 L185.429333,23.4988962 L185.429333,25.4768212 L189.174667,25.4768212 L189.174667,28.0905077 L185.429333,28.0905077 L185.429333,30.3509934 L194.404,30.3509934 C193.096667,32.8587196 194.298,30.5275938 193.061333,32.9646799 L180.341333,32.9646799 L180.341333,23.4282561 C179.034,21.2384106 180.270667,23.2869757 178.751333,20.8145695 Z M99.4986667,29.8211921 C100.205333,29.6445916 100.205333,28.5496689 99.534,28.4437086 C91.7253333,28.5143488 89.8526667,28.4437086 89.7466667,24.7704194 C89.7113333,22.4746137 91.5133333,20.9205298 92.9266667,20.7792494 L102.360667,20.7792494 C102.678667,21.3443709 103.88,23.2516556 103.986,23.4635762 L96.036,23.4635762 C95.506,23.6754967 95.3646667,24.5231788 96.036,24.7350993 L102.678667,24.7350993 C106.494667,25.3708609 106.494667,32.3995585 102.537333,32.8940397 L91.69,32.8940397 C89.888,30.0331126 91.584,32.7880795 89.7466667,29.8211921 L99.4986667,29.8211921 Z M71.444,20.7792494 C79.5706667,20.7792494 80.8073333,20.7086093 82.6093333,20.8498896 C86.4606667,21.4856512 88.0506667,24.205298 88.0153333,27.3487859 C88.0153333,29.8565121 85.8246667,32.5408389 82.574,32.7880795 C80.772,32.9293598 78.864,32.8940397 73.0693333,32.8940397 L73.0693333,23.4635762 C71.5146667,20.9205298 73.034,23.392936 71.444,20.7792494 Z M78.1573333,23.4635762 L78.1573333,30.2803532 C81.3373333,30.5275938 82.468,29.7505519 82.574,27.2428256 C82.6093333,24.0286976 81.1606667,23.2869757 78.1573333,23.4635762 Z M135.609333,20.7792494 C142.923333,32.611479 135.998,21.415011 143.1,32.9293598 L134.514,32.9293598 C135.786,30.5629139 134.655333,32.6467991 135.927333,30.3156733 L128.684,30.3156733 C127.624,32.3995585 128.507333,30.6688742 127.376667,32.9293598 L123.454667,32.9293598 C125.115333,29.785872 126.811333,26.607064 128.472,23.4635762 C126.846667,20.9205298 128.436667,23.392936 126.740667,20.7792494 L135.609333,20.7792494 Z M130.309333,27.384106 L133.772,27.384106 C131.934667,24.5584989 133.524667,26.995585 131.828667,24.4525386 C130.415333,27.2075055 131.758,24.5584989 130.309333,27.384106 Z M19.8573333,32.9293598 L19.8573333,32.8940397 L11.13,32.8940397 C12.4726667,30.3863135 11.2713333,32.6821192 12.5433333,30.2803532 L5.33533333,30.2803532 C4.09866667,32.5761589 5.194,30.5275938 3.922,32.8940397 C0,32.8940397 3.88666667,32.9293598 0,32.8940397 C5.088,23.4282561 0,32.8587196 5.12333333,23.4282561 L3.46266667,20.7792494 L12.3313333,20.7792494 C14.84,24.8057395 17.3486667,28.8675497 19.8573333,32.9293598 Z M6.92533333,27.3487859 L10.4233333,27.3487859 C10.4586667,27.3134658 10.3526667,27.1721854 8.62133333,24.3112583 C7.03133333,27.1368653 8.48,24.5231788 6.92533333,27.3487859 Z M52.3286667,32.9293598 L52.3286667,33 L43.672,33 C44.8733333,30.6688742 43.8133333,32.6821192 45.05,30.3509934 L37.8066667,30.3509934 C36.5346667,32.8233996 37.736,30.4569536 36.464,32.9646799 L32.542,32.9646799 C32.542,32.9293598 32.7893333,32.4348786 37.5946667,23.4635762 C36.04,20.9205298 37.4533333,23.2163355 35.934,20.7792494 L44.8026667,20.7792494 C52.1873333,32.6821192 45.05,21.1324503 52.3286667,32.9293598 Z M41.0573333,24.3465784 C39.4673333,27.2781457 41.022,24.4172185 39.432,27.3487859 L42.93,27.3487859 C41.1633333,24.4878587 42.8593333,27.2075055 41.0573333,24.3465784 Z M120.345333,26.5364238 L120.345333,26.6423841 C123.348667,27.0662252 123.808,32.5055188 119.992,32.9293598 L107.943333,32.9293598 L107.943333,23.4635762 C106.388667,20.8852097 107.872667,23.3222958 106.318,20.7792494 L119.320667,20.7792494 C120.946,20.9558499 122.041333,21.7328918 122.147333,23.4635762 C122.182667,24.6644592 121.652667,25.9006623 120.345333,26.5364238 Z M116.918,24.3112583 C116.882667,23.2163355 115.716667,23.5342163 113.031333,23.4635762 L113.031333,25.3355408 C115.398667,25.2649007 116.847333,25.6181015 116.918,24.3112583 Z M112.996,27.9845475 L112.996,30.3156733 C116.140667,30.2450331 117.377333,30.5629139 117.448,29.2207506 C117.342,27.807947 116.176,27.9845475 112.996,27.9845475 Z M4.06333333,17 L9.964,17 C11.66,19.6843267 10.0346667,17.1059603 11.6953333,19.7196468 L5.724,19.7196468 C4.134,17.1059603 5.724,19.7196468 4.06333333,17 Z M144.796,23.6048565 C143.241333,20.8852097 144.725333,23.5342163 143.170667,20.8145695 L152.534,20.8145695 C156.032,26.3951435 152.64,20.99117 156.067333,26.4657837 L156.067333,20.8145695 L160.201333,20.8145695 L160.201333,32.9646799 L153.664667,32.9646799 C149.000667,25.6534216 153.594,32.7880795 148.965333,25.5827815 L148.965333,32.9646799 C147.198667,32.9293598 146.386,32.9293598 144.796,32.9293598 L144.796,23.6048565 Z M196.594667,23.6048565 C195.004667,20.8852097 196.524,23.5342163 194.969333,20.8145695 L204.368,20.8145695 C207.830667,26.3951435 204.438667,20.99117 207.866,26.4657837 L207.866,20.8145695 L212,20.8145695 L212,32.9646799 L205.463333,32.9646799 C200.834667,25.6534216 205.392667,32.7880795 200.764,25.5827815 L200.764,32.9646799 C198.962,32.9293598 198.184667,32.9293598 196.594667,32.9293598 L196.594667,23.6048565 Z" id="Cropped/Ålandsbanken" fill="#00633A"></path>
    </g>
</svg>