<svg width="212" height="48" viewBox="0 0 212 48" xmlns="http://www.w3.org/2000/svg"><path d="M21.13 23.499c-1.52-2.614-.071-.141-1.59-2.72h6.642v9.042h6.501c-1.625 2.967-.035.07-1.696 3.073-2.226.035-6.324.035-9.858.035V23.5zm32.753.106c-1.59-2.72-.07-.07-1.625-2.79h9.399c3.498 5.58.106.176 3.498 5.65v-5.65h4.134v12.15h-6.537c-4.629-7.312-.07-.177-4.7-7.382v7.382c-1.801-.036-2.579-.036-4.169-.036v-9.324zm114.48 4.344v4.98c-1.731.036-3.286 0-4.946 0V23.5c-1.52-2.578-.071-.106-1.626-2.684h6.537v6.604c1.979-2.154 4.028-4.415 6.007-6.604h3.498c-4.488 4.98-.248.247-4.664 5.192 4.028 6.746.141.247 4.169 6.922h-5.9c-3.004-4.874-.071-.14-3.075-4.98zm10.388-7.134h13.922c1.59 2.578.07.14 1.66 2.684h-8.904v1.978h3.746v2.614h-3.746v2.26h8.975c-1.307 2.508-.106.177-1.343 2.614h-12.72v-9.537c-1.307-2.19-.07-.141-1.59-2.613zM99.5 29.82c.706-.176.706-1.271.035-1.377-7.809.07-9.681 0-9.787-3.674-.036-2.295 1.766-3.85 3.18-3.99h9.434c.318.564 1.519 2.472 1.625 2.684h-7.95c-.53.211-.671 1.06 0 1.271h6.643c3.816.636 3.816 7.665-.142 8.159H91.69c-1.802-2.86-.106-.106-1.943-3.073h9.752zm-28.056-9.04c8.127 0 9.363-.07 11.165.07 3.852.637 5.442 3.356 5.406 6.5 0 2.508-2.19 5.192-5.441 5.44-1.802.14-3.71.105-9.505.105v-9.43c-1.554-2.543-.035-.071-1.625-2.685zm6.713 2.685v6.816c3.18.248 4.311-.53 4.417-3.037.035-3.214-1.413-3.956-4.417-3.78zm57.452-2.685c7.314 11.832.389.636 7.491 12.15h-8.586c1.272-2.366.141-.282 1.413-2.613h-7.243c-1.06 2.084-.177.353-1.307 2.613h-3.922c1.66-3.143 3.356-6.322 5.017-9.465-1.625-2.543-.035-.071-1.731-2.685h8.868zm-5.3 6.605h3.463c-1.837-2.826-.247-.388-1.943-2.931-1.414 2.755-.071.105-1.52 2.931zM19.857 32.93v-.035H11.13c1.343-2.508.141-.212 1.413-2.614H5.335c-1.236 2.296-.141.248-1.413 2.614-3.922 0-.035.035-3.922 0 5.088-9.466 0-.035 5.123-9.466l-1.66-2.649h8.868c2.509 4.027 5.018 8.089 7.526 12.15zM6.925 27.35h3.498c.036-.036-.07-.177-1.802-3.038-1.59 2.826-.141.212-1.696 3.038zm45.404 5.58V33h-8.657c1.201-2.331.141-.318 1.378-2.649h-7.243c-1.272 2.472-.071.106-1.343 2.614h-3.922c0-.036.247-.53 5.053-9.501-1.555-2.543-.142-.248-1.661-2.685h8.869c7.384 11.903.247.353 7.526 12.15zm-11.272-8.582c-1.59 2.931-.035.07-1.625 3.002h3.498c-1.767-2.861-.07-.141-1.873-3.002zm79.288 2.19v.105c3.004.424 3.463 5.864-.353 6.287h-12.049v-9.465c-1.554-2.579-.07-.142-1.625-2.685h13.003c1.625.177 2.72.954 2.826 2.685.036 1.2-.494 2.437-1.802 3.072zm-3.427-2.226c-.035-1.095-1.201-.777-3.887-.847v1.872c2.368-.071 3.816.282 3.887-1.025zm-3.922 3.674v2.33c3.145-.07 4.381.248 4.452-1.094-.106-1.413-1.272-1.236-4.452-1.236zM4.063 17h5.901c1.696 2.684.07.106 1.731 2.72H5.724c-1.59-2.614 0 0-1.66-2.72zm140.733 6.605c-1.555-2.72-.07-.07-1.625-2.79h9.363c3.498 5.58.106.176 3.533 5.65v-5.65h4.134v12.15h-6.536c-4.664-7.312-.071-.177-4.7-7.382v7.382c-1.766-.036-2.579-.036-4.169-.036v-9.324zm51.799 0c-1.59-2.72-.071-.07-1.626-2.79h9.399c3.463 5.58.07.176 3.498 5.65v-5.65H212v12.15h-6.537c-4.628-7.312-.07-.177-4.699-7.382v7.382c-1.802-.036-2.58-.036-4.17-.036v-9.324z" fill="#00633A" fill-rule="evenodd"/></svg>